<svg width="16" height="12" viewBox="0 0 16 12" fill="none" xmlns="http://www.w3.org/2000/svg">
<path fill-rule="evenodd" clip-rule="evenodd" d="M10.5074 0.219671L15.2803 4.99264C15.5732 5.28554 15.5732 5.76041 15.2803 6.0533L10.5074 10.8263C10.2145 11.1192 9.73959 11.1192 9.4467 10.8263C9.15381 10.5334 9.15381 10.0585 9.4467 9.76561L12.9393 6.27297L0.750001 6.27297C0.335788 6.27297 1.31415e-06 5.93718 1.35554e-06 5.52297C1.39692e-06 5.10876 0.335788 4.77297 0.750001 4.77297L12.9393 4.77297L9.4467 1.28033C9.15381 0.987438 9.15381 0.512564 9.4467 0.219671C9.73959 -0.0732224 10.2145 -0.0732223 10.5074 0.219671Z" fill="#438CD1"/>
</svg>
