<svg width="42" height="42" viewBox="0 0 42 42" fill="none" xmlns="http://www.w3.org/2000/svg">
<path d="M31.25 14C31.25 11.2152 30.1438 8.54451 28.1746 6.57538C26.2055 4.60625 23.5348 3.5 20.75 3.5C17.9652 3.5 15.2945 4.60625 13.3254 6.57538C11.3562 8.54451 10.25 11.2152 10.25 14C10.25 26.25 5 29.75 5 29.75H36.5C36.5 29.75 31.25 26.25 31.25 14Z" stroke="#438CD1" stroke-width="2" stroke-linecap="round" stroke-linejoin="round"/>
<path d="M25 34.75C24.5935 35.6625 24.01 36.4199 23.308 36.9464C22.606 37.4729 21.8101 37.75 21 37.75C20.1899 37.75 19.394 37.4729 18.692 36.9464C17.99 36.4199 17.4065 35.6625 17 34.75" stroke="#438CD1" stroke-width="2" stroke-linecap="round" stroke-linejoin="round"/>
</svg>
