<svg width="81" height="81" viewBox="0 0 81 81" fill="none" xmlns="http://www.w3.org/2000/svg">
<path d="M6.75 10.5062H27C30.5804 10.5062 34.0142 11.9027 36.5459 14.3886C39.0777 16.8744 40.5 20.2459 40.5 23.7614V70.1546C40.5 67.5179 39.4333 64.9893 37.5345 63.1249C35.6357 61.2606 33.0603 60.2132 30.375 60.2132H6.75V10.5062Z" stroke="black" stroke-width="2" stroke-linecap="round" stroke-linejoin="round"/>
<path d="M74.25 10.5062H54C50.4196 10.5062 46.9858 11.9027 44.4541 14.3886C41.9223 16.8744 40.5 20.2459 40.5 23.7614V70.1546C40.5 67.5179 41.5667 64.9893 43.4655 63.1249C45.3643 61.2606 47.9397 60.2132 50.625 60.2132H74.25V10.5062Z" stroke="black" stroke-width="2" stroke-linecap="round" stroke-linejoin="round"/>
<line x1="50" y1="22.1477" x2="68" y2="22.1477" stroke="black" stroke-width="2"/>
<line x1="50" y1="30.0027" x2="68" y2="30.0027" stroke="black" stroke-width="2"/>
<line x1="50" y1="37.8575" x2="68" y2="37.8575" stroke="black" stroke-width="2"/>
<line x1="50" y1="46.6943" x2="68" y2="46.6943" stroke="black" stroke-width="2"/>
<line x1="13" y1="22.1477" x2="31" y2="22.1477" stroke="black" stroke-width="2"/>
<line x1="13" y1="30.0027" x2="31" y2="30.0027" stroke="black" stroke-width="2"/>
<line x1="13" y1="37.8575" x2="31" y2="37.8575" stroke="black" stroke-width="2"/>
<line x1="13" y1="46.6943" x2="31" y2="46.6943" stroke="black" stroke-width="2"/>
</svg>
