<svg width="75" height="82" fill="none" xmlns="http://www.w3.org/2000/svg"><path d="M32.158 23.28a1.21 1.21 0 00-1.21 1.21v1.352a1.21 1.21 0 102.42 0V24.49a1.21 1.21 0 00-1.21-1.21zM43.396 27.053a1.21 1.21 0 001.21-1.211V24.49a1.21 1.21 0 10-2.42 0v1.352c0 .668.541 1.21 1.21 1.21zM17.09 56.564l12.722 2.36a1.21 1.21 0 00.442-2.38l-12.723-2.36a1.21 1.21 0 00-.442 2.38zM17.09 62.944l12.722 2.36a1.21 1.21 0 10.442-2.38l-12.723-2.36a1.212 1.212 0 00-.442 2.38zM30.254 69.303L13.999 66.29a1.211 1.211 0 00-.441 2.38l16.255 3.013a1.211 1.211 0 00.441-2.38zM64.396 41.64a1.21 1.21 0 00-1.41-.97L46.03 43.82a1.21 1.21 0 00.442 2.38l16.954-3.15a1.21 1.21 0 00.969-1.41zM60.16 48.809a1.21 1.21 0 00-1.411-.97L46.03 50.2a1.21 1.21 0 00.441 2.38L59.19 50.22a1.21 1.21 0 00.97-1.411zM58.05 54.347L46.03 56.58a1.211 1.211 0 00.443 2.38l12.019-2.233a1.211 1.211 0 00-.443-2.38zM45.671 71.272c.33.281.75.432 1.189.432.1 0 .202-.008.304-.024h.006l11.288-1.85a2.089 2.089 0 001.723-2.032V62.47c0-.54-.23-1.047-.632-1.389a1.843 1.843 0 00-1.492-.405l-11.273 1.85a2.077 2.077 0 00-1.742 2.031v5.328c0 .539.229 1.045.63 1.386zm1.791-6.403l10.298-1.69v4.313l-10.297 1.686V64.87zM29.913 43.575l-5.417-.916a1.21 1.21 0 10-.404 2.387l5.154.872v4.75L14.62 48.19v-4.75l3.995.675a1.21 1.21 0 00.405-2.386l-4.667-.79a1.846 1.846 0 00-1.503.405c-.414.35-.65.87-.65 1.428v5.677c0 1.021.754 1.916 1.752 2.083l15.56 2.637a1.831 1.831 0 001.503-.405c.413-.35.65-.872.65-1.43v-5.676c0-1.02-.755-1.916-1.753-2.083z" fill="#438CD1"/><path d="M70.065 48.512V36.905c0-1.287-.528-2.47-1.448-3.245-.921-.777-2.12-1.086-3.378-.87L51.73 35.118c2.477-3.231 3.937-6.9 3.937-10.111V15.94c0-5.452-2.41-10.03-6.785-12.887-5.402-3.527-13.24-4.05-19.504-1.298-6.046 2.654-9.514 7.825-9.514 14.186v9.066c0 3.21 1.458 6.878 3.933 10.107L10.314 32.79c-1.257-.215-2.456.094-3.377.87-.92.776-1.448 1.959-1.448 3.246v12.742C2.823 50.317.844 52.731.844 55.6v4.607c0 2.868 1.98 5.283 4.645 5.952v5.764c0 2.538 1.94 4.86 4.414 5.286l27.666 4.773h.005a1.203 1.203 0 00.4 0h.007l12.958-2.237a1.21 1.21 0 00-.411-2.385l-11.543 1.992v-39.58l9.752-1.681.008-.002 16.904-2.913c.542-.094 1.041.026 1.408.334.378.32.587.815.587 1.395v11.486h-.946a3.988 3.988 0 00-3.985 3.983v8.912a3.988 3.988 0 003.985 3.983h.946v6.653c0 1.349-1.1 2.677-2.405 2.9l-8.423 1.453a1.21 1.21 0 00.412 2.385l8.422-1.451c2.476-.426 4.415-2.748 4.415-5.287V65.15c2.809-.563 4.932-3.046 4.932-6.014v-4.606c-.001-2.97-2.123-5.454-4.932-6.017zM30.352 3.972c5.546-2.437 12.461-1.991 17.206 1.107 2.47 1.614 5.392 4.645 5.667 10.029-10.16 3.7-14.38 2.102-18.463.555-2.316-.877-4.683-1.774-7.952-1.774-1.317 0-2.781.145-4.446.496.654-6.255 5.197-9.189 7.988-10.414zm-8.067 21.035v-8.123c5.473-1.284 8.464-.153 11.62 1.042 2.377.901 4.926 1.867 8.6 1.867 2.791 0 6.234-.56 10.741-2.126v7.34c0 3.407-2.026 7.503-5.306 10.765l-10.165 1.752-10.188-1.757c-3.278-3.258-5.302-7.353-5.302-10.76zm-19.02 35.2V55.6c0-2.05 1.668-3.718 3.72-3.718h2.152a1.57 1.57 0 011.569 1.568v8.907a1.57 1.57 0 01-1.569 1.567H6.985a3.724 3.724 0 01-3.72-3.718zm4.644 11.716v-5.579h1.228c2.2 0 3.99-1.788 3.99-3.987V53.45a3.992 3.992 0 00-3.99-3.988H7.91V36.905c0-.58.209-1.075.588-1.395.366-.308.866-.427 1.407-.334l26.66 4.596v39.58l-26.25-4.53C9.01 74.6 7.91 73.272 7.91 71.924zm64.667-12.787a3.721 3.721 0 01-3.721 3.713h-2.157c-.862 0-1.564-.701-1.564-1.563v-8.912c0-.861.702-1.562 1.564-1.562h2.157a3.723 3.723 0 013.72 3.717v4.607z" fill="#438CD1"/></svg>