<svg width="26" height="26" viewBox="0 0 26 26" fill="none" xmlns="http://www.w3.org/2000/svg">
<g clip-path="url(#clip0)">
<path d="M23.8672 2.64062H23.2578V1.62242C23.2578 0.727798 22.53 0 21.6354 0C20.741 0 20.0132 0.727798 20.0132 1.62242V2.64062H14.6288V1.62242C14.6288 0.727798 13.901 0 13.0065 0C12.1119 0 11.3841 0.727798 11.3841 1.62242V2.64062H5.98683V1.62242C5.98683 0.727798 5.25903 0 4.36461 0C3.46999 0 2.74219 0.727798 2.74219 1.62242V2.64062H2.13281C0.956711 2.64062 0 3.59734 0 4.77344V23.8672C0 25.0433 0.956711 26 2.13281 26H23.8672C25.0433 26 26 25.0433 26 23.8672V4.77344C26 3.59734 25.0433 2.64062 23.8672 2.64062ZM21.0288 1.62242C21.0288 1.28778 21.3009 1.01562 21.6354 1.01562C21.97 1.01562 22.2422 1.28778 22.2422 1.62242V4.47133C22.2422 4.80597 21.97 5.07812 21.6354 5.07812C21.3009 5.07812 21.0288 4.80597 21.0288 4.47133V1.62242ZM12.3997 1.62242C12.3997 1.28778 12.6719 1.01562 13.0065 1.01562C13.341 1.01562 13.6131 1.28778 13.6131 1.62242V4.47133C13.6131 4.80597 13.341 5.07812 13.0065 5.07812C12.6719 5.07812 12.3997 4.80597 12.3997 4.47133V1.62242ZM3.75781 1.62242C3.75781 1.28778 4.02997 1.01562 4.36461 1.01562C4.69905 1.01562 4.97121 1.28778 4.97121 1.62242V4.47133C4.97121 4.80597 4.69905 5.07812 4.36461 5.07812C4.02997 5.07812 3.75781 4.80597 3.75781 4.47133V1.62242ZM2.13281 3.65625H2.74219V4.47133C2.74219 5.36595 3.46999 6.09375 4.36461 6.09375C5.25903 6.09375 5.98683 5.36595 5.98683 4.47133V3.65625H11.3841V4.47133C11.3841 5.36595 12.1119 6.09375 13.0065 6.09375C13.901 6.09375 14.6288 5.36595 14.6288 4.47133V3.65625H20.0132V4.47133C20.0132 5.36595 20.741 6.09375 21.6354 6.09375C22.53 6.09375 23.2578 5.36595 23.2578 4.47133V3.65625H23.8672C24.4833 3.65625 24.9844 4.15732 24.9844 4.77344V8.73438H15.2852C15.0047 8.73438 14.7773 8.9617 14.7773 9.24219C14.7773 9.52267 15.0047 9.75 15.2852 9.75H24.9844V21.8359C24.9844 22.4521 24.4833 22.9531 23.8672 22.9531H2.13281C1.51669 22.9531 1.01562 22.4521 1.01562 21.8359V9.75H10.7148C10.9953 9.75 11.2227 9.52267 11.2227 9.24219C11.2227 8.9617 10.9953 8.73438 10.7148 8.73438H1.01562V4.77344C1.01562 4.15732 1.51669 3.65625 2.13281 3.65625ZM23.8672 24.9844H2.13281C1.51669 24.9844 1.01562 24.4833 1.01562 23.8672V23.6518C1.34074 23.8525 1.72339 23.9688 2.13281 23.9688H23.8672C24.2766 23.9688 24.6593 23.8525 24.9844 23.6518V23.8672C24.9844 24.4833 24.4833 24.9844 23.8672 24.9844Z" fill="#004A90"/>
<path d="M13 9.75C13.1335 9.75 13.2646 9.69565 13.359 9.60123C13.4535 9.50681 13.5078 9.37569 13.5078 9.24219C13.5078 9.10869 13.4535 8.97757 13.359 8.88315C13.2646 8.78873 13.1335 8.73438 13 8.73438C12.8665 8.73438 12.7354 8.78873 12.641 8.88315C12.5465 8.97757 12.4922 9.10869 12.4922 9.24219C12.4922 9.37569 12.5465 9.50681 12.641 9.60123C12.7354 9.69565 12.8665 9.75 13 9.75Z" fill="#004A90"/>
<path d="M9.13885 14.1723C8.69649 14.2365 8.33587 14.5406 8.19781 14.9657C8.05974 15.3908 8.17261 15.8486 8.49277 16.1607L9.90196 17.5341L9.5693 19.4735C9.49372 19.9141 9.67126 20.3509 10.0329 20.6137C10.3945 20.8764 10.865 20.9105 11.2606 20.7024L13.0024 19.7868L14.744 20.7024C14.9162 20.7929 15.1023 20.8377 15.2876 20.8377C15.5284 20.8377 15.7674 20.7621 15.9717 20.6137C16.3333 20.3509 16.5111 19.9141 16.4355 19.4735L16.1028 17.5341L17.512 16.1607C17.832 15.8486 17.945 15.3908 17.807 14.9657C17.6687 14.5406 17.3083 14.2365 16.8659 14.1723L14.9186 13.8894L14.0478 12.1247C13.8498 11.724 13.4493 11.4751 13.0024 11.4751C12.5555 11.4751 12.155 11.724 11.9572 12.1247L11.0862 13.8894L9.13885 14.1723ZM11.8787 14.5783L12.8677 12.5742C12.9018 12.5052 12.9597 12.4907 13.0022 12.4907C13.0448 12.4907 13.1028 12.5052 13.1369 12.5742L14.1259 14.5783C14.1999 14.7281 14.3427 14.832 14.5082 14.856L16.7197 15.1774C16.7959 15.1885 16.8277 15.2391 16.8409 15.2795C16.854 15.32 16.858 15.3795 16.8029 15.4333L15.2027 16.9932C15.0828 17.11 15.0283 17.278 15.0565 17.4427L15.4343 19.6453C15.4472 19.7213 15.4089 19.7671 15.3746 19.7921C15.3401 19.8171 15.2848 19.8395 15.2165 19.8036L13.2384 18.7636C13.1645 18.7247 13.0833 18.7053 13.0022 18.7053C12.9211 18.7053 12.8399 18.7247 12.7659 18.7636L10.7879 19.8036C10.7196 19.8395 10.6643 19.8171 10.6298 19.7921C10.5954 19.7671 10.5572 19.7213 10.57 19.6453L10.9479 17.4427C10.9761 17.278 10.9215 17.11 10.8019 16.9932L9.20153 15.4333C9.14639 15.3795 9.15035 15.32 9.16364 15.2795C9.17673 15.2391 9.20847 15.1885 9.28465 15.1774L11.4962 14.856C11.6616 14.832 11.8047 14.7281 11.8787 14.5783Z" fill="#004A90"/>
</g>
<defs>
<clipPath id="clip0">
<rect width="26" height="26" fill="white"/>
</clipPath>
</defs>
</svg>
