<svg width="10" height="7" viewBox="0 0 10 7" fill="none" xmlns="http://www.w3.org/2000/svg">
<path d="M1.53033 0.46967C1.23744 0.176777 0.762563 0.176777 0.46967 0.46967C0.176777 0.762563 0.176777 1.23744 0.46967 1.53033L1.53033 0.46967ZM5 5L4.46967 5.53033L5 6.06066L5.53033 5.53033L5 5ZM9.53033 1.53033C9.82322 1.23744 9.82322 0.762563 9.53033 0.46967C9.23744 0.176777 8.76256 0.176777 8.46967 0.46967L9.53033 1.53033ZM0.46967 1.53033L4.46967 5.53033L5.53033 4.46967L1.53033 0.46967L0.46967 1.53033ZM5.53033 5.53033L9.53033 1.53033L8.46967 0.46967L4.46967 4.46967L5.53033 5.53033Z" fill="#438CD1"/>
</svg>
