<svg width="24" height="24" viewBox="0 0 24 24" fill="none" xmlns="http://www.w3.org/2000/svg">
<path d="M2.56074 4.59078H1.8192C1.56052 4.59078 1.35075 4.38102 1.35075 4.12234C1.35075 3.86367 1.56052 3.6539 1.8192 3.6539H3.59928C3.85795 3.6539 4.06772 3.86367 4.06772 4.12234V5.90242C4.06772 6.1611 3.85795 6.37087 3.59928 6.37087C3.3406 6.37087 3.13083 6.1611 3.13083 5.90242V5.387C1.70949 7.28986 0.936886 9.59867 0.936886 12C0.936886 18.1002 5.89975 23.0631 12 23.0631C18.1002 23.0631 23.0631 18.1002 23.0631 12C23.0631 5.89975 18.1002 0.936885 12 0.936885C11.5488 0.936885 11.0948 0.964289 10.6503 1.0183C10.3939 1.04931 10.16 0.866666 10.1288 0.609819C10.0975 0.353018 10.2804 0.119453 10.5372 0.0882546C11.0191 0.0296993 11.5112 0 12 0C15.2053 0 18.2188 1.24821 20.4853 3.51472C22.7518 5.78119 24 8.79468 24 12C24 15.2053 22.7518 18.2188 20.4853 20.4853C18.2188 22.7518 15.2053 24 12 24C8.79468 24 5.78119 22.7518 3.51472 20.4853C1.24821 18.2188 0 15.2053 0 12C0 9.29517 0.903625 6.69849 2.56074 4.59078Z" fill="#666666"/>
<path d="M18.9187 7.07402C19.1373 6.93565 19.4267 7.00076 19.5651 7.21924C20.6345 8.90826 21.1079 10.9395 20.8981 12.9389C20.6852 14.9679 19.772 16.8813 18.3266 18.3267C16.5824 20.0709 14.2912 20.9431 11.9999 20.9431C9.7087 20.9431 7.41755 20.071 5.67325 18.3267C2.18472 14.8381 2.18472 9.16183 5.67325 5.67333C7.11638 4.23025 9.02665 3.31735 11.0523 3.1028C13.0479 2.8913 15.077 3.36101 16.7653 4.42517C16.9842 4.56313 17.0498 4.85239 16.9118 5.07124C16.7739 5.29015 16.4846 5.35568 16.2658 5.21777C13.0833 3.2119 8.99999 3.67159 6.33577 6.33581C3.21252 9.45905 3.21252 14.5409 6.33577 17.6642C9.45897 20.7874 14.5409 20.7874 17.6641 17.6642C20.2915 15.0368 20.7581 10.8548 18.7735 7.72048C18.6352 7.50185 18.7001 7.21245 18.9187 7.07402Z" fill="#666666"/>
<path d="M5.9102 12.4759H5.33251C5.07384 12.4759 4.86407 12.2662 4.86407 12.0075C4.86407 11.7488 5.07384 11.5391 5.33251 11.5391H5.9102C6.16887 11.5391 6.37864 11.7488 6.37864 12.0075C6.37864 12.2662 6.16892 12.4759 5.9102 12.4759Z" fill="#666666"/>
<path d="M19.1359 11.9924C19.1359 12.251 18.9262 12.4608 18.6675 12.4608H18.0898C17.8311 12.4608 17.6214 12.251 17.6214 11.9924C17.6214 11.7337 17.8311 11.5239 18.0898 11.5239H18.6675C18.9262 11.5239 19.1359 11.7336 19.1359 11.9924Z" fill="#666666"/>
<path d="M11.524 5.91038V5.3327C11.524 5.07403 11.7337 4.86426 11.9924 4.86426C12.2511 4.86426 12.4609 5.07403 12.4609 5.3327V5.91038C12.4609 6.16905 12.2511 6.37882 11.9924 6.37882C11.7337 6.37882 11.524 6.16905 11.524 5.91038Z" fill="#666666"/>
<path d="M12.476 18.0898V18.6675C12.476 18.9261 12.2663 19.1359 12.0076 19.1359C11.7489 19.1359 11.5392 18.9261 11.5392 18.6675V18.0898C11.5392 17.8311 11.7489 17.6213 12.0076 17.6213C12.2663 17.6213 12.476 17.8311 12.476 18.0898Z" fill="#666666"/>
<path d="M15.3375 8.03627C15.5204 7.85339 15.817 7.85339 16 8.03627C16.1829 8.21919 16.1829 8.51581 16 8.69878L13.4229 11.2396C13.5446 11.4663 13.6138 11.7253 13.6138 12C13.6138 12.8899 12.8898 13.6138 12 13.6138C11.1101 13.6138 10.3862 12.8899 10.3862 12C10.3862 11.7253 10.4554 11.4663 10.577 11.2396L6.83748 7.16252C6.65455 6.97959 6.65455 6.68297 6.83748 6.5C7.02045 6.31712 7.31698 6.31712 7.5 6.5L11.2396 10.5771C11.4663 10.4554 11.7252 10.3863 12 10.3863C12.2748 10.3863 12.5337 10.4555 12.7604 10.5771L15.3375 8.03627ZM11.3231 12C11.3231 12.3733 11.6267 12.6769 12 12.6769C12.3732 12.6769 12.6769 12.3733 12.6769 12C12.6769 11.6268 12.3732 11.3231 12 11.3231C11.6267 11.3231 11.3231 11.6268 11.3231 12Z" fill="#666666"/>
<path d="M17.6644 6.33552C17.5768 6.24839 17.5267 6.12753 17.5267 6.00433C17.5267 5.88113 17.5768 5.76074 17.6644 5.67314C17.7515 5.58606 17.872 5.53589 17.9956 5.53589C18.1188 5.53589 18.2396 5.58601 18.3268 5.67314C18.4139 5.76027 18.464 5.88113 18.464 6.00433C18.464 6.128 18.4139 6.24839 18.3268 6.33552C18.2396 6.4226 18.1188 6.47277 17.9956 6.47277C17.872 6.47277 17.7515 6.4226 17.6644 6.33552Z" fill="#666666"/>
<path d="M8.7551 1.39953C8.63138 1.39953 8.51053 1.34983 8.42344 1.26228C8.33631 1.17515 8.28614 1.05471 8.28614 0.931089C8.28614 0.807889 8.33627 0.68703 8.42344 0.5999C8.51053 0.512817 8.63138 0.462646 8.7551 0.462646C8.8783 0.462646 8.99916 0.51277 9.08624 0.5999C9.17337 0.68703 9.22354 0.807889 9.22354 0.931089C9.22354 1.05476 9.17342 1.17515 9.08624 1.26228C8.99916 1.34983 8.8783 1.39953 8.7551 1.39953Z" fill="#666666"/>
</svg>
