<svg width="60" height="60" viewBox="0 0 60 60" fill="none" xmlns="http://www.w3.org/2000/svg">
<path d="M50.6244 23.4386C55.7936 23.4386 59.9991 18.8132 59.9991 13.1264V9.38666C60.0049 8.94592 59.6986 8.54878 59.2501 8.45773L18.0014 0.0206073C17.923 0.00384975 17.8452 -0.00130641 17.7688 0.0018576H12.1882C12.1814 0.0018576 12.1748 0.0026779 12.168 0.00291227C12.1498 0.00326382 12.1317 0.00420131 12.1134 0.00572472C12.1004 0.00677939 12.0874 0.00795124 12.0745 0.00947466C12.0571 0.011584 12.0398 0.0142793 12.0225 0.0174433C12.009 0.0199042 11.9956 0.0223651 11.9824 0.0252947C11.9662 0.0289274 11.9501 0.0331461 11.9341 0.0377164C11.9203 0.0415835 11.9066 0.0455678 11.893 0.050138C11.878 0.055177 11.8631 0.0606847 11.8483 0.066544C11.8343 0.0720517 11.8202 0.0776766 11.8065 0.0837703C11.7927 0.0899811 11.7791 0.0966607 11.7655 0.103575C11.7513 0.110723 11.7372 0.118223 11.7235 0.126074C11.7107 0.13334 11.6982 0.141074 11.6858 0.149043C11.6719 0.157832 11.6584 0.166972 11.645 0.176464C11.6387 0.181034 11.632 0.184784 11.6257 0.189472L0.37597 8.62659C0.369877 8.63116 0.364603 8.63632 0.358627 8.64101C0.347143 8.65003 0.33601 8.6594 0.324877 8.66901C0.311518 8.68062 0.298511 8.69222 0.285855 8.7044C0.277652 8.71237 0.2698 8.72046 0.261949 8.72866C0.248121 8.74319 0.234527 8.75796 0.221637 8.77319C0.215895 8.78011 0.210387 8.78714 0.204762 8.79417C0.191286 8.81116 0.178161 8.82827 0.165974 8.84596C0.161169 8.85288 0.156833 8.86003 0.152263 8.86706C0.140545 8.88522 0.12906 8.9035 0.118631 8.92225C0.114061 8.93046 0.109959 8.93901 0.105623 8.94733C0.0963656 8.96538 0.0872251 8.98354 0.0791393 9.00217C0.0746862 9.01237 0.0708191 9.0228 0.0667176 9.03323C0.0598037 9.0508 0.0531241 9.06827 0.047382 9.08619C0.0436321 9.09768 0.0404681 9.1094 0.0371869 9.12112C0.0321479 9.13881 0.0274605 9.15639 0.0234762 9.17432C0.0208981 9.18592 0.0187888 9.19776 0.0166794 9.20959C0.013281 9.22869 0.0102342 9.24768 0.00789051 9.2669C0.00660147 9.27744 0.00578117 9.28811 0.00484368 9.29889C0.0030859 9.3201 0.00191405 9.34131 0.00167968 9.36264C0.00156249 9.36732 0.000976562 9.37189 0.000976562 9.37658V13.1264C0.000976562 13.6439 0.420969 14.0639 0.938461 14.0639H3.75091V16.8763C3.75091 17.3938 4.17091 17.8138 4.6884 17.8138H8.43833C8.95582 17.8138 9.37582 17.3948 9.37582 16.8763V14.0639H11.2508V46.8752H9.37582C8.85833 46.8752 8.43833 47.2952 8.43833 47.8127V54.375H6.56336C5.52932 54.375 4.6884 55.2159 4.6884 56.25V59.0624C4.6884 59.5799 5.10839 59.9999 5.62588 59.9999H24.3752C24.8927 59.9999 25.3127 59.5808 25.3127 59.0624V56.25C25.3127 55.2159 24.4718 54.375 23.4377 54.375H21.5628V47.8127C21.5628 47.2952 21.1428 46.8752 20.6253 46.8752H18.7503V14.0639H42.1871V30.9384H40.3121C40.0233 30.9384 39.7505 31.0715 39.5733 31.2993C39.3962 31.5271 39.3324 31.8233 39.4027 32.1037L40.3402 35.8536C40.4443 36.2698 40.8193 36.5633 41.2496 36.5633H42.1871V37.5007C42.1871 38.5348 43.028 39.3757 44.062 39.3757H44.6292C44.8336 39.3757 44.9995 39.5417 44.9995 39.746C44.9995 39.9391 44.8776 40.0329 44.8045 40.0723C44.7314 40.1107 44.5861 40.1604 44.4248 40.0535L43.6448 39.5332C43.2127 39.2445 42.6314 39.3617 42.3446 39.7929C42.2379 39.9531 42.1873 40.1341 42.1874 40.3132H30C28.966 40.3132 28.125 41.1541 28.125 42.1882V55.3127C28.125 56.3468 28.966 57.1877 30 57.1877H56.2492C57.2832 57.1877 58.1242 56.3468 58.1242 55.3127V42.1879C58.1242 41.1539 57.2832 40.313 56.2492 40.313H46.8011C46.8487 40.1303 46.8745 39.9402 46.8745 39.7458C46.8745 38.5074 45.8667 37.5005 44.6292 37.5005H44.062V36.563H44.9995C45.4298 36.563 45.8048 36.2705 45.9089 35.8534L46.8464 32.1034C46.9167 31.8231 46.8529 31.5269 46.6757 31.2991C46.4985 31.0712 46.2257 30.9381 45.937 30.9381H44.062V19.9104C45.5588 22.1232 47.859 23.4386 50.6244 23.4386ZM56.2501 55.3125H30V42.1879H56.2492L56.2501 55.3125ZM44.2673 34.6882H41.9819L41.5131 32.8132H44.7362L44.2673 34.6882ZM50.6244 21.5636C47.0083 21.5636 44.4137 18.525 44.0954 14.0639H58.0767C57.6606 18.276 54.4777 21.5636 50.6244 21.5636ZM18.7504 2.08717L49.804 8.4391H18.7504V2.08717ZM16.8755 1.87671V8.43898H13.1255C13.1255 6.80412 13.1255 1.87671 13.1255 1.87671H16.8755ZM13.1256 29.8777L16.8756 32.3776V34.1863L13.1256 36.6862C13.1256 34.3011 13.1256 33.0784 13.1256 29.8777ZM16.8755 30.1239L13.1255 27.624C13.1255 26.7386 13.1255 26.7159 13.1255 25.8154L16.8755 23.3154V30.1239ZM13.1256 38.9399L16.8756 36.44V43.2485L13.1256 40.7485C13.1256 40.3232 13.1256 39.4654 13.1256 38.9399ZM16.8755 21.0617L13.1255 23.5617C13.1255 20.1619 13.1255 19.7666 13.1255 16.7532L16.8755 19.2531V21.0617ZM16.8755 10.3139V12.1889H13.1255C13.1255 11.5265 13.1255 10.8852 13.1255 10.3139H16.8755ZM8.43822 8.4391H4.68828H3.7508L11.2505 2.81431V8.4391H8.43822ZM1.87594 12.1889V10.3139H3.75091V12.1889H1.87594ZM7.50073 15.9387H5.62576V10.3139H7.50073V15.9387ZM9.3757 12.1889V10.3139H11.2507V12.1889H9.3757ZM23.4377 58.1249H6.56325V56.25H9.3757H20.6253H23.4377V58.1249ZM19.6879 54.375H10.3132V48.7502H12.1882H17.8129H19.6879V54.375ZM13.1256 46.8752C13.1256 46.8752 13.1256 43.6115 13.1256 43.0023L16.8756 45.5022V46.8752H13.1256ZM16.8755 16.9994L13.1255 14.4995C13.1255 14.3237 13.1255 14.2359 13.1255 14.0639H16.8755V16.9994ZM18.7504 10.3139H58.1242V12.1889H43.1248H43.1247H43.1245H18.7504V10.3139Z" fill="white"/>
<path d="M52.499 53.4375C53.0165 53.4375 53.4365 53.0184 53.4365 52.5V45.0002C53.4365 44.4827 53.0165 44.0627 52.499 44.0627C51.9815 44.0627 51.5615 44.4827 51.5615 45.0002V52.5C51.5615 53.0176 51.9815 53.4375 52.499 53.4375Z" fill="white"/>
<path d="M47.8115 53.4375C48.329 53.4375 48.749 53.0184 48.749 52.5V45.0002C48.749 44.4827 48.329 44.0627 47.8115 44.0627C47.294 44.0627 46.874 44.4827 46.874 45.0002V52.5C46.874 53.0176 47.294 53.4375 47.8115 53.4375Z" fill="white"/>
<path d="M43.125 53.4375C43.6425 53.4375 44.0625 53.0184 44.0625 52.5V45.0002C44.0625 44.4827 43.6425 44.0627 43.125 44.0627C42.6075 44.0627 42.1875 44.4827 42.1875 45.0002V52.5C42.1875 53.0176 42.6075 53.4375 43.125 53.4375Z" fill="white"/>
<path d="M38.4375 53.4375C38.955 53.4375 39.375 53.0184 39.375 52.5V45.0002C39.375 44.4827 38.955 44.0627 38.4375 44.0627C37.92 44.0627 37.5 44.4827 37.5 45.0002V52.5C37.5 53.0176 37.92 53.4375 38.4375 53.4375Z" fill="white"/>
<path d="M33.75 53.4375C34.2675 53.4375 34.6875 53.0184 34.6875 52.5V45.0002C34.6875 44.4827 34.2675 44.0627 33.75 44.0627C33.2325 44.0627 32.8125 44.4827 32.8125 45.0002V52.5C32.8125 53.0176 33.2325 53.4375 33.75 53.4375Z" fill="white"/>
</svg>
