<svg width="20" height="20" viewBox="0 0 20 20" fill="none" xmlns="http://www.w3.org/2000/svg">
<path d="M19.9996 8.77321C19.9996 8.69345 19.9758 8.61294 19.9252 8.54349C19.9077 8.51946 19.8879 8.49825 19.8664 8.47946C19.8665 8.47942 19.8665 8.47938 19.8666 8.47931L18.5185 7.2995C18.809 7.0656 18.9953 6.70739 18.9953 6.3063V5.66528C18.9953 3.94216 17.5934 2.54028 15.8703 2.54028C14.1472 2.54028 12.7453 3.94216 12.7453 5.66528C12.7453 7.38841 14.1472 8.79028 15.8703 8.79028C16.0861 8.79028 16.2609 8.6154 16.2609 8.39966C16.2609 8.18392 16.0861 8.00903 15.8703 8.00903C14.578 8.00903 13.5266 6.95763 13.5266 5.66528C13.5266 4.37294 14.578 3.32153 15.8703 3.32153C17.1627 3.32153 18.2141 4.37294 18.2141 5.66528V6.3063C18.2141 6.57856 17.9926 6.80005 17.7203 6.80005C17.448 6.80005 17.2265 6.57856 17.2265 6.3063V5.76653V4.64349C17.2265 4.53606 17.1823 4.43341 17.1043 4.35962C16.7692 4.04286 16.331 3.86841 15.8703 3.86841C14.8795 3.86841 14.0734 4.6745 14.0734 5.66528C14.0734 6.65606 14.8795 7.46216 15.8703 7.46216C16.2055 7.46216 16.5287 7.36935 16.8091 7.19692C17.0333 7.42622 17.3429 7.5713 17.686 7.58044C17.707 7.61708 17.7339 7.65106 17.7675 7.68044L18.9841 8.74513L15.8594 11.0184V10C15.8594 9.78427 15.6845 9.60938 15.4688 9.60938C15.253 9.60938 15.0781 9.78427 15.0781 10V11.5867L12.162 13.7083L10.2298 12.3026C10.0928 12.2029 9.90719 12.2029 9.7702 12.3026L7.83805 13.7083L1.03289 8.75743L3.25566 6.81216C3.41801 6.67009 3.43441 6.42329 3.29234 6.26095C3.15023 6.0986 2.90348 6.0822 2.74113 6.22427L0.144063 8.47032C0.143906 8.47048 0.14375 8.4706 0.143594 8.47075C0.0559766 8.54239 0 8.65126 0 8.77325V19.6093C0 19.8251 0.174883 20 0.390625 20H19.6094C19.8251 20 20 19.8251 20 19.6093V8.77325C19.9999 8.77325 19.9997 8.77321 19.9996 8.77321ZM16.4453 5.76657V6.30634V6.50224C16.277 6.61829 16.0777 6.68091 15.8704 6.68091C15.3104 6.68091 14.8547 6.22528 14.8547 5.66528C14.8547 5.10528 15.3104 4.64966 15.8704 4.64966C16.0777 4.64966 16.277 4.71228 16.4453 4.82833V5.76657ZM0.78125 9.54048L7.17406 14.1913L0.78125 18.8421V9.54048ZM1.59156 19.2187L10 13.1015L18.4084 19.2187H1.59156ZM19.2188 18.8421L12.8259 14.1913L19.2188 9.54048V18.8421Z" fill="#004A90"/>
<path d="M13.1776 2.62644L10.2558 0.0951891C10.1073 -0.0334437 9.88984 -0.0298499 9.74542 0.0947204C9.7453 0.0946032 9.74523 0.0945251 9.74511 0.0944079L8.33886 1.30535C8.17538 1.44613 8.15699 1.69277 8.29777 1.85624C8.37503 1.94597 8.48413 1.99199 8.59394 1.99199C8.68421 1.99199 8.77492 1.96089 8.84867 1.89738L9.99929 0.906556L11.8849 2.54007H4.53125C4.31551 2.54007 4.14062 2.71495 4.14062 2.9307V8.55449C4.14062 8.77023 4.31551 8.94511 4.53125 8.94511C4.74699 8.94511 4.92187 8.77023 4.92187 8.55449V3.32136H12.9218C12.9205 3.31812 12.9196 3.31531 12.9183 3.31214C12.9194 3.31214 12.9205 3.3123 12.9216 3.3123C13.031 3.3123 13.1398 3.2666 13.2171 3.17745C13.3583 3.01441 13.3407 2.76769 13.1776 2.62644Z" fill="#004A90"/>
<path d="M10.0547 6.48413H6.14941C5.93367 6.48413 5.75879 6.65901 5.75879 6.87476C5.75879 7.0905 5.93367 7.26538 6.14941 7.26538H10.0547C10.2705 7.26538 10.4453 7.0905 10.4453 6.87476C10.4453 6.65901 10.2705 6.48413 10.0547 6.48413Z" fill="#004A90"/>
<path d="M10.0003 4.53101H6.14941C5.93367 4.53101 5.75879 4.70589 5.75879 4.92163C5.75879 5.13737 5.93367 5.31225 6.14941 5.31225H10.0003C10.216 5.31225 10.3909 5.13737 10.3909 4.92163C10.3909 4.70589 10.216 4.53101 10.0003 4.53101Z" fill="#004A90"/>
<path d="M4.80742 9.85396C4.73477 9.7813 4.63398 9.7395 4.53125 9.7395C4.42852 9.7395 4.32773 9.7813 4.25508 9.85396C4.18242 9.92661 4.14062 10.0274 4.14062 10.1301C4.14062 10.2333 4.18242 10.3336 4.25508 10.4063C4.32773 10.4794 4.42852 10.5208 4.53125 10.5208C4.63398 10.5208 4.73477 10.4793 4.80742 10.4063C4.88008 10.3336 4.92188 10.2333 4.92188 10.1301C4.92188 10.0274 4.88008 9.92661 4.80742 9.85396Z" fill="#004A90"/>
<path d="M12.6402 8.40967H11.875C11.6593 8.40967 11.4844 8.58455 11.4844 8.80029C11.4844 9.01604 11.6593 9.19092 11.875 9.19092H12.6402C12.8559 9.19092 13.0308 9.01604 13.0308 8.80029C13.0308 8.58455 12.8559 8.40967 12.6402 8.40967Z" fill="#004A90"/>
<path d="M10.1488 8.40967H10.1445C9.92879 8.40967 9.75391 8.58455 9.75391 8.80029C9.75391 9.01604 9.92879 9.19092 10.1445 9.19092H10.1488C10.3645 9.19092 10.5395 9.01604 10.5395 8.80029C10.5395 8.58455 10.3646 8.40967 10.1488 8.40967Z" fill="#004A90"/>
<path d="M8.28156 8.40967H6.14746C5.93172 8.40967 5.75684 8.58455 5.75684 8.80029C5.75684 9.01604 5.93172 9.19092 6.14746 9.19092H8.28156C8.4973 9.19092 8.67219 9.01604 8.67219 8.80029C8.67219 8.58455 8.4973 8.40967 8.28156 8.40967Z" fill="#004A90"/>
</svg>
