<svg width="20" height="20" viewBox="0 0 20 20" fill="none" xmlns="http://www.w3.org/2000/svg">
<path d="M19.9996 8.77309C19.9996 8.69332 19.9758 8.61282 19.9252 8.54336C19.9077 8.51934 19.8879 8.49813 19.8664 8.47934C19.8665 8.4793 19.8665 8.47926 19.8666 8.47918L18.5185 7.29938C18.809 7.06547 18.9953 6.70727 18.9953 6.30618V5.66516C18.9953 3.94204 17.5934 2.54016 15.8703 2.54016C14.1472 2.54016 12.7453 3.94204 12.7453 5.66516C12.7453 7.38829 14.1472 8.79016 15.8703 8.79016C16.0861 8.79016 16.2609 8.61528 16.2609 8.39954C16.2609 8.18379 16.0861 8.00891 15.8703 8.00891C14.578 8.00891 13.5266 6.95751 13.5266 5.66516C13.5266 4.37282 14.578 3.32141 15.8703 3.32141C17.1627 3.32141 18.2141 4.37282 18.2141 5.66516V6.30618C18.2141 6.57844 17.9926 6.79993 17.7203 6.79993C17.448 6.79993 17.2265 6.57844 17.2265 6.30618V5.76641V4.64336C17.2265 4.53594 17.1823 4.43329 17.1043 4.3595C16.7692 4.04274 16.331 3.86829 15.8703 3.86829C14.8795 3.86829 14.0734 4.67438 14.0734 5.66516C14.0734 6.65594 14.8795 7.46204 15.8703 7.46204C16.2055 7.46204 16.5287 7.36922 16.8091 7.1968C17.0333 7.4261 17.3429 7.57118 17.686 7.58032C17.707 7.61696 17.7339 7.65094 17.7675 7.68032L18.9841 8.745L15.8594 11.0182V9.99989C15.8594 9.78415 15.6845 9.60926 15.4688 9.60926C15.253 9.60926 15.0781 9.78415 15.0781 9.99989V11.5866L12.162 13.7081L10.2298 12.3025C10.0928 12.2028 9.90719 12.2028 9.7702 12.3025L7.83805 13.7081L1.03289 8.75731L3.25566 6.81204C3.41801 6.66997 3.43441 6.42317 3.29234 6.26083C3.15023 6.09848 2.90348 6.08208 2.74113 6.22415L0.144063 8.4702C0.143906 8.47036 0.14375 8.47047 0.143594 8.47063C0.0559766 8.54227 0 8.65114 0 8.77313V19.6092C0 19.825 0.174883 19.9998 0.390625 19.9998H19.6094C19.8251 19.9998 20 19.825 20 19.6092V8.77313C19.9999 8.77313 19.9997 8.77309 19.9996 8.77309ZM16.4453 5.76645V6.30622V6.50211C16.277 6.61817 16.0777 6.68079 15.8704 6.68079C15.3104 6.68079 14.8547 6.22516 14.8547 5.66516C14.8547 5.10516 15.3104 4.64954 15.8704 4.64954C16.0777 4.64954 16.277 4.71215 16.4453 4.82821V5.76645ZM0.78125 9.54036L7.17406 14.1912L0.78125 18.842V9.54036ZM1.59156 19.2186L10 13.1014L18.4084 19.2186H1.59156ZM19.2188 18.842L12.8259 14.1912L19.2188 9.54036V18.842Z" fill="#333333"/>
<path d="M13.1776 2.62656L10.2558 0.0953112C10.1073 -0.0333216 9.88984 -0.0297278 9.74542 0.0948425C9.7453 0.0947253 9.74523 0.0946472 9.74511 0.09453L8.33886 1.30547C8.17538 1.44625 8.15699 1.69289 8.29777 1.85637C8.37503 1.94609 8.48413 1.99211 8.59394 1.99211C8.68421 1.99211 8.77492 1.96101 8.84867 1.8975L9.99929 0.906678L11.8849 2.54019H4.53125C4.31551 2.54019 4.14062 2.71508 4.14062 2.93082V8.55461C4.14062 8.77035 4.31551 8.94523 4.53125 8.94523C4.74699 8.94523 4.92187 8.77035 4.92187 8.55461V3.32148H12.9218C12.9205 3.31824 12.9196 3.31543 12.9183 3.31226C12.9194 3.31226 12.9205 3.31242 12.9216 3.31242C13.031 3.31242 13.1398 3.26672 13.2171 3.17758C13.3583 3.01453 13.3407 2.76781 13.1776 2.62656Z" fill="#333333"/>
<path d="M10.0545 6.48425H6.14917C5.93343 6.48425 5.75854 6.65914 5.75854 6.87488C5.75854 7.09062 5.93343 7.2655 6.14917 7.2655H10.0545C10.2702 7.2655 10.4451 7.09062 10.4451 6.87488C10.4451 6.65914 10.2702 6.48425 10.0545 6.48425Z" fill="#333333"/>
<path d="M10.0001 4.53113H6.14917C5.93343 4.53113 5.75854 4.70601 5.75854 4.92175C5.75854 5.13749 5.93343 5.31237 6.14917 5.31237H10.0001C10.2158 5.31237 10.3907 5.13749 10.3907 4.92175C10.3907 4.70601 10.2158 4.53113 10.0001 4.53113Z" fill="#333333"/>
<path d="M4.80742 9.85383C4.73477 9.78118 4.63398 9.73938 4.53125 9.73938C4.42852 9.73938 4.32773 9.78118 4.25508 9.85383C4.18242 9.92649 4.14062 10.0273 4.14062 10.13C4.14062 10.2331 4.18242 10.3335 4.25508 10.4062C4.32773 10.4793 4.42852 10.5206 4.53125 10.5206C4.63398 10.5206 4.73477 10.4792 4.80742 10.4062C4.88008 10.3335 4.92188 10.2331 4.92188 10.13C4.92188 10.0273 4.88008 9.92649 4.80742 9.85383Z" fill="#333333"/>
<path d="M12.6402 8.40967H11.875C11.6593 8.40967 11.4844 8.58455 11.4844 8.80029C11.4844 9.01604 11.6593 9.19092 11.875 9.19092H12.6402C12.8559 9.19092 13.0308 9.01604 13.0308 8.80029C13.0308 8.58455 12.8559 8.40967 12.6402 8.40967Z" fill="#333333"/>
<path d="M10.1488 8.40967H10.1445C9.92879 8.40967 9.75391 8.58455 9.75391 8.80029C9.75391 9.01604 9.92879 9.19092 10.1445 9.19092H10.1488C10.3645 9.19092 10.5395 9.01604 10.5395 8.80029C10.5395 8.58455 10.3646 8.40967 10.1488 8.40967Z" fill="#333333"/>
<path d="M8.28132 8.40967H6.14722C5.93147 8.40967 5.75659 8.58455 5.75659 8.80029C5.75659 9.01604 5.93147 9.19092 6.14722 9.19092H8.28132C8.49706 9.19092 8.67194 9.01604 8.67194 8.80029C8.67194 8.58455 8.49706 8.40967 8.28132 8.40967Z" fill="#333333"/>
</svg>
