<svg xmlns="http://www.w3.org/2000/svg" width="20" height="20" viewBox="0 0 20 20">
  <g id="email-icon" transform="translate(0 0)">
    <path id="Path_1" data-name="Path 1" d="M20,8.773a.387.387,0,0,0-.133-.294h0L18.518,7.3A1.273,1.273,0,0,0,19,6.306V5.665A3.125,3.125,0,1,0,15.87,8.79a.391.391,0,0,0,0-.781,2.344,2.344,0,1,1,2.344-2.344v.641a.494.494,0,0,1-.988,0V4.643a.391.391,0,0,0-.122-.284,1.8,1.8,0,1,0-.3,2.837,1.271,1.271,0,0,0,.877.384.389.389,0,0,0,.081.1l1.217,1.065-3.125,2.273V10a.391.391,0,0,0-.781,0v1.587l-2.916,2.122L10.23,12.3a.391.391,0,0,0-.46,0L7.838,13.708,1.033,8.757,3.256,6.812a.391.391,0,1,0-.515-.588L.144,8.47h0a.39.39,0,0,0-.144.3V19.609A.391.391,0,0,0,.391,20H19.609A.391.391,0,0,0,20,19.609V8.773ZM16.445,5.766V6.5a1.016,1.016,0,1,1,0-1.674ZM.781,9.54l6.393,4.651L.781,18.842Zm.81,9.678L10,13.1l8.408,6.117Zm17.627-.377-6.393-4.651L19.219,9.54Z" fill="#fff"/>
    <path id="Path_2" data-name="Path 2" d="M13.178,2.627,10.256.1a.39.39,0,0,0-.51,0h0L8.339,1.305a.391.391,0,0,0,.51.592L10,.907,11.885,2.54H4.531a.391.391,0,0,0-.391.391V8.555a.391.391,0,0,0,.781,0V3.321h8l0-.009h0a.391.391,0,0,0,.256-.686Z" fill="#fff"/>
    <path id="Path_3" data-name="Path 3" d="M10.054,6.484H6.149a.391.391,0,1,0,0,.781h3.905a.391.391,0,0,0,0-.781Z" fill="#fff"/>
    <path id="Path_4" data-name="Path 4" d="M10,4.531H6.149a.391.391,0,1,0,0,.781H10a.391.391,0,0,0,0-.781Z" fill="#fff"/>
    <path id="Path_5" data-name="Path 5" d="M4.807,9.854a.39.39,0,1,0,.114.276A.394.394,0,0,0,4.807,9.854Z" fill="#fff"/>
    <path id="Path_6" data-name="Path 6" d="M12.64,8.41h-.765a.391.391,0,0,0,0,.781h.765a.391.391,0,0,0,0-.781Z" fill="#fff"/>
    <path id="Path_7" data-name="Path 7" d="M10.149,8.41h0a.391.391,0,0,0,0,.781h0a.391.391,0,1,0,0-.781Z" fill="#fff"/>
    <path id="Path_8" data-name="Path 8" d="M8.281,8.41H6.147a.391.391,0,1,0,0,.781H8.281a.391.391,0,0,0,0-.781Z" fill="#fff"/>
  </g>
</svg>
