<svg width="34" height="34" viewBox="0 0 34 34" fill="none" xmlns="http://www.w3.org/2000/svg">
<path d="M17 8.61803L18.6574 13.7188C18.7912 14.1309 19.1752 14.4098 19.6084 14.4098H24.9717L20.6327 17.5623C20.2822 17.8169 20.1356 18.2683 20.2694 18.6803L21.9268 23.7812L17.5878 20.6287C17.2373 20.374 16.7627 20.374 16.4122 20.6287L12.0732 23.7812L13.7306 18.6803C13.8644 18.2683 13.7178 17.8169 13.3673 17.5623L13.0734 17.9668L13.3673 17.5623L9.02828 14.4098H14.3916C14.8248 14.4098 15.2088 14.1309 15.3426 13.7188L17 8.61803Z" stroke="#004A90"/>
<path d="M15.6283 2.87864C16.2896 1.91638 17.7104 1.91638 18.3717 2.87864C19.1571 4.02141 20.6877 4.37076 21.8912 3.68193C22.9045 3.10191 24.1846 3.71835 24.3629 4.87226C24.5747 6.24263 25.8021 7.22149 27.1853 7.12303C28.3499 7.04012 29.2358 8.15091 28.8958 9.26793C28.492 10.5945 29.1732 12.009 30.4621 12.5204C31.5474 12.951 31.8635 14.3361 31.0725 15.195C30.1332 16.215 30.1332 17.785 31.0725 18.805C31.8635 19.6639 31.5474 21.049 30.4621 21.4796C29.1732 21.991 28.492 23.4055 28.8958 24.7321C29.2358 25.8491 28.3499 26.9599 27.1853 26.877C25.8021 26.7785 24.5747 27.7574 24.3629 29.1277C24.1846 30.2817 22.9045 30.8981 21.8912 30.3181C20.6877 29.6292 19.1571 29.9786 18.3717 31.1214C17.7104 32.0836 16.2896 32.0836 15.6283 31.1214C14.8429 29.9786 13.3123 29.6292 12.1088 30.3181C11.0955 30.8981 9.81544 30.2817 9.6371 29.1277C9.42531 27.7574 8.19787 26.7785 6.81473 26.877C5.65006 26.9599 4.76424 25.8491 5.10423 24.7321C5.508 23.4055 4.82682 21.991 3.53793 21.4796C2.45263 21.049 2.13648 19.6639 2.92746 18.805C3.86681 17.785 3.86681 16.215 2.92746 15.195C2.13648 14.3361 2.45263 12.951 3.53793 12.5204C4.82682 12.009 5.508 10.5945 5.10423 9.26793C4.76424 8.15091 5.65006 7.04012 6.81473 7.12303C8.19787 7.22149 9.42531 6.24263 9.6371 4.87226C9.81544 3.71835 11.0955 3.10191 12.1088 3.68193C13.3123 4.37076 14.8429 4.02141 15.6283 2.87864Z" stroke="#004A90"/>
<circle cx="17" cy="17" r="11.5" stroke="#004A90"/>
</svg>
