<svg width="60" height="60" viewBox="0 0 60 60" fill="none" xmlns="http://www.w3.org/2000/svg">
<path d="M47 32.051V15.83C46.9989 15.4168 46.9124 15.0082 46.746 14.63C46.736 14.606 46.721 14.586 46.71 14.564C46.5641 14.2446 46.3634 13.9532 46.117 13.703L39.3 6.883C39.0498 6.63664 38.7584 6.43595 38.439 6.29C38.417 6.279 38.397 6.264 38.373 6.254C37.9938 6.08719 37.5842 6.0007 37.17 6H24V3C24 1.34315 22.6569 0 21 0H3C1.34315 0 0 1.34315 0 3V29C0 30.6569 1.34315 32 3 32H11V51C11 52.6569 12.3431 54 14 54H34.527C38.2505 59.3492 45.1744 61.4189 51.2227 58.9906C57.2711 56.5623 60.8415 50.2793 59.8322 43.8403C58.8229 37.4014 53.5013 32.5122 47 32.051ZM43.586 14H40C39.4477 14 39 13.5523 39 13V9.414L43.586 14ZM2 29V3C2 2.44772 2.44772 2 3 2H21C21.5523 2 22 2.44772 22 3V29C22 29.5523 21.5523 30 21 30H3C2.44772 30 2 29.5523 2 29ZM14 52C13.4477 52 13 51.5523 13 51V32H21C22.6569 32 24 30.6569 24 29V8H37V13C37 14.6569 38.3432 16 40 16H45V32.051C40.3859 32.3665 36.2279 34.9481 33.8986 38.9436C31.5693 42.9391 31.3713 47.8293 33.37 52H14ZM46 58C39.3726 58 34 52.6274 34 46C34 39.3726 39.3726 34 46 34C52.6274 34 58 39.3726 58 46C57.9928 52.6244 52.6245 57.9928 46 58Z" fill="white"/>
<path d="M6 16H18C19.1046 16 20 15.1046 20 14V6C20 4.89543 19.1046 4 18 4H6C4.89543 4 4 4.89543 4 6V14C4 15.1046 4.89543 16 6 16ZM6 6H18V14H6V6Z" fill="white"/>
<path d="M49.0001 42C49.0001 42.5523 49.4478 43 50.0001 43C50.5524 43 51.0001 42.5523 51.0001 42C50.9971 39.6249 49.3265 37.5784 47.0001 37.1V37C47.0001 36.4477 46.5524 36 46.0001 36C45.4478 36 45.0001 36.4477 45.0001 37V37.1C42.6698 37.5732 40.9951 39.6221 40.9951 42C40.9951 44.3779 42.6698 46.4268 45.0001 46.9V52.817C43.8054 52.3946 43.005 51.2671 43.0001 50C43.0001 49.4477 42.5524 49 42.0001 49C41.4478 49 41.0001 49.4477 41.0001 50C41.0031 52.3751 42.6737 54.4216 45.0001 54.9V55C45.0001 55.5523 45.4478 56 46.0001 56C46.5524 56 47.0001 55.5523 47.0001 55V54.9C49.3305 54.4268 51.0051 52.3779 51.0051 50C51.0051 47.6221 49.3305 45.5732 47.0001 45.1V39.184C48.1945 39.6062 48.9949 40.7332 49.0001 42ZM43.0001 42C43.0054 40.7332 43.8058 39.6062 45.0001 39.184V44.816C43.8058 44.3937 43.0054 43.2668 43.0001 42ZM49.0001 50C48.9949 51.2668 48.1945 52.3937 47.0001 52.816V47.184C48.1945 47.6062 48.9949 48.7332 49.0001 50Z" fill="white"/>
<path d="M7 18H5C4.44772 18 4 18.4477 4 19C4 19.5523 4.44772 20 5 20H7C7.55229 20 8 19.5523 8 19C8 18.4477 7.55229 18 7 18Z" fill="white"/>
<path d="M7 22H5C4.44772 22 4 22.4477 4 23C4 23.5523 4.44772 24 5 24H7C7.55229 24 8 23.5523 8 23C8 22.4477 7.55229 22 7 22Z" fill="white"/>
<path d="M7 26H5C4.44772 26 4 26.4477 4 27C4 27.5523 4.44772 28 5 28H7C7.55229 28 8 27.5523 8 27C8 26.4477 7.55229 26 7 26Z" fill="white"/>
<path d="M13 18H11C10.4477 18 10 18.4477 10 19C10 19.5523 10.4477 20 11 20H13C13.5523 20 14 19.5523 14 19C14 18.4477 13.5523 18 13 18Z" fill="white"/>
<path d="M13 22H11C10.4477 22 10 22.4477 10 23C10 23.5523 10.4477 24 11 24H13C13.5523 24 14 23.5523 14 23C14 22.4477 13.5523 22 13 22Z" fill="white"/>
<path d="M14 27C14 26.4477 13.5523 26 13 26H11C10.4477 26 10 26.4477 10 27C10 27.5523 10.4477 28 11 28H13C13.5523 28 14 27.5523 14 27Z" fill="white"/>
<path d="M19 18H17C16.4477 18 16 18.4477 16 19C16 19.5523 16.4477 20 17 20H19C19.5523 20 20 19.5523 20 19C20 18.4477 19.5523 18 19 18Z" fill="white"/>
<path d="M19 22H17C16.4477 22 16 22.4477 16 23C16 23.5523 16.4477 24 17 24H19C19.5523 24 20 23.5523 20 23C20 22.4477 19.5523 22 19 22Z" fill="white"/>
<path d="M19 26H17C16.4477 26 16 26.4477 16 27C16 27.5523 16.4477 28 17 28H19C19.5523 28 20 27.5523 20 27C20 26.4477 19.5523 26 19 26Z" fill="white"/>
<path d="M28 22H41C41.5523 22 42 21.5523 42 21C42 20.4477 41.5523 20 41 20H28C27.4477 20 27 20.4477 27 21C27 21.5523 27.4477 22 28 22Z" fill="white"/>
<path d="M28 27H41C41.5523 27 42 26.5523 42 26C42 25.4477 41.5523 25 41 25H28C27.4477 25 27 25.4477 27 26C27 26.5523 27.4477 27 28 27Z" fill="white"/>
<path d="M28 32H41C41.5523 32 42 31.5523 42 31C42 30.4477 41.5523 30 41 30H28C27.4477 30 27 30.4477 27 31C27 31.5523 27.4477 32 28 32Z" fill="white"/>
<path d="M31 35H17C16.4477 35 16 35.4477 16 36C16 36.5523 16.4477 37 17 37H31C31.5523 37 32 36.5523 32 36C32 35.4477 31.5523 35 31 35Z" fill="white"/>
<path d="M29 40H17C16.4477 40 16 40.4477 16 41C16 41.5523 16.4477 42 17 42H29C29.5523 42 30 41.5523 30 41C30 40.4477 29.5523 40 29 40Z" fill="white"/>
<path d="M28 45H17C16.4477 45 16 45.4477 16 46C16 46.5523 16.4477 47 17 47H28C28.5523 47 29 46.5523 29 46C29 45.4477 28.5523 45 28 45Z" fill="white"/>
</svg>
