<svg width="60" height="60" viewBox="0 0 60 60" fill="none" xmlns="http://www.w3.org/2000/svg">
<path d="M24.9472 13.5781H16.0561C15.2481 13.5781 14.5912 14.235 14.5912 15.043V29.5664C14.5912 30.3739 15.2481 31.0313 16.0561 31.0313H24.9472C25.7552 31.0313 26.412 30.3739 26.412 29.5664V15.043C26.412 14.235 25.7552 13.5781 24.9472 13.5781ZM19.6225 29.2735H16.349V25.6791H19.6225V29.2735ZM19.6225 23.9213H16.349V20.6877H19.6225V23.9213ZM19.6225 18.9298H16.349V15.3359H19.6225V18.9298ZM24.6542 29.2735H21.3803V25.6791H24.6542V29.2735ZM24.6542 23.9213H21.3803V20.6877H24.6542V23.9213ZM24.6542 18.9298H21.3803V15.3359H24.6542V18.9298Z" fill="#004A90"/>
<path d="M36.7351 48.6676C36.2494 48.6676 35.8562 49.0613 35.8562 49.5465V51.6568C35.8562 52.142 36.2494 52.5357 36.7351 52.5357C37.2208 52.5357 37.614 52.142 37.614 51.6568V49.5465C37.614 49.0613 37.2208 48.6676 36.7351 48.6676Z" fill="#004A90"/>
<path d="M59.9917 39.7916C59.951 39.483 59.7931 39.2079 59.5472 39.0175L40.9268 24.6103C40.5139 24.2912 40.0204 24.1223 39.4995 24.1223C38.9781 24.1223 38.4846 24.2912 38.0713 24.6107L35.2551 26.7897V24.2656C35.2551 23.7799 34.8619 23.3867 34.3762 23.3867C33.8905 23.3867 33.4973 23.7799 33.4973 24.2656V28.1497L19.4522 39.017C19.2077 39.2056 19.0452 39.4899 19.0068 39.7952C18.967 40.1042 19.0498 40.4109 19.2398 40.6586L20.6648 42.5121C20.8886 42.8018 21.2265 42.968 21.5922 42.968C21.8495 42.968 22.1036 42.8815 22.3077 42.7235L39.4995 29.4218L52.494 39.4762V57.7885H45.4152V56.1406C45.4152 55.6549 45.0219 55.2617 44.5363 55.2617C44.0506 55.2617 43.6574 55.6549 43.6574 56.1406V57.7885H35.3402V44.3239H43.6574V52.0097C43.6574 52.4954 44.0506 52.8886 44.5363 52.8886C45.0219 52.8886 45.4152 52.4954 45.4152 52.0097V44.0309C45.4152 43.2234 44.7578 42.5661 43.9503 42.5661H35.0477C34.2398 42.5661 33.5824 43.2234 33.5824 44.0309V57.7885H26.9037V55.3912C26.9037 54.5833 26.2468 53.9264 25.4388 53.9264H24.5974C24.6675 53.5767 24.7055 53.2155 24.7055 52.8456C24.7055 49.8038 22.2304 47.3291 19.1885 47.3291C17.5374 47.3291 15.9924 48.0867 14.9592 49.3153C14.5683 49.1917 14.1527 49.1245 13.7214 49.1245C13.4047 49.1245 13.0934 49.1597 12.7908 49.2302C11.8336 47.5905 10.0474 46.5358 8.11658 46.5358C7.91105 46.5358 7.7078 46.5486 7.5073 46.572V17.1515L20.5023 7.09625L33.4977 17.1515V20.1636C33.4977 20.6493 33.891 21.0425 34.3767 21.0425C34.8619 21.0425 35.2556 20.6493 35.2556 20.1636V18.5115L37.6945 20.3984C37.8982 20.5563 38.1523 20.6429 38.4095 20.6429C38.7762 20.6429 39.1145 20.4762 39.3374 20.186C39.3406 20.1819 39.3438 20.1773 39.347 20.1732L40.7121 18.3293L40.7208 18.3183C40.811 18.2053 41.0504 17.9054 40.9945 17.4664C40.9538 17.1565 40.7954 16.8814 40.5501 16.6924L21.9301 2.28516C21.5172 1.96609 21.0237 1.79718 20.5023 1.79718C19.9809 1.79718 19.4874 1.96609 19.0741 2.28561L13.9618 6.24115V5.13336C14.653 5.01617 15.1813 4.41467 15.1813 3.69095V1.93359C15.1813 1.12564 14.5239 0.46875 13.7164 0.46875H6.59406C5.78657 0.46875 5.12922 1.12564 5.12922 1.93359V3.69049C5.12922 4.41467 5.65748 5.01572 6.3487 5.13336V12.1317L0.456367 16.691C0.211006 16.8796 0.0484994 17.1643 0.0100473 17.4687C-0.0302358 17.7782 0.0521615 18.0849 0.242591 18.333L1.66761 20.1865C1.891 20.4767 2.22883 20.6429 2.59504 20.6429C2.8523 20.6429 3.1059 20.5563 3.31098 20.3984L5.74949 18.5115V47.0888C4.35422 47.7754 3.27985 49.048 2.88068 50.6003C1.55546 51.1111 0.644965 52.3984 0.644965 53.8596C0.644965 54.0207 0.65641 54.1791 0.677467 54.3347C0.398689 54.6016 0.224738 54.976 0.224738 55.3912V58.082C0.224738 58.8895 0.881629 59.5468 1.68958 59.5468H56.7993C57.285 59.5468 57.6782 59.1531 57.6782 58.6679C57.6782 58.1822 57.285 57.789 56.7993 57.789H54.2518V40.8362L56.6913 42.7235C56.895 42.881 57.149 42.968 57.4063 42.968C57.773 42.968 58.1112 42.8014 58.3342 42.5107C58.3374 42.5066 58.3406 42.5024 58.3438 42.4983L59.7093 40.654L59.7184 40.6425C59.8082 40.5299 60.0471 40.2301 59.9917 39.7916ZM19.1885 49.0869C21.2613 49.0869 22.9477 50.7733 22.9477 52.8456C22.9477 53.2214 22.8909 53.584 22.7879 53.9264H17.7745C17.8125 53.703 17.8335 53.4732 17.8335 53.2388C17.8335 52.0464 17.3231 50.9715 16.5106 50.219C17.2055 49.5135 18.1668 49.0869 19.1885 49.0869ZM6.88703 2.22656H13.4234V3.39752H6.88703V2.22656ZM12.204 5.15533V7.60117L8.10651 10.7716V5.15533H12.204ZM2.7017 18.6475L1.99262 17.7251L20.1494 3.67584C20.2533 3.59573 20.3718 3.55499 20.5023 3.55499C20.6328 3.55499 20.7513 3.59573 20.8548 3.67538L38.9868 17.7054L38.2947 18.6406L21.0402 5.28992C20.7234 5.04501 20.2812 5.04501 19.9644 5.28992L2.7017 18.6475ZM25.1458 57.789H1.98255V55.6842H10.0786C10.5638 55.6842 10.9575 55.291 10.9575 54.8053C10.9575 54.3196 10.5638 53.9264 10.0786 53.9264H2.40507C2.40415 53.904 2.40278 53.882 2.40278 53.8596C2.40278 53.0305 2.99192 52.3141 3.80445 52.1567C4.17203 52.0853 4.45402 51.7891 4.50712 51.4188C4.76346 49.6376 6.31528 48.2941 8.11658 48.2941C9.61255 48.2941 10.9804 49.2329 11.5201 50.63C11.6079 50.858 11.7865 51.0388 12.0135 51.1299C12.2406 51.2206 12.4946 51.2123 12.7157 51.1079C13.0316 50.9587 13.3703 50.8827 13.7214 50.8827C15.0197 50.8827 16.0757 51.9397 16.0757 53.2393C16.0757 53.4787 16.0382 53.709 15.9714 53.9264H14.2973C13.8116 53.9264 13.4184 54.3201 13.4184 54.8053C13.4184 55.291 13.8116 55.6842 14.2973 55.6842H25.1458V57.789ZM57.2918 40.9657L40.0374 27.6155C39.7206 27.3701 39.2784 27.3701 38.9616 27.6155L21.6984 40.9726L20.9894 40.0502L39.1465 26.0014C39.2505 25.9209 39.369 25.8801 39.4995 25.8801C39.6295 25.8801 39.7485 25.9209 39.852 26.001L57.984 40.0305L57.2918 40.9657Z" fill="#004A90"/>
</svg>
