<svg width="30" height="30" viewBox="0 0 30 30" fill="none" xmlns="http://www.w3.org/2000/svg">
<path d="M6.1839 1.11572C5.92482 1.13934 5.74515 1.33868 5.74549 1.57673V3.42893C5.74637 3.68329 5.95214 3.88905 6.2065 3.88994H23.7944C24.0488 3.88901 24.2545 3.68329 24.2554 3.42893V1.57673C24.2546 1.32238 24.0488 1.11663 23.7944 1.11572H6.1839ZM6.67112 2.04228H23.3298V2.96792H6.67112V2.04228ZM7.58771 4.81105C7.33246 4.81455 7.12863 5.02491 7.13213 5.28017V7.59424C7.13213 10.921 9.21286 13.7526 11.9085 14.9994C9.17195 16.2717 7.13213 19.0777 7.13213 22.4044V26.1078H6.2065C6.08438 26.1083 5.9674 26.1571 5.88105 26.2434C5.7947 26.3298 5.74597 26.4467 5.74549 26.5688V28.4201C5.74502 28.5429 5.79333 28.6608 5.87978 28.7479C5.96623 28.835 6.08375 28.8842 6.2065 28.8847H23.7944C23.9172 28.8842 24.0347 28.835 24.1211 28.7479C24.2076 28.6608 24.2559 28.5429 24.2554 28.4201V26.5688C24.2549 26.4467 24.2062 26.3298 24.1199 26.2434C24.0335 26.1571 23.9165 26.1083 23.7944 26.1078H22.8679V22.4044C22.8679 19.0777 20.8281 16.2717 18.0915 14.9994C20.7872 13.7526 22.8679 10.921 22.8679 7.59424V5.28017C22.8714 5.02491 22.6676 4.81506 22.4123 4.81105C22.1514 4.80755 21.9388 5.01924 21.9423 5.28017V7.59424C21.9423 10.8436 19.7371 13.5618 16.7166 14.56C16.2938 14.7003 16.2938 15.2984 16.7166 15.4386C19.7371 16.4369 21.9423 19.155 21.9423 22.4044V26.1078H20.5556C20.494 26.1065 20.4327 26.1175 20.3754 26.1401C20.318 26.1628 20.2658 26.1966 20.2217 26.2397C20.1777 26.2828 20.1427 26.3343 20.1188 26.3911C20.0949 26.4479 20.0825 26.509 20.0825 26.5706C20.0825 26.6323 20.0949 26.6933 20.1188 26.7501C20.1427 26.8069 20.1777 26.8584 20.2217 26.9016C20.2658 26.9447 20.318 26.9785 20.3754 27.0012C20.4327 27.0238 20.494 27.0348 20.5556 27.0335H23.3298V27.9591H6.67112V27.0335H18.7034C18.7651 27.0348 18.8264 27.0238 18.8837 27.0012C18.941 26.9785 18.9933 26.9447 19.0373 26.9016C19.0814 26.8584 19.1164 26.8069 19.1403 26.7501C19.1642 26.6933 19.1765 26.6323 19.1765 26.5706C19.1765 26.509 19.1642 26.4479 19.1403 26.3911C19.1164 26.3343 19.0814 26.2828 19.0373 26.2397C18.9933 26.1966 18.941 26.1628 18.8837 26.1401C18.8264 26.1175 18.7651 26.1065 18.7034 26.1078H8.05776V22.4044C8.05776 19.155 10.2629 16.4369 13.2834 15.4386C13.7062 15.2984 13.7062 14.7003 13.2834 14.56C10.2629 13.5618 8.05776 10.8436 8.05776 7.59424V5.28017C8.06133 5.01924 7.84863 4.80696 7.58771 4.81105ZM9.42271 7.13232C9.16364 7.15611 8.98396 7.35533 8.9843 7.59338C8.9843 10.9186 11.6748 13.61 15 13.61C18.3252 13.61 21.0166 10.9186 21.0166 7.59338C21.0157 7.33903 20.81 7.13323 20.5556 7.13232H9.42271ZM9.93253 8.05797H20.0693C19.8186 10.6602 17.6463 12.6843 15 12.6843C12.3538 12.6843 10.1986 10.6945 9.93253 8.05797ZM14.9937 14.5293C14.9326 14.5299 14.8722 14.5426 14.8161 14.5666C14.7599 14.5906 14.7091 14.6255 14.6665 14.6693C14.6239 14.7131 14.5903 14.7649 14.5678 14.8217C14.5453 14.8784 14.5343 14.9391 14.5354 15.0002V15.9268C14.534 15.9884 14.545 16.0497 14.5676 16.107C14.5903 16.1644 14.6241 16.2167 14.6673 16.2607C14.7104 16.3048 14.7619 16.3398 14.8187 16.3638C14.8755 16.3877 14.9365 16.3999 14.9982 16.3999C15.0599 16.3999 15.1209 16.3877 15.1777 16.3638C15.2346 16.3398 15.286 16.3048 15.3292 16.2607C15.3723 16.2167 15.4061 16.1644 15.4288 16.107C15.4514 16.0497 15.4624 15.9884 15.461 15.9268V15.0002C15.4621 14.9384 15.4508 14.877 15.4277 14.8196C15.4047 14.7622 15.3703 14.71 15.3268 14.6661C15.2832 14.6222 15.2313 14.5875 15.1741 14.564C15.1169 14.5405 15.0555 14.5287 14.9937 14.5293ZM14.9937 17.3062C14.9328 17.3068 14.8727 17.3193 14.8167 17.3432C14.7607 17.3671 14.71 17.4018 14.6674 17.4453C14.6249 17.4888 14.5913 17.5402 14.5686 17.5967C14.546 17.6532 14.5347 17.7136 14.5354 17.7744V18.7C14.534 18.7617 14.545 18.823 14.5676 18.8804C14.5903 18.9377 14.6241 18.9899 14.6673 19.034C14.7104 19.0781 14.7619 19.1131 14.8187 19.137C14.8755 19.1609 14.9365 19.1733 14.9982 19.1733C15.0599 19.1733 15.1209 19.1609 15.1777 19.137C15.2346 19.1131 15.286 19.0781 15.3292 19.034C15.3723 18.9899 15.4061 18.9377 15.4288 18.8804C15.4514 18.823 15.4624 18.7617 15.461 18.7V17.7744C15.4617 17.7128 15.4501 17.6517 15.4269 17.5946C15.4037 17.5375 15.3693 17.4856 15.3258 17.442C15.2823 17.3984 15.2305 17.3639 15.1734 17.3406C15.1164 17.3173 15.0553 17.3056 14.9937 17.3062ZM15 20.0912C14.3636 20.0912 13.742 20.4031 13.1008 20.8153C11.5789 21.8568 10.3703 23.0182 9.09997 24.4093C8.83218 24.7075 9.04447 25.1818 9.44528 25.1813H20.5556C20.9564 25.1817 21.1678 24.7075 20.9 24.4093C19.5772 23.0461 18.4619 21.8297 16.9001 20.8153C16.2589 20.4031 15.6364 20.0912 15 20.0912ZM15 21.0168C15.2892 21.0168 15.8238 21.2256 16.3975 21.5945C17.5503 22.3892 18.609 23.3322 19.479 24.2557H10.5228C11.533 23.2526 12.3822 22.3875 13.6025 21.5945C14.1762 21.2256 14.7108 21.0168 15 21.0168H15Z" fill="#004A90"/>
</svg>
