<svg width="29" height="30" viewBox="0 0 29 30" fill="none" xmlns="http://www.w3.org/2000/svg">
<path d="M28.3623 18.2043L27.4045 17.7676C27.1886 17.6692 26.9361 17.7706 26.841 17.994C26.7456 18.2174 26.8436 18.4778 27.0598 18.5765L28.0176 19.0139C28.0826 19.0432 28.0961 19.0846 28.0961 19.1146C28.0961 19.1441 28.0826 19.1853 28.0176 19.2148L20.1881 22.7865C20.139 22.8089 20.0764 22.8089 20.0268 22.7865C17.5679 21.6648 18.3737 22.0324 16.1948 21.0381L19.0352 19.6859C20.0603 20.3286 21.7528 19.8388 21.7528 18.7591C21.7528 18.0787 21.0302 17.5456 20.1076 17.5456C19.0708 17.5456 18.3115 18.2148 18.4874 18.9731L15.1507 20.5618C14.7964 20.4002 12.5518 19.3764 12.1978 19.2148C12.0927 19.1672 12.0921 19.0619 12.1978 19.0139L20.0268 15.4422C20.0764 15.4197 20.139 15.4197 20.1886 15.4422C24.0344 17.1961 19.9419 15.3298 25.4955 17.863C25.7115 17.9617 25.9639 17.8603 26.0591 17.6367C26.1542 17.4133 26.0562 17.1528 25.8402 17.0537L22.7494 15.6443V8.24156C22.7494 7.03581 22.7494 6.51442 22.7494 5.28121C22.7494 4.47394 22.1141 3.82095 21.338 3.82095H17.4415V2.43278C17.4415 1.09176 16.3868 0 15.0903 0H13.4749C13.2384 0 13.0475 0.197982 13.0475 0.442199C13.0475 0.686644 13.2384 0.884169 13.4749 0.884169H15.0903C15.9155 0.884169 16.5868 1.57928 16.5868 2.43278V3.82095H15.8932V2.43278C15.8932 1.97479 15.533 1.60171 15.0903 1.60171H7.65908C7.21636 1.60171 6.85571 1.97479 6.85571 2.43278V3.82095H6.16231V2.43278C6.16231 1.57928 6.83403 0.884169 7.65908 0.884169H11.7653C12.0014 0.884169 12.1928 0.686644 12.1928 0.442199C12.1928 0.197982 12.0014 0 11.7653 0H7.65908C6.36277 0 5.30739 1.09176 5.30739 2.43278V3.82095H1.41159C0.633223 3.82095 0 4.476 0 5.28121V16.0057C0 16.2497 0.190941 16.4476 0.427459 16.4476C0.663314 16.4476 0.854697 16.2497 0.854697 16.0057V11.0003C1.50164 11.9364 2.46829 12.6203 3.58804 12.8808V14.1774C3.58804 14.6981 3.9978 15.122 4.50137 15.122H5.7853C6.28887 15.122 6.69863 14.6981 6.69863 14.1774V12.9963H16.0507V14.1774C16.0507 14.6981 16.4605 15.122 16.9638 15.122H18.248C18.7516 15.122 19.1611 14.6981 19.1611 14.1774V12.8808C20.2811 12.6205 21.2479 11.9364 21.8947 11.0003V15.254L20.5333 14.6333C20.2645 14.5106 19.951 14.5106 19.6819 14.6333L11.8531 18.2043C11.0677 18.5627 11.0688 19.6662 11.8531 20.0241L13.3448 20.7044V20.9944H3.38715C1.99038 20.9944 0.854697 19.8195 0.854697 18.3753V17.774C0.854697 17.53 0.663314 17.332 0.427459 17.332C0.190941 17.332 0 17.53 0 17.774V18.3753C0 20.307 1.51912 21.8785 3.38715 21.8785H13.345V25.1568C13.345 25.8071 13.8898 26.3328 14.7593 26.7301V27.3122L13.3178 29.2918C13.1758 29.487 13.2136 29.7642 13.4021 29.9109C13.5906 30.0578 13.8586 30.0189 14.0006 29.8237L14.7593 28.7818V29.5577C14.7593 29.802 14.9507 29.9999 15.1867 29.9999C15.4226 29.9999 15.614 29.802 15.614 29.5577V28.7823L16.3724 29.8237C16.4565 29.9393 16.5846 29.9999 16.7143 29.9999C17.0627 29.9999 17.2685 29.5847 17.0552 29.2918L15.614 27.3124V27.0501C19.5908 28.271 26.8706 27.5321 26.8706 25.1566V20.7044L28.3623 20.0241C28.7254 19.8584 28.951 19.5094 28.951 19.1146C28.951 18.7191 28.7254 18.37 28.3623 18.2043ZM20.1078 18.4298C20.6264 18.4298 20.8981 18.6744 20.8981 18.7591C20.8981 18.8438 20.6264 19.0882 20.1078 19.0882C19.5932 19.0882 19.3173 18.8445 19.3173 18.7591C19.3173 18.6744 19.589 18.4298 20.1078 18.4298ZM7.71041 2.48588H15.0385V3.82095H7.71041V2.48588ZM5.84393 14.1774C5.84393 14.2106 5.8176 14.2378 5.7853 14.2378H4.50137C4.46907 14.2378 4.44274 14.2106 4.44274 14.1774V12.9936C4.49385 12.9952 4.54496 12.9963 4.59629 12.9963H5.84393V14.1774ZM5.84393 12.1122H4.59629C4.54474 12.1122 4.49385 12.1101 4.44274 12.1081V10.9007C4.44274 10.8673 4.46907 10.8401 4.50137 10.8401H5.7853C5.8176 10.8401 5.84393 10.8673 5.84393 10.9007V12.1122ZM18.3064 14.1774C18.3064 14.2106 18.2803 14.2378 18.248 14.2378H16.9641C16.9318 14.2378 16.9056 14.2106 16.9056 14.1774V12.9963H18.1533C18.2044 12.9963 18.2555 12.9954 18.3064 12.9936V14.1774ZM18.3064 12.1081C18.2555 12.1101 18.2046 12.1122 18.1533 12.1122H16.9054V10.9007C16.9054 10.8673 16.9318 10.8401 16.9638 10.8401H18.248C18.2803 10.8401 18.3064 10.8673 18.3064 10.9007V12.1081ZM19.1613 11.9682V10.9005C19.1613 10.3795 18.7516 9.95588 18.248 9.95588H16.9641C16.4605 9.95588 16.0507 10.3795 16.0507 10.9005V12.1119H6.69863V10.9005C6.69863 10.3795 6.28887 9.95588 5.7853 9.95588H4.50137C3.9978 9.95588 3.58804 10.3795 3.58804 10.9005V11.9682C2.01317 11.5116 0.854697 10.0142 0.854697 8.24156V5.28121C0.854697 4.96352 1.10427 4.70534 1.41159 4.70534H21.338C21.6681 4.70534 21.8947 4.98504 21.8947 5.28121V8.24156C21.8947 10.0142 20.7362 11.5118 19.1613 11.9682ZM14.7593 25.7492C14.3354 25.5022 14.1997 25.2799 14.1997 25.1568C14.1997 24.7407 14.1997 21.4874 14.1997 21.0946L14.7593 21.3498V25.7492ZM26.0157 25.1568C26.0157 25.3484 25.688 25.778 24.4607 26.1719C22.0986 26.929 18.1177 26.967 15.614 26.1252V21.7325C16.0206 21.9273 15.4281 21.6547 19.6821 23.5952C19.9527 23.7185 20.262 23.719 20.5333 23.5952L26.0157 21.0946V25.1568Z" fill="#004A90"/>
</svg>
