<svg width="50" height="54" viewBox="0 0 50 54" fill="none" xmlns="http://www.w3.org/2000/svg">
<path d="M26.875 8.75625C26.6264 8.75625 26.3879 8.65748 26.2121 8.48166C26.0363 8.30585 25.9375 8.06739 25.9375 7.81875V2.625H24.0625V7.81875C24.0625 8.06739 23.9637 8.30585 23.7879 8.48166C23.6121 8.65748 23.3736 8.75625 23.125 8.75625C22.8764 8.75625 22.6379 8.65748 22.4621 8.48166C22.2863 8.30585 22.1875 8.06739 22.1875 7.81875V1.6875C22.1875 1.43886 22.2863 1.2004 22.4621 1.02459C22.6379 0.848772 22.8764 0.75 23.125 0.75H26.875C27.1236 0.75 27.3621 0.848772 27.5379 1.02459C27.7137 1.2004 27.8125 1.43886 27.8125 1.6875V7.81875C27.8125 8.06739 27.7137 8.30585 27.5379 8.48166C27.3621 8.65748 27.1236 8.75625 26.875 8.75625Z" fill="white"/>
<path d="M26.875 43.875H23.125C22.8764 43.875 22.6379 43.7763 22.4621 43.6004C22.2863 43.4246 22.1875 43.1862 22.1875 42.9375V14.3063C22.1875 14.0576 22.2863 13.8192 22.4621 13.6434C22.6379 13.4675 22.8764 13.3688 23.125 13.3688C23.3736 13.3688 23.6121 13.4675 23.7879 13.6434C23.9637 13.8192 24.0625 14.0576 24.0625 14.3063V42H25.9375V14.3063C25.9375 14.0576 26.0363 13.8192 26.2121 13.6434C26.3879 13.4675 26.6264 13.3688 26.875 13.3688C27.1236 13.3688 27.3621 13.4675 27.5379 13.6434C27.7137 13.8192 27.8125 14.0576 27.8125 14.3063V42.9375C27.8125 43.1862 27.7137 43.4246 27.5379 43.6004C27.3621 43.7763 27.1236 43.875 26.875 43.875Z" fill="white"/>
<path d="M40 53.25H10C9.75136 53.25 9.5129 53.1512 9.33709 52.9754C9.16127 52.7996 9.0625 52.5611 9.0625 52.3125V46.6875C9.0625 46.4389 9.16127 46.2004 9.33709 46.0246C9.5129 45.8488 9.75136 45.75 10 45.75H40C40.2486 45.75 40.4871 45.8488 40.6629 46.0246C40.8387 46.2004 40.9375 46.4389 40.9375 46.6875V52.3125C40.9375 52.5611 40.8387 52.7996 40.6629 52.9754C40.4871 53.1512 40.2486 53.25 40 53.25ZM10.9375 51.375H39.0625V47.625H10.9375V51.375Z" fill="white"/>
<path d="M34.375 47.625H15.625C15.3764 47.625 15.1379 47.5262 14.9621 47.3504C14.7863 47.1746 14.6875 46.9361 14.6875 46.6875V42.9375C14.6875 42.6889 14.7863 42.4504 14.9621 42.2746C15.1379 42.0988 15.3764 42 15.625 42H34.375C34.6236 42 34.8621 42.0988 35.0379 42.2746C35.2137 42.4504 35.3125 42.6889 35.3125 42.9375V46.6875C35.3125 46.9361 35.2137 47.1746 35.0379 47.3504C34.8621 47.5262 34.6236 47.625 34.375 47.625ZM16.5625 45.75H33.4375V43.875H16.5625V45.75Z" fill="white"/>
<path d="M8.125 36.375C6.13658 36.3727 4.23025 35.5818 2.82422 34.1758C1.41819 32.7697 0.627283 30.8634 0.625 28.875V27.9375C0.625 27.6889 0.723772 27.4504 0.899588 27.2746C1.0754 27.0988 1.31386 27 1.5625 27H14.6875C14.9361 27 15.1746 27.0988 15.3504 27.2746C15.5262 27.4504 15.625 27.6889 15.625 27.9375V28.875C15.6227 30.8634 14.8318 32.7697 13.4258 34.1758C12.0198 35.5818 10.1134 36.3727 8.125 36.375ZM2.5 28.875C2.5 30.3668 3.09263 31.7976 4.14752 32.8525C5.20242 33.9074 6.63316 34.5 8.125 34.5C9.61684 34.5 11.0476 33.9074 12.1025 32.8525C13.1574 31.7976 13.75 30.3668 13.75 28.875H2.5Z" fill="white"/>
<path d="M14.688 28.8751C14.5055 28.8752 14.327 28.822 14.1744 28.7221C14.0217 28.6222 13.9016 28.4798 13.8287 28.3126L8.12499 15.2767L2.42124 28.3126C2.37456 28.4291 2.30495 28.5351 2.21654 28.6242C2.12813 28.7133 2.02272 28.7838 1.90656 28.8314C1.7904 28.879 1.66586 28.9028 1.54033 28.9014C1.4148 28.9 1.29083 28.8734 1.17579 28.8231C1.06074 28.7729 0.956953 28.7001 0.870586 28.609C0.784219 28.5178 0.71703 28.4103 0.673004 28.2928C0.628979 28.1752 0.609014 28.05 0.614294 27.9245C0.619574 27.7991 0.649991 27.676 0.703742 27.5626L7.26624 12.5626C7.33919 12.3955 7.45928 12.2533 7.61181 12.1535C7.76435 12.0537 7.94269 12.0005 8.12499 12.0005C8.30729 12.0005 8.48564 12.0537 8.63817 12.1535C8.7907 12.2533 8.9108 12.3955 8.98374 12.5626L15.5462 27.5626C15.5956 27.6753 15.6223 27.7967 15.6247 27.9197C15.6271 28.0428 15.6053 28.1651 15.5605 28.2797C15.5156 28.3943 15.4486 28.4989 15.3633 28.5877C15.278 28.6764 15.1761 28.7474 15.0633 28.7967C14.945 28.8487 14.8172 28.8754 14.688 28.8751Z" fill="white"/>
<path d="M41.875 36.375C39.8866 36.3727 37.9803 35.5818 36.5742 34.1758C35.1682 32.7697 34.3773 30.8634 34.375 28.875V27.9375C34.375 27.6889 34.4738 27.4504 34.6496 27.2746C34.8254 27.0988 35.0639 27 35.3125 27H48.4375C48.6861 27 48.9246 27.0988 49.1004 27.2746C49.2762 27.4504 49.375 27.6889 49.375 27.9375V28.875C49.3727 30.8634 48.5818 32.7697 47.1758 34.1758C45.7697 35.5818 43.8634 36.3727 41.875 36.375ZM36.25 28.875C36.25 30.3668 36.8426 31.7976 37.8975 32.8525C38.9524 33.9074 40.3832 34.5 41.875 34.5C43.3668 34.5 44.7976 33.9074 45.8525 32.8525C46.9074 31.7976 47.5 30.3668 47.5 28.875H36.25Z" fill="white"/>
<path d="M48.438 28.8751C48.2556 28.8752 48.0771 28.822 47.9244 28.7221C47.7718 28.6222 47.6517 28.4798 47.5788 28.3126L41.875 15.2767L36.1713 28.3126C36.1246 28.4291 36.055 28.5351 35.9666 28.6242C35.8782 28.7133 35.7727 28.7838 35.6566 28.8314C35.5404 28.879 35.4159 28.9028 35.2904 28.9014C35.1648 28.9 35.0409 28.8734 34.9258 28.8231C34.8108 28.7729 34.707 28.7001 34.6206 28.609C34.5342 28.5178 34.4671 28.4103 34.423 28.2928C34.379 28.1752 34.359 28.05 34.3643 27.9245C34.3696 27.7991 34.4 27.676 34.4538 27.5626L41.0163 12.5626C41.0892 12.3955 41.2093 12.2533 41.3619 12.1535C41.5144 12.0537 41.6927 12.0005 41.875 12.0005C42.0573 12.0005 42.2357 12.0537 42.3882 12.1535C42.5407 12.2533 42.6608 12.3955 42.7338 12.5626L49.2963 27.5626C49.3456 27.6753 49.3723 27.7967 49.3748 27.9197C49.3772 28.0428 49.3554 28.1651 49.3105 28.2797C49.2657 28.3943 49.1987 28.4989 49.1134 28.5877C49.0281 28.6764 48.9261 28.7474 48.8134 28.7967C48.6951 28.8487 48.5672 28.8754 48.438 28.8751Z" fill="white"/>
<path d="M25 15.75C24.2755 15.7467 23.5616 15.5757 22.9143 15.2504C22.267 14.9251 21.7037 14.4544 21.2688 13.875H3.4375C2.69158 13.875 1.97621 13.5787 1.44876 13.0512C0.921316 12.5238 0.625 11.8084 0.625 11.0625C0.625 10.3166 0.921316 9.60121 1.44876 9.07377C1.97621 8.54632 2.69158 8.25 3.4375 8.25H21.2692C21.7018 7.66822 22.2645 7.19568 22.9123 6.87012C23.5601 6.54455 24.275 6.375 25 6.375C25.725 6.375 26.4399 6.54455 27.0877 6.87012C27.7355 7.19568 28.2982 7.66822 28.7308 8.25H46.5625C47.3084 8.25 48.0238 8.54632 48.5512 9.07377C49.0787 9.60121 49.375 10.3166 49.375 11.0625C49.375 11.8084 49.0787 12.5238 48.5512 13.0512C48.0238 13.5787 47.3084 13.875 46.5625 13.875H28.7312C28.2963 14.4544 27.733 14.9251 27.0857 15.2504C26.4383 15.5757 25.7245 15.7467 25 15.75ZM3.4375 10.125C3.18886 10.125 2.9504 10.2238 2.77459 10.3996C2.59877 10.5754 2.5 10.8139 2.5 11.0625C2.5 11.3111 2.59877 11.5496 2.77459 11.7254C2.9504 11.9012 3.18886 12 3.4375 12H21.77C21.934 12 22.0952 12.0431 22.2373 12.1249C22.3795 12.2066 22.4977 12.3243 22.5802 12.466C22.823 12.8938 23.1749 13.2496 23.6 13.4971C24.025 13.7446 24.5081 13.875 25 13.875C25.4919 13.875 25.975 13.7446 26.4 13.4971C26.8251 13.2496 27.177 12.8938 27.4198 12.466C27.5023 12.3243 27.6205 12.2066 27.7627 12.1249C27.9048 12.0431 28.066 12 28.23 12H46.5625C46.8111 12 47.0496 11.9012 47.2254 11.7254C47.4012 11.5496 47.5 11.3111 47.5 11.0625C47.5 10.8139 47.4012 10.5754 47.2254 10.3996C47.0496 10.2238 46.8111 10.125 46.5625 10.125H28.23C28.066 10.125 27.9048 10.0819 27.7627 10.0002C27.6205 9.91838 27.5023 9.80073 27.4198 9.65897C27.177 9.2312 26.8251 8.87544 26.4 8.62794C25.975 8.38044 25.4919 8.25004 25 8.25004C24.5081 8.25004 24.025 8.38044 23.6 8.62794C23.1749 8.87544 22.823 9.2312 22.5802 9.65897C22.4977 9.80073 22.3795 9.91838 22.2373 10.0002C22.0952 10.0819 21.934 10.125 21.77 10.125H3.4375Z" fill="white"/>
<path d="M25 12C25.5178 12 25.9375 11.5803 25.9375 11.0625C25.9375 10.5447 25.5178 10.125 25 10.125C24.4822 10.125 24.0625 10.5447 24.0625 11.0625C24.0625 11.5803 24.4822 12 25 12Z" fill="white"/>
</svg>
