<svg xmlns="http://www.w3.org/2000/svg" width="21.633" height="22.143" viewBox="0 0 21.633 22.143">
  <g id="magnifying-glass-icon" transform="translate(-0.183 -0.931)">
    <path id="Path_1" data-name="Path 1" d="M8.713,17.989A8.529,8.529,0,1,1,17.241,9.46a8.529,8.529,0,0,1-8.528,8.529Zm0-15.683A7.154,7.154,0,1,0,15.866,9.46,7.154,7.154,0,0,0,8.713,2.306Z" fill="#fff"/>
    <path id="Path_2" data-name="Path 2" d="M4.086,10.148A.688.688,0,0,1,3.4,9.46,5.32,5.32,0,0,1,8.713,4.146a.688.688,0,0,1,0,1.375A3.944,3.944,0,0,0,4.773,9.46a.688.688,0,0,1-.687.688Z" fill="#fff"/>
    <path id="Path_3" data-name="Path 3" d="M21.129,23.069a.686.686,0,0,1-.486-.2l-6.824-6.824a.687.687,0,1,1,.972-.972L21.615,21.9a.688.688,0,0,1-.486,1.174Z" fill="#fff"/>
  </g>
</svg>
