<svg xmlns="http://www.w3.org/2000/svg" width="15.412" height="20" viewBox="0 0 15.412 20">
  <path id="map-pointer" d="M2.412,13.325l5.129,6.454a.586.586,0,0,0,.917,0l5.129-6.454A9.456,9.456,0,0,0,15.7,7.731a7.282,7.282,0,0,0-2.16-5.444,7.861,7.861,0,0,0-11.087,0A7.282,7.282,0,0,0,.3,7.731,9.457,9.457,0,0,0,2.412,13.325ZM3.285,3.116a6.676,6.676,0,0,1,9.43,0c2.457,2.457,2.439,6.355-.044,9.48L8,18.472,3.329,12.6C.846,9.471.828,5.573,3.285,3.116ZM8,10.878A3.024,3.024,0,1,0,4.976,7.854,3.027,3.027,0,0,0,8,10.878ZM8,6A1.852,1.852,0,1,1,6.148,7.854,1.854,1.854,0,0,1,8,6Z" transform="translate(-0.294)" fill="#fff"/>
</svg>
