<svg width="16" height="20" viewBox="0 0 16 20" fill="none" xmlns="http://www.w3.org/2000/svg">
<path d="M2.41209 13.325L7.54142 19.7786C7.65256 19.9185 7.82142 20 8.0001 20C8.17877 20 8.34764 19.9185 8.45881 19.7786L13.5881 13.325C14.9073 11.6652 15.6588 9.67867 15.704 7.73137C15.7528 5.63195 15.0058 3.74949 13.5438 2.28746C12.0687 0.812383 10.0999 0 8.0001 0C5.90033 0 3.93154 0.812383 2.45646 2.28746C0.994394 3.74953 0.247402 5.63199 0.296191 7.73137C0.341465 9.67863 1.09291 11.6652 2.41209 13.325ZM3.2851 3.11609C4.58506 1.81617 6.2926 1.16621 8.0001 1.16621C9.70764 1.16621 11.4152 1.81617 12.7151 3.11609C15.1722 5.5732 15.154 9.47141 12.6707 12.5958L8.0001 18.4723L3.32947 12.5958C0.846231 9.47141 0.828027 5.5732 3.2851 3.11609ZM8.0001 10.8779C9.66752 10.8779 11.0241 9.52137 11.0241 7.85395C11.0241 6.18652 9.66756 4.82996 8.0001 4.82996C6.33264 4.82996 4.97607 6.18652 4.97607 7.85395C4.97607 9.52137 6.33267 10.8779 8.0001 10.8779ZM8.0001 6.00184C9.02135 6.00184 9.85221 6.8327 9.85221 7.85395C9.85221 8.8752 9.02135 9.70605 8.0001 9.70605C6.97881 9.70605 6.14795 8.8752 6.14795 7.85395C6.14795 6.8327 6.97885 6.00184 8.0001 6.00184Z" fill="#666666"/>
</svg>
