<svg width="60" height="60" viewBox="0 0 60 60" fill="none" xmlns="http://www.w3.org/2000/svg">
<g clip-path="url(#clip0)">
<path d="M55.3125 48.75H4.6875C3.44475 48.7485 2.25334 48.2542 1.37458 47.3754C0.495827 46.4967 0.00148862 45.3052 0 44.0625L0 12.1875C0.00148862 10.9448 0.495827 9.75333 1.37458 8.87458C2.25334 7.99583 3.44475 7.50149 4.6875 7.5H22.5V9.375H4.6875C3.94158 9.375 3.22621 9.67132 2.69876 10.1988C2.17132 10.7262 1.875 11.4416 1.875 12.1875V44.0625C1.875 44.8084 2.17132 45.5238 2.69876 46.0512C3.22621 46.5787 3.94158 46.875 4.6875 46.875H55.3125C56.0584 46.875 56.7738 46.5787 57.3012 46.0512C57.8287 45.5238 58.125 44.8084 58.125 44.0625V12.1875C58.125 11.4416 57.8287 10.7262 57.3012 10.1988C56.7738 9.67132 56.0584 9.375 55.3125 9.375H51.5625V7.5H55.3125C56.5552 7.50149 57.7467 7.99583 58.6254 8.87458C59.5042 9.75333 59.9985 10.9448 60 12.1875V44.0625C59.9985 45.3052 59.5042 46.4967 58.6254 47.3754C57.7467 48.2542 56.5552 48.7485 55.3125 48.75Z" fill="#004A90"/>
<path d="M44.0625 60H15.9375C15.6889 60 15.4504 59.9012 15.2746 59.7254C15.0988 59.5496 15 59.3111 15 59.0625C14.9985 58.0496 15.3362 57.0653 15.9592 56.2667C16.5823 55.4681 17.4549 54.9011 18.4378 54.6562L22.6922 53.7675C22.9038 53.7243 23.094 53.6094 23.2306 53.4422C23.3673 53.2749 23.442 53.0656 23.4422 52.8497V47.8125H25.3172V52.8516C25.3149 53.497 25.0917 54.1221 24.6847 54.6231C24.2777 55.124 23.7116 55.4705 23.0803 55.605L18.8616 56.4853C18.4485 56.591 18.0672 56.7955 17.7505 57.0811C17.4339 57.3667 17.1914 57.7249 17.0438 58.125H42.9553C42.8038 57.7211 42.5564 57.3601 42.2343 57.0731C41.9122 56.7862 41.5252 56.5819 41.1066 56.4778L36.9244 55.605C36.2931 55.4705 35.7269 55.124 35.32 54.6231C34.913 54.1221 34.6898 53.497 34.6875 52.8516V49.6875H36.5625V52.8516C36.5627 53.0675 36.6374 53.2768 36.774 53.444C36.9107 53.6113 37.1009 53.7262 37.3125 53.7694L41.5312 54.6497C42.5202 54.8904 43.3996 55.4562 44.0286 56.2563C44.6576 57.0565 44.9997 58.0447 45 59.0625C45 59.3111 44.9012 59.5496 44.7254 59.7254C44.5496 59.9012 44.3111 60 44.0625 60Z" fill="#004A90"/>
<path d="M0.9375 41.25H5.625V43.125H0.9375V41.25Z" fill="#004A90"/>
<path d="M7.5 41.25H9.37406V43.125H7.5V41.25Z" fill="#004A90"/>
<path d="M11.25 41.25H59.0625V43.125H11.25V41.25Z" fill="#004A90"/>
<path d="M22.9228 26.7188C22.7469 26.7189 22.5745 26.6696 22.4253 26.5765C22.2761 26.4833 22.1561 26.35 22.0791 26.1919L17.2791 16.3359C17.1832 16.1387 17.1595 15.9141 17.212 15.7012C17.2646 15.4883 17.3902 15.3005 17.5669 15.1706C30.855 5.40563 32.9063 0.640316 32.925 0.593441C32.994 0.424526 33.1103 0.279163 33.26 0.174868C33.4098 0.070574 33.5864 0.0117994 33.7688 0.00562798C33.949 0.00145729 34.1267 0.0481442 34.2815 0.140337C34.4364 0.232529 34.5622 0.366495 34.6444 0.526878L45.8438 23.5116C45.9214 23.6709 45.9523 23.8489 45.9329 24.0251C45.9135 24.2012 45.8445 24.3683 45.734 24.5068C45.6235 24.6454 45.476 24.7498 45.3086 24.8079C45.1412 24.8661 44.9607 24.8756 44.7881 24.8353C44.7347 24.8241 38.7975 23.5706 23.1066 26.6963C23.0462 26.7094 22.9846 26.7169 22.9228 26.7188ZM19.3069 16.2188L23.4497 24.72C34.4616 22.5778 40.6247 22.5769 43.3997 22.7822L33.7116 2.90625C32.1825 5.08782 28.3791 9.47813 19.3069 16.2188Z" fill="#004A90"/>
<path d="M18.8212 27.9863C17.578 27.9975 16.3565 27.6604 15.2951 27.013C14.2336 26.3656 13.3747 25.4339 12.8156 24.3234C12.4495 23.5804 12.2381 22.7707 12.1943 21.9435C12.1505 21.1163 12.2751 20.2888 12.5606 19.5113C12.859 18.696 13.3198 17.9499 13.9151 17.318C14.5104 16.6861 15.2277 16.1817 16.0237 15.8353L17.7394 15.0694C17.9615 14.9701 18.2135 14.9611 18.4421 15.0442C18.6707 15.1273 18.8581 15.296 18.9647 15.5147L23.7656 25.3659C23.8207 25.479 23.8524 25.602 23.8589 25.7276C23.8654 25.8532 23.8466 25.9789 23.8036 26.097C23.7605 26.2152 23.6942 26.3235 23.6084 26.4155C23.5226 26.5075 23.4192 26.5813 23.3044 26.6325L21.5887 27.3975C20.7179 27.7861 19.7749 27.9867 18.8212 27.9863ZM17.6756 17.1506L16.7878 17.5472C16.2221 17.792 15.7118 18.149 15.288 18.5966C14.8642 19.0443 14.5357 19.5733 14.3222 20.1516C14.1237 20.6931 14.0372 21.2693 14.068 21.8452C14.0988 22.4212 14.2462 22.9849 14.5012 23.5022C15.074 24.608 16.0498 25.4515 17.2269 25.8582C18.404 26.265 19.6923 26.2038 20.8256 25.6875L21.6562 25.3125L17.6756 17.1506Z" fill="#004A90"/>
<path d="M41.7806 17.3897L41.0175 15.6778C41.3042 15.5447 41.5608 15.3545 41.7714 15.1188C41.9821 14.8831 42.1425 14.607 42.2428 14.3072C42.4015 13.8152 42.4607 13.2966 42.4169 12.7815C42.3732 12.2665 42.2273 11.7653 41.9878 11.3072C41.1047 9.49405 39.2184 8.54061 37.7803 9.17905L37.0162 7.46717C39.36 6.41717 42.3515 7.7728 43.6725 10.4859C44.0217 11.17 44.2309 11.9169 44.2877 12.6829C44.3446 13.4488 44.2479 14.2184 44.0034 14.9466C43.8175 15.483 43.5246 15.9761 43.1426 16.3961C42.7605 16.816 42.2972 17.154 41.7806 17.3897Z" fill="#004A90"/>
<path d="M25.2188 37.5C24.6868 37.5037 24.1643 37.3586 23.7106 37.0809C23.2568 36.8032 22.8897 36.4041 22.651 35.9287L18.6506 27.72L20.3381 26.8987L24.3394 35.1075C24.4583 35.3311 24.6586 35.5005 24.8989 35.5806C25.1392 35.6607 25.401 35.6454 25.6303 35.5378C25.7423 35.4903 25.8434 35.4205 25.9276 35.3327C26.0117 35.2448 26.0771 35.1408 26.1197 35.0269C26.1573 34.9251 26.1736 34.8167 26.1678 34.7084C26.162 34.6 26.1342 34.494 26.086 34.3969L22.0847 26.189L23.7722 25.3678L27.7735 33.5756C27.9324 33.8988 28.0242 34.2509 28.0432 34.6105C28.0622 34.9702 28.0081 35.33 27.8841 35.6681C27.7562 36.0188 27.5584 36.3398 27.3026 36.6117C27.0468 36.8836 26.7385 37.1006 26.3963 37.2497C26.0259 37.4156 25.6246 37.5009 25.2188 37.5Z" fill="#004A90"/>
<path d="M43.5863 8.56531L50.1468 4.81648L51.0768 6.44398L44.5163 10.1928L43.5863 8.56531Z" fill="#004A90"/>
<path d="M41.4821 5.96191L46.3048 0.339148L47.728 1.55977L42.9053 7.18254L41.4821 5.96191Z" fill="#004A90"/>
<path d="M45 11.25H50.625V13.125H45V11.25Z" fill="#004A90"/>
</g>
<defs>
<clipPath id="clip0">
<rect width="60" height="60" fill="white"/>
</clipPath>
</defs>
</svg>
