<svg width="18" height="18" viewBox="0 0 18 18" fill="none" xmlns="http://www.w3.org/2000/svg">
<path d="M5.53711 4.74609H12.4629V5.80078H5.53711V4.74609Z" fill="white"/>
<path d="M5.53711 6.85547H12.4629V7.91016H5.53711V6.85547Z" fill="white"/>
<path d="M5.53711 2.63672H12.4629V3.69141H5.53711V2.63672Z" fill="white"/>
<path d="M15.3633 4.74609V0H2.63672V4.74609H0V18H18V4.74609H15.3633ZM5.88118 11.373L1.05469 16.1995V6.54655L5.88118 11.373ZM6.63785 12.1079C7.31964 12.6765 8.15973 12.9611 9 12.9611C9.84027 12.9611 10.6804 12.6765 11.3621 12.1079L16.1995 16.9453H1.80046L6.63785 12.1079ZM12.1188 11.373L16.9453 6.54655V16.1995L12.1188 11.373ZM16.1995 5.80078L15.3633 6.63704V5.80078H16.1995ZM14.3086 1.05469V7.69173L10.8644 11.1359C9.8364 12.1639 8.1636 12.1639 7.13556 11.1359L3.69141 7.69173V1.05469H14.3086ZM2.63672 6.63704L1.80046 5.80078H2.63672V6.63704Z" fill="white"/>
</svg>
