<svg width="80" height="66" viewBox="0 0 80 66" fill="none" xmlns="http://www.w3.org/2000/svg">
<path d="M32.9701 23.9593C33.1285 24.0321 33.2949 24.0666 33.4585 24.0666C33.9023 24.0666 34.3268 23.8133 34.5241 23.3837C36.4707 19.1466 39.5929 15.5952 43.5532 13.1134C44.1016 12.7696 44.2676 12.0465 43.9238 11.498C43.5801 10.9494 42.8569 10.7837 42.3085 11.1273C37.9604 13.8523 34.5321 17.7521 32.3943 22.4052C32.1243 22.9932 32.3819 23.689 32.9701 23.9593Z" fill="white"/>
<path d="M79.8928 22.4052C77.755 17.7521 74.3267 13.8521 69.9786 11.1273C69.4303 10.7837 68.7069 10.9494 68.3634 11.498C68.0197 12.0465 68.1856 12.7696 68.734 13.1134C72.6944 15.5951 75.8165 19.1465 77.7631 23.3837C77.9606 23.8133 78.385 24.0666 78.8287 24.0666C78.9923 24.0666 79.1587 24.0321 79.3172 23.9593C79.9051 23.689 80.1628 22.9932 79.8928 22.4052Z" fill="white"/>
<path d="M42.5504 17.5741C40.7679 19.1189 39.2706 20.9385 38.1003 22.9825C37.7787 23.5442 37.9733 24.2602 38.535 24.5817C38.7186 24.6869 38.9187 24.7367 39.1162 24.7367C39.5226 24.7367 39.9178 24.525 40.1344 24.1471C41.1733 22.3325 42.5026 20.7169 44.0854 19.3453C44.5745 18.9214 44.6275 18.1814 44.2036 17.6922C43.7797 17.2033 43.0395 17.1502 42.5504 17.5741Z" fill="white"/>
<path d="M68.2029 19.348C69.786 20.7166 71.1148 22.331 72.1524 24.1463C72.3687 24.5249 72.7642 24.7367 73.1709 24.7367C73.3681 24.7367 73.5679 24.687 73.7513 24.5822C74.3132 24.261 74.5084 23.545 74.1873 22.9833C73.0178 20.937 71.5199 19.1175 69.7357 17.575C69.246 17.1519 68.506 17.2058 68.0828 17.6952C67.6595 18.1847 67.7132 18.9247 68.2029 19.348Z" fill="white"/>
<path d="M74.4513 43.1934H71.7622V33.2761C71.7622 26.4898 67.4111 20.7014 61.3525 18.5515L62.4242 7.10574C62.577 5.47121 62.0305 3.83762 60.925 2.62402C59.8192 1.41012 58.2433 0.713867 56.6013 0.713867H55.6856C54.0436 0.713867 52.4677 1.40996 51.3619 2.62402C50.2563 3.83777 49.7098 5.47121 49.8625 7.1059L50.9344 18.5548C49.1414 19.189 47.4647 20.1465 45.9992 21.3995C45.5073 21.82 45.4494 22.5598 45.87 23.0517C46.2906 23.5432 47.0303 23.6017 47.5222 23.1807C49.9209 21.1301 52.9825 20.0009 56.1433 20.0009C63.4631 20.0009 69.4183 25.9561 69.4183 33.2761V43.1934H45.7119V35.3531C45.7119 34.6403 45.4527 33.9876 45.0248 33.4817C45.0003 33.452 44.9747 33.4237 44.948 33.397C44.435 32.8364 43.7069 32.4779 42.8945 32.454C43.0111 30.5798 43.5239 28.7395 44.3958 27.087C44.6978 26.5145 44.4786 25.8057 43.9061 25.5036C43.3338 25.2015 42.6248 25.4209 42.3228 25.9932C41.2745 27.9801 40.6681 30.1965 40.5483 32.4497H2.90328C2.05656 32.4497 1.29578 32.8162 0.764688 33.3964C0.737656 33.4232 0.711719 33.4517 0.687031 33.4818C0.259219 33.9878 0 34.6404 0 35.3531V62.3825C0 63.9834 1.30234 65.2858 2.90328 65.2858H12.8389C13.4861 65.2858 14.0108 64.7612 14.0108 64.1139C14.0108 63.4665 13.4861 62.942 12.8389 62.942H2.90328C2.59469 62.942 2.34375 62.6911 2.34375 62.3825V36.2126L14.0052 44.5986L9.49656 51.9608C9.15859 52.5126 9.33203 53.234 9.88391 53.572C10.0748 53.689 10.2863 53.7447 10.4948 53.7447C10.8892 53.7447 11.2744 53.5456 11.4953 53.1847L15.9131 45.9706L22.1717 50.4712C22.3761 50.6181 22.6161 50.6917 22.8559 50.6917C23.0958 50.6917 23.3358 50.6181 23.5402 50.4712L29.7984 45.9707L34.2163 53.1847C34.4373 53.5457 34.8223 53.7447 35.2167 53.7447C35.4253 53.7447 35.6366 53.689 35.8277 53.572C36.3795 53.234 36.553 52.5126 36.215 51.9608L31.7066 44.5987L43.3681 36.2126V62.3825C43.3681 62.6911 43.1172 62.942 42.8086 62.942H18.3077C17.6605 62.942 17.1358 63.4665 17.1358 64.1139C17.1358 64.7612 17.6605 65.2858 18.3077 65.2858H42.8086C44.4095 65.2858 45.7119 63.9834 45.7119 62.3825V53.6887H48.9422C49.5048 57.1565 52.5192 59.8131 56.1436 59.8131C59.768 59.8131 62.7823 57.1565 63.345 53.6887H65.6905C66.3377 53.6887 66.8624 53.1642 66.8624 52.5168C66.8624 51.8695 66.3377 51.345 65.6905 51.345C62.2099 51.345 47.83 51.345 45.7119 51.345V45.5372H70.5784C70.5825 45.5372 70.5864 45.5378 70.5905 45.5378C70.5945 45.5378 70.5984 45.5372 70.6025 45.5372H73.8794V51.345H71.1591C70.5119 51.345 69.9872 51.8695 69.9872 52.5168C69.9872 53.1642 70.5119 53.6887 71.1591 53.6887H74.4513C75.4283 53.6887 76.2231 52.8939 76.2231 51.9168V44.9653C76.2231 43.9882 75.4283 43.1934 74.4513 43.1934ZM53.2305 17.934L52.1963 6.88762C52.1034 5.89387 52.4225 4.93996 53.0947 4.20215C53.767 3.46402 54.6872 3.05762 55.6858 3.05762H56.6014C57.6 3.05762 58.5202 3.46418 59.1923 4.20215C59.8645 4.94027 60.1836 5.89387 60.0908 6.8873L59.0567 17.9306C58.1125 17.7517 57.1389 17.657 56.1436 17.657C55.1602 17.6572 54.1855 17.7528 53.2305 17.934ZM56.1434 57.4693C53.8163 57.4693 51.8599 55.8556 51.3317 53.6887H60.955C60.427 55.8556 58.4708 57.4693 56.1434 57.4693ZM22.8559 48.0765C20.7628 46.5714 5.79922 35.8107 4.38484 34.7937H41.327C39.912 35.8112 24.9767 46.5514 22.8559 48.0765Z" fill="white"/>
</svg>
