<svg width="56" height="47" viewBox="0 0 56 47" fill="none" xmlns="http://www.w3.org/2000/svg">
<path opacity="0.2" d="M10.0399 0.319946C4.43994 0.319946 0.439941 4.63995 0.439941 9.59995C0.439941 18.0799 7.15994 19.5199 8.59994 20.3199C9.87994 20.9599 10.9999 22.88 10.9999 24.96C10.9999 32.7999 4.75994 41.1199 2.51994 42.7199C1.71994 43.3599 0.919941 44.32 0.919941 45.1199C0.919941 45.9199 1.55994 46.3999 2.51994 46.3999C3.63994 46.3999 5.23994 45.76 6.99994 44.7999C9.39994 43.52 24.9199 33.28 24.9199 16.4799C24.9199 5.91995 17.3999 0.319946 10.0399 0.319946ZM40.2799 0.319946C34.6799 0.319946 30.6799 4.63995 30.6799 9.59995C30.6799 18.0799 37.3999 19.5199 38.8399 20.3199C40.1199 20.9599 41.2399 22.88 41.2399 24.96C41.2399 32.7999 34.9999 41.1199 32.7599 42.7199C31.9599 43.3599 31.1599 44.32 31.1599 45.1199C31.1599 45.9199 31.7999 46.3999 32.7599 46.3999C33.8799 46.3999 35.4799 45.76 37.2399 44.7999C39.6399 43.52 55.1599 33.28 55.1599 16.4799C55.1599 5.91995 47.6399 0.319946 40.2799 0.319946Z" fill="#88C0F5"/>
</svg>
