<svg xmlns="http://www.w3.org/2000/svg" xmlns:xlink="http://www.w3.org/1999/xlink" width="20" height="20" viewBox="0 0 20 20">
  <defs>
    <clipPath id="clip-path">
      <rect id="Rectangle_1" data-name="Rectangle 1" width="20" height="20" fill="#438cd1"/>
    </clipPath>
  </defs>
  <g id="phone-icon" clip-path="url(#clip-path)">
    <path id="Path_9" data-name="Path 9" d="M11.384,0a.391.391,0,0,0,0,.781,7.843,7.843,0,0,1,7.834,7.834.391.391,0,0,0,.781,0A8.625,8.625,0,0,0,11.384,0Z" fill="#438cd1"/>
    <path id="Path_10" data-name="Path 10" d="M17.26,9.006a.391.391,0,0,0,.391-.391A6.273,6.273,0,0,0,11.384,2.35a.391.391,0,0,0,0,.781,5.491,5.491,0,0,1,5.484,5.485A.391.391,0,0,0,17.26,9.006Z" fill="#438cd1"/>
    <path id="Path_11" data-name="Path 11" d="M14.519,8.616a.391.391,0,1,0,.781,0A3.92,3.92,0,0,0,11.384,4.7a.391.391,0,1,0,0,.781,3.138,3.138,0,0,1,3.135,3.135Z" fill="#438cd1"/>
    <path id="Path_12" data-name="Path 12" d="M10.994,7.441a.391.391,0,0,0,.391.39.785.785,0,0,1,.784.784.391.391,0,0,0,.781,0A1.567,1.567,0,0,0,11.384,7.05a.391.391,0,0,0-.39.391Z" fill="#438cd1"/>
    <path id="Path_13" data-name="Path 13" d="M7.322,12.683a.391.391,0,1,1-.391-.391A.391.391,0,0,1,7.322,12.683Z" fill="#438cd1"/>
    <path id="Path_14" data-name="Path 14" d="M10.7,19.526a4.644,4.644,0,0,0,5.325-.9l.808-.808a1.121,1.121,0,0,0,0-1.586l-3.121-3.12a1.12,1.12,0,0,0-1.586,0L10.8,14.44a.773.773,0,0,1-.953.126,14.644,14.644,0,0,1-1.378-1,.391.391,0,0,0-.5.6,15.416,15.416,0,0,0,1.452,1.052,1.558,1.558,0,0,0,1.926-.232l1.326-1.326a.339.339,0,0,1,.481,0l3.121,3.121a.34.34,0,0,1,0,.481l-.808.808a3.862,3.862,0,0,1-4.429.749A21.646,21.646,0,0,1,1.173,8.9a3.834,3.834,0,0,1,.75-4.412l.79-.79a.339.339,0,0,1,.48,0L6.315,6.817a.339.339,0,0,1,0,.481L4.989,8.624a1.558,1.558,0,0,0-.232,1.926c.225.353.468.7.722,1.034A.391.391,0,0,0,6.1,11.11c-.241-.316-.471-.646-.685-.981a.773.773,0,0,1,.126-.953L6.867,7.85a1.12,1.12,0,0,0,0-1.586L3.746,3.144a1.12,1.12,0,0,0-1.586,0l-.79.79a4.614,4.614,0,0,0-.9,5.311A22.42,22.42,0,0,0,10.7,19.526Z" fill="#438cd1"/>
  </g>
</svg>
