<svg width="20" height="20" viewBox="0 0 20 20" fill="none" xmlns="http://www.w3.org/2000/svg">
<g clip-path="url(#clip0)">
<path d="M11.3848 0C11.169 0 10.9941 0.174866 10.9941 0.390625C10.9941 0.606384 11.169 0.78125 11.3848 0.78125C15.7047 0.78125 19.2191 4.29581 19.2191 8.61557C19.2191 8.83133 19.3941 9.0062 19.6097 9.0062C19.8255 9.0062 20.0003 8.83133 20.0003 8.61557C20.0003 3.86505 16.1354 0 11.3848 0Z" fill="#004A90"/>
<path d="M17.2599 9.00635C17.4756 9.00635 17.6505 8.83133 17.6505 8.61572C17.6505 5.16068 14.8397 2.34985 11.3848 2.34985C11.169 2.34985 10.9941 2.52487 10.9941 2.74048C10.9941 2.95624 11.169 3.1311 11.3848 3.1311C14.4089 3.1311 16.8692 5.59143 16.8692 8.61572C16.8692 8.83133 17.0441 9.00635 17.2599 9.00635Z" fill="#004A90"/>
<path d="M14.5189 8.6156C14.5189 8.83121 14.6938 9.00623 14.9095 9.00623C15.1253 9.00623 15.3002 8.83121 15.3002 8.6156C15.3002 6.45663 13.5437 4.7002 11.3848 4.7002C11.169 4.7002 10.9941 4.87506 10.9941 5.09067C10.9941 5.30643 11.169 5.48129 11.3848 5.48129C13.113 5.48129 14.5189 6.88724 14.5189 8.6156Z" fill="#004A90"/>
<path d="M10.9941 7.44092C10.9941 7.65652 11.169 7.83139 11.3848 7.83139C11.8172 7.83139 12.1691 8.18326 12.1691 8.61584C12.1691 8.83145 12.3439 9.00647 12.5597 9.00647C12.7753 9.00647 12.9503 8.83145 12.9503 8.61584C12.9503 7.7525 12.248 7.05029 11.3848 7.05029C11.169 7.05029 10.9941 7.22516 10.9941 7.44092Z" fill="#004A90"/>
<path d="M7.32129 12.6829C7.32129 12.8986 7.14642 13.0735 6.93066 13.0735C6.7149 13.0735 6.54004 12.8986 6.54004 12.6829C6.54004 12.4673 6.7149 12.2922 6.93066 12.2922C7.14642 12.2922 7.32129 12.4673 7.32129 12.6829Z" fill="#004A90"/>
<path d="M10.7044 19.5257C12.4831 20.3975 14.623 20.0348 16.0296 18.6282L16.8372 17.8206C17.2757 17.3825 17.2759 16.6728 16.8374 16.2344L13.7166 13.114C13.2789 12.6756 12.569 12.675 12.1308 13.1138L10.8048 14.44C10.5451 14.6997 10.1442 14.7526 9.85188 14.566C9.3752 14.2613 8.91148 13.9253 8.47371 13.5673C8.30662 13.4308 8.06065 13.4555 7.92409 13.6224C7.78752 13.7895 7.81224 14.0356 7.97917 14.172C8.44044 14.5492 8.92888 14.9032 9.43135 15.2243C10.0303 15.6068 10.8402 15.5093 11.3572 14.9923L12.6835 13.666C12.8161 13.5333 13.0309 13.533 13.1641 13.6662L16.285 16.7868C16.4179 16.9198 16.4182 17.135 16.285 17.2679L15.4772 18.0758C14.3055 19.2476 12.5257 19.5483 11.0482 18.8243C5.63542 16.17 2.69047 11.9613 1.17314 8.89798C0.447278 7.43298 0.74864 5.65991 1.92311 4.48574L2.71321 3.6958C2.84565 3.56305 3.06065 3.56259 3.19371 3.69595L6.31489 6.81698C6.44704 6.94897 6.44841 7.16412 6.31459 7.29763L4.9886 8.62378C4.47163 9.14074 4.37413 9.95068 4.75667 10.5497C4.98204 10.9024 5.22496 11.2503 5.47886 11.5837C5.60948 11.7553 5.85454 11.7884 6.0262 11.6578C6.19786 11.5272 6.23112 11.2822 6.10036 11.1103C5.85957 10.794 5.62886 10.4638 5.41493 10.1292C5.22832 9.8367 5.28126 9.43585 5.54097 9.17614L6.8668 7.85031C7.30519 7.41253 7.30565 6.70254 6.86711 6.26446L3.74623 3.14373C3.30861 2.70535 2.59862 2.70474 2.16054 3.14358L1.37074 3.93338C-0.0410028 5.34466 -0.401721 7.47921 0.473066 9.24481C2.04426 12.4167 5.0945 16.7749 10.7044 19.5257Z" fill="#004A90"/>
</g>
<defs>
<clipPath id="clip0">
<rect width="20" height="20" fill="white"/>
</clipPath>
</defs>
</svg>
