<svg width="46" height="46" viewBox="0 0 46 46" fill="none" xmlns="http://www.w3.org/2000/svg">
<path d="M34.5 15.3334C37.6756 15.3334 40.25 12.759 40.25 9.58337C40.25 6.40774 37.6756 3.83337 34.5 3.83337C31.3244 3.83337 28.75 6.40774 28.75 9.58337C28.75 12.759 31.3244 15.3334 34.5 15.3334Z" stroke="#438CD1" stroke-width="2" stroke-linecap="round" stroke-linejoin="round"/>
<path d="M11.5 28.75C14.6756 28.75 17.25 26.1756 17.25 23C17.25 19.8244 14.6756 17.25 11.5 17.25C8.32436 17.25 5.75 19.8244 5.75 23C5.75 26.1756 8.32436 28.75 11.5 28.75Z" stroke="#438CD1" stroke-width="2" stroke-linecap="round" stroke-linejoin="round"/>
<path d="M34.5 42.1666C37.6756 42.1666 40.25 39.5923 40.25 36.4166C40.25 33.241 37.6756 30.6666 34.5 30.6666C31.3244 30.6666 28.75 33.241 28.75 36.4166C28.75 39.5923 31.3244 42.1666 34.5 42.1666Z" stroke="#438CD1" stroke-width="2" stroke-linecap="round" stroke-linejoin="round"/>
<path d="M16.4639 25.8942L29.5547 33.5225" stroke="#438CD1" stroke-width="2" stroke-linecap="round" stroke-linejoin="round"/>
<path d="M29.5355 12.4775L16.4639 20.1059" stroke="#438CD1" stroke-width="2" stroke-linecap="round" stroke-linejoin="round"/>
</svg>
