<svg xmlns="http://www.w3.org/2000/svg" width="20" height="20" viewBox="0 0 20 20">
  <path id="twitter" d="M0,0V20H20V0ZM15.505,7.176q.008.183.008.367A8.079,8.079,0,0,1,3.077,14.35a5.732,5.732,0,0,0,4.206-1.176A2.843,2.843,0,0,1,4.629,11.2a2.841,2.841,0,0,0,1.283-.049A2.843,2.843,0,0,1,3.633,8.367c0-.012,0-.024,0-.036a2.829,2.829,0,0,0,1.287.355,2.844,2.844,0,0,1-.879-3.793A8.065,8.065,0,0,0,9.9,7.862a2.842,2.842,0,0,1,4.841-2.591,5.685,5.685,0,0,0,1.8-.689,2.848,2.848,0,0,1-1.249,1.572,5.681,5.681,0,0,0,1.632-.447A5.768,5.768,0,0,1,15.505,7.176Z" fill="#004a90" fill-rule="evenodd"/>
</svg>
