<svg width="81" height="30" viewBox="0 0 81 30" fill="none" xmlns="http://www.w3.org/2000/svg">
<g clip-path="url(#clip0)">
<path d="M24.2948 17.9727C24.2948 20.4883 22.2823 22.53 19.8026 22.53C19.0479 22.53 18.2932 22.3386 17.6374 21.9649L12.5162 19.1029C11.7256 18.6563 10.8272 18.4284 9.91975 18.4284C6.94591 18.4284 4.5291 20.8802 4.5291 23.8972C4.51113 24.5443 4.61895 25.1732 4.82559 25.7565C2.89394 23.9245 1.48338 21.5912 0.746662 18.9388C-0.313499 15.1289 0.15369 11.1276 2.0494 7.6732C4.63691 2.97007 9.54241 0.0534058 14.8522 0.0534058C17.3049 0.0534058 19.7487 0.691426 21.9139 1.90367C21.9499 1.92189 21.9768 1.94012 22.0038 1.94924L22.0307 1.96747C23.4143 2.77867 24.2858 4.29169 24.2858 5.9232C24.2858 8.43882 22.2733 10.4805 19.7936 10.4805C19.0389 10.4805 18.2842 10.2891 17.6284 9.91538L12.5073 7.0534C11.7166 6.60679 10.8182 6.37893 9.91077 6.37893C6.93693 6.37893 4.52012 8.83075 4.52012 11.8477C4.52012 14.8646 6.93693 17.3164 9.91077 17.3164C10.7643 17.3164 11.6178 17.1068 12.3725 16.7149L17.7542 13.9167C18.3921 13.5886 19.0839 13.4154 19.8026 13.4154C22.2823 13.4154 24.2948 15.4571 24.2948 17.9727Z" fill="#F3F8FF"/>
<path d="M27.6281 22.1563C25.0496 26.8503 20.1441 29.776 14.8433 29.7669C12.3816 29.7669 9.9468 29.1289 7.78155 27.9167C7.7546 27.8984 7.72765 27.8893 7.70069 27.8711L7.67374 27.8529C6.28116 27.0417 5.41865 25.5286 5.41865 23.8971C5.41865 21.3815 7.43116 19.3399 9.91086 19.3399C10.6656 19.3399 11.4202 19.5404 12.0761 19.905L17.1972 22.7669C17.9879 23.2044 18.8863 23.4414 19.7937 23.4414C22.7676 23.4414 25.1844 20.9896 25.1844 17.9727C25.1844 14.9557 22.7676 12.5039 19.7937 12.5039C18.9402 12.5039 18.0867 12.7136 17.332 13.1055L11.9503 15.9037C11.3124 16.2409 10.6206 16.405 9.90188 16.405C7.42218 16.405 5.40967 14.3633 5.40967 11.8477C5.40967 9.33205 7.42218 7.29038 9.90188 7.29038C10.6566 7.29038 11.4113 7.4909 12.0671 7.85549L17.1882 10.7175C17.9789 11.155 18.8773 11.3919 19.7847 11.3919C22.7586 11.3919 25.1754 8.94012 25.1754 5.9232C25.1754 5.28518 25.0586 4.65627 24.8519 4.07294C26.7836 5.90497 28.1941 8.24741 28.9309 10.8906C29.991 14.7005 29.5328 18.7018 27.6281 22.1563Z" fill="#F3F8FF"/>
<path d="M37.1426 6.2878V8.31124H41.8774V10.6172H37.1426V14.4636H34.7797V3.98181H42.8477V6.2878H37.1426Z" fill="#F3F8FF"/>
<path d="M51.5985 6.97137V14.4544H49.3883V13.7526C48.993 14.3086 48.2563 14.6641 47.277 14.6641C45.7856 14.6641 44.5188 13.5886 44.5188 11.5651V6.97137H46.729V11.237C46.729 12.1667 47.304 12.5951 48.0137 12.5951C48.8223 12.5951 49.3883 12.112 49.3883 11.0547V6.97137H51.5985Z" fill="#F3F8FF"/>
<path d="M56.5668 9.13151V11.7839C56.5668 12.431 57.1149 12.4857 58.0852 12.431V14.4635C55.1922 14.7643 54.3566 13.8802 54.3566 11.7839V9.13151H53.1797V6.97135H54.3566V5.54948L56.5668 4.875V6.97135H58.0852V9.1224H56.5668V9.13151Z" fill="#F3F8FF"/>
<path d="M66.4676 6.97137V14.4544H64.2575V13.7526C63.8622 14.3086 63.1254 14.6641 62.1461 14.6641C60.6547 14.6641 59.3879 13.5886 59.3879 11.5651V6.97137H61.5981V11.237C61.5981 12.1667 62.1731 12.5951 62.8829 12.5951C63.6915 12.5951 64.2575 12.112 64.2575 11.0547V6.97137H66.4676Z" fill="#F3F8FF"/>
<path d="M72.5142 6.82556V9.36853C71.5978 9.2227 70.304 9.5964 70.304 11.073V14.4545H68.0939V6.9714H70.304V8.30213C70.5915 7.29952 71.5798 6.82556 72.5142 6.82556Z" fill="#F3F8FF"/>
<path d="M77.0692 12.6589C77.6712 12.6589 78.1923 12.4219 78.4887 12.0938L80.2587 13.1237C79.5399 14.1446 78.4438 14.6641 77.0422 14.6641C74.5176 14.6641 72.9543 12.9414 72.9543 10.7175C72.9543 8.49353 74.5446 6.77087 76.8805 6.77087C79.0368 6.77087 80.627 8.46619 80.627 10.7175C80.627 11.0274 80.6001 11.3282 80.5372 11.6198H75.2993C75.5778 12.3946 76.2606 12.6589 77.0692 12.6589ZM78.4259 9.93363C78.1923 9.06775 77.5274 8.74874 76.8626 8.74874C76.018 8.74874 75.461 9.16801 75.2544 9.93363H78.4259Z" fill="#F3F8FF"/>
<path d="M42.8926 15.9492V26.4219H41.1227L37.1426 20.7344V26.4219H34.7797V15.9492H36.5496L40.5297 21.6367V15.9492H42.8926Z" fill="#F3F8FF"/>
<path d="M52.1555 18.948V26.431H49.9454V25.7292C49.4602 26.2943 48.7325 26.6406 47.7442 26.6406C45.8125 26.6406 44.2223 24.918 44.2223 22.694C44.2223 20.4701 45.8125 18.7474 47.7442 18.7474C48.7325 18.7474 49.4512 19.0938 49.9454 19.6589V18.9571H52.1555V18.948ZM49.9454 22.6849C49.9454 21.5638 49.2086 20.862 48.1934 20.862C47.1782 20.862 46.4414 21.5638 46.4414 22.6849C46.4414 23.806 47.1782 24.5078 48.1934 24.5078C49.2086 24.5078 49.9454 23.806 49.9454 22.6849Z" fill="#F3F8FF"/>
<path d="M56.5849 21.099V23.7514C56.5849 24.3985 57.133 24.4532 58.1033 24.3985V26.4311C55.2103 26.7318 54.3747 25.8477 54.3747 23.7514V21.099H53.1978V18.948H54.3747V17.5261L56.5849 16.8516V18.948H58.1033V21.099H56.5849Z" fill="#F3F8FF"/>
<path d="M66.4857 18.948V26.4311H64.2756V25.7293C63.8802 26.2852 63.1435 26.6407 62.1642 26.6407C60.6728 26.6407 59.406 25.5652 59.406 23.5418V18.948H61.6162V23.2136C61.6162 24.1433 62.1912 24.5717 62.9009 24.5717C63.7095 24.5717 64.2756 24.0886 64.2756 23.0313V18.948H66.4857Z" fill="#F3F8FF"/>
<path d="M72.5322 18.793V21.3359C71.6158 21.1901 70.3221 21.5638 70.3221 23.0404V26.4219H68.1119V18.9388H70.3221V20.2786C70.6096 19.276 71.5979 18.793 72.5322 18.793Z" fill="#F3F8FF"/>
<path d="M77.0873 24.6354C77.6892 24.6354 78.2103 24.3985 78.5068 24.0703L80.2768 25.1003C79.558 26.1211 78.4619 26.6406 77.0603 26.6406C74.5357 26.6406 72.9724 24.918 72.9724 22.694C72.9724 20.4701 74.5627 18.7474 76.8986 18.7474C79.0549 18.7474 80.6451 20.4427 80.6451 22.694C80.6451 23.0039 80.6182 23.3047 80.5553 23.5964H75.3173C75.5959 24.362 76.2787 24.6354 77.0873 24.6354ZM78.4439 21.9102C78.2103 21.0443 77.5455 20.7253 76.8806 20.7253C76.0361 20.7253 75.4791 21.1446 75.2724 21.9102H78.4439Z" fill="#F3F8FF"/>
</g>
<defs>
<clipPath id="clip0">
<rect width="81.0004" height="30" fill="white" transform="translate(-0.000488281)"/>
</clipPath>
</defs>
</svg>
