<svg width="214" height="28" viewBox="0 0 214 28" fill="none" xmlns="http://www.w3.org/2000/svg">
<path d="M1.27369 18.972C1.12969 18.972 1.02169 18.972 0.985688 19.224L0.409688 26.064C0.373688 26.46 0.517688 26.64 0.913688 26.64C1.16569 26.64 1.34569 26.604 1.56169 26.208C1.77769 25.848 1.92169 25.596 2.13769 25.596C2.31769 25.596 2.53369 25.704 2.96569 25.992C4.47769 27 6.16969 27.54 9.40969 27.54C14.1617 27.54 17.2937 23.976 17.2937 19.584C17.2937 17.064 16.7177 15.48 15.3137 14.22C13.8377 12.888 12.4337 11.988 10.7057 11.484C8.94169 10.98 6.88969 10.116 5.95369 9.14402C5.05369 8.24402 5.01769 7.16402 5.01769 5.83202C5.01769 4.89602 6.13369 2.55602 8.83369 2.55602C10.4537 2.55602 11.5337 3.06002 12.4337 4.06802C13.6577 5.36402 14.2697 6.76802 14.6657 7.81202C14.7737 8.06402 14.9537 8.13602 15.1337 8.06402L15.9257 7.81202C16.0337 7.77602 16.1057 7.74002 16.1057 7.59602L15.5297 1.44002C15.4937 1.22402 15.4217 0.828017 15.1697 0.828017C14.9537 0.828017 14.7737 0.900019 14.6297 1.04402L14.1617 1.51202C13.9457 1.76402 13.6937 1.83602 13.3337 1.69202C12.5777 1.40402 11.1737 0.972018 8.54569 0.972018C6.34969 0.972018 4.98169 1.47602 3.36169 2.70002C1.20169 4.32002 0.661688 5.79602 0.661688 7.99202C0.661688 10.08 1.20169 11.988 2.46169 13.104C4.29769 14.688 6.60169 15.84 7.68169 16.236C12.3617 18 12.9377 18.864 12.9377 21.852C12.9377 24.696 10.1657 25.848 8.43769 25.848C6.70969 25.848 4.94569 25.056 3.90169 23.4C3.03769 21.996 2.53369 20.448 2.46169 19.332C2.46169 19.08 2.35369 19.044 2.20969 19.044L1.27369 18.972Z" fill="#333333"/>
<path d="M28.7369 11.376C26.7929 11.376 25.0289 12.024 23.4089 13.5C21.5009 15.264 20.7089 17.892 20.7089 20.34C20.7089 22.176 21.1409 23.58 22.5449 25.308C23.6969 26.748 25.4969 27.504 28.1969 27.504C31.5089 27.504 34.3169 25.776 35.0009 24.588C35.1089 24.408 35.1449 24.264 35.0369 24.12L34.5329 23.616C34.4249 23.472 34.3169 23.544 34.1369 23.652C32.9849 24.48 32.1929 24.804 30.5369 24.804C28.9169 24.804 27.5849 24.336 26.6849 22.716C25.4609 20.484 25.5329 18.864 25.5329 16.596C25.5329 14.328 26.9369 12.924 27.9089 12.924C28.9169 12.924 29.6009 13.356 30.0329 14.652C30.3209 15.552 31.1129 16.56 32.6249 16.56C33.7769 16.56 34.4969 15.876 34.4969 14.868C34.4969 13.752 33.4529 11.376 28.7369 11.376Z" fill="#333333"/>
<path d="M44.5606 27.504C47.0086 27.504 49.0966 26.784 50.8246 24.984C52.2286 23.472 53.1286 21.456 53.1286 19.368C53.1286 17.172 52.4086 15.228 50.6446 13.644C49.0246 12.132 47.3326 11.376 44.8486 11.376C43.1566 11.376 41.3206 11.772 39.4846 13.212C37.2886 14.904 36.3886 17.568 36.3886 19.188C36.3886 21.456 36.9286 23.364 38.2966 24.876C40.1326 26.964 41.9326 27.504 44.5606 27.504ZM44.7766 25.992C43.4446 25.992 42.8686 25.416 42.4006 24.444C41.6806 22.896 41.5006 21.528 41.5006 19.44C41.5006 16.524 41.9686 14.976 42.6886 13.86C43.1566 13.14 43.7326 12.888 44.6326 12.888C46.2166 12.888 47.6566 14.94 47.6566 19.116C47.6566 23.076 46.7566 25.992 44.7766 25.992Z" fill="#333333"/>
<path d="M61.7467 18.9C61.7467 17.244 61.7467 15.516 61.8187 14.04H66.0307C66.2467 14.04 66.3187 13.896 66.3547 13.752L66.7147 12.204C66.7867 12.06 66.6787 11.88 66.4627 11.88H61.8907L62.0347 8.06402C62.0347 7.77602 61.8907 7.52402 61.5667 7.52402C61.3867 7.52402 61.1347 7.59602 60.8827 7.88402C59.5507 9.39602 56.5267 12.096 55.3387 12.636C54.7627 12.924 54.5467 13.176 54.5467 13.536C54.5467 13.896 54.7987 14.04 55.1227 14.04H57.1027L57.0667 18.792C57.0667 20.16 56.9947 22.896 56.9947 24.156C56.9947 25.812 58.5427 27.504 60.9907 27.504C63.7987 27.504 65.4187 26.496 66.0307 26.064C66.1747 25.956 66.2827 25.776 66.1747 25.596L65.9227 25.056C65.8147 24.84 65.7067 24.84 65.5987 24.912C65.0227 25.236 64.4827 25.344 63.7267 25.344C62.8627 25.344 61.7467 24.696 61.7467 21.744V18.9Z" fill="#333333"/>
<path d="M74.0162 18.9C74.0162 17.244 74.0162 15.516 74.0882 14.04H78.3002C78.5162 14.04 78.5882 13.896 78.6242 13.752L78.9842 12.204C79.0562 12.06 78.9482 11.88 78.7322 11.88H74.1602L74.3042 8.06402C74.3042 7.77602 74.1602 7.52402 73.8362 7.52402C73.6562 7.52402 73.4042 7.59602 73.1522 7.88402C71.8202 9.39602 68.7962 12.096 67.6082 12.636C67.0322 12.924 66.8162 13.176 66.8162 13.536C66.8162 13.896 67.0682 14.04 67.3922 14.04H69.3722L69.3362 18.792C69.3362 20.16 69.2642 22.896 69.2642 24.156C69.2642 25.812 70.8122 27.504 73.2602 27.504C76.0682 27.504 77.6882 26.496 78.3002 26.064C78.4442 25.956 78.5522 25.776 78.4442 25.596L78.1922 25.056C78.0842 24.84 77.9762 24.84 77.8682 24.912C77.2922 25.236 76.7522 25.344 75.9962 25.344C75.1322 25.344 74.0162 24.696 74.0162 21.744V18.9Z" fill="#333333"/>
<path d="M86.4615 6.08402C86.4615 5.07602 85.5975 3.99602 83.9055 3.99602C82.3935 3.99602 81.2055 5.04002 81.2055 6.19202C81.2055 7.59602 82.2855 8.56802 83.7255 8.53202C85.6695 8.49602 86.4615 7.23602 86.4615 6.08402ZM88.9815 26.748V26.064C88.9815 25.848 88.9095 25.74 88.6215 25.74H87.3255C86.9295 25.74 86.7495 25.488 86.6775 24.804C86.6415 24.408 86.6415 23.112 86.6415 21.708V17.856C86.6415 14.688 86.6415 12.42 86.7135 11.808C86.7495 11.556 86.6415 11.376 86.3535 11.376C86.1015 11.376 85.7775 11.448 85.3815 11.592L80.0175 13.32C79.6935 13.428 79.6215 13.5 79.6215 13.608V14.004C79.6215 14.22 79.6575 14.364 80.0535 14.508C81.5655 15.048 81.7815 15.768 81.7815 16.776L81.8535 21.816C81.8535 22.824 81.8535 23.94 81.7815 25.02C81.7455 25.596 81.4935 25.74 81.0975 25.74H79.7655C79.5135 25.74 79.4055 25.812 79.4055 26.028V26.748C79.4055 27.036 79.5135 27.108 79.6935 27.108C80.0895 27.108 81.4935 27 83.5815 27C86.7135 27 88.3695 27.108 88.6575 27.108C88.9095 27.108 88.9815 27 88.9815 26.748Z" fill="#333333"/>
<path d="M101.187 12.816C101.151 12.564 101.079 12.384 100.539 12.132C99.8909 11.808 98.7029 11.376 96.7589 11.376C95.2469 11.376 94.2389 11.628 92.7989 12.672C91.4309 13.68 90.9269 15.084 90.9269 16.776C90.9269 19.368 92.7629 20.592 95.3189 21.348C97.6589 22.068 98.7029 22.536 98.7029 23.976C98.7029 25.236 97.9109 26.172 96.5789 26.172C94.9229 26.172 94.0949 25.272 93.4469 24.336L92.0069 22.212C91.9349 22.068 91.8629 22.032 91.7549 22.068L91.1069 22.248C90.9629 22.284 90.8549 22.356 90.8549 22.536L91.3229 25.992C91.3589 26.208 91.3949 26.352 91.5389 26.46C91.9709 26.784 93.7349 27.504 95.7509 27.504C99.6749 27.504 102.195 25.2 102.195 21.996C102.195 20.736 101.979 19.872 101.043 18.936C99.9629 17.784 99.0989 17.532 97.3349 17.064C94.6709 16.344 94.2389 15.984 94.1669 14.724C94.1669 13.5 95.2109 12.78 96.2909 12.78C97.3709 12.78 98.0549 13.356 98.5229 13.824L100.539 15.984C100.683 16.128 100.791 16.164 100.899 16.092L101.547 15.804C101.691 15.732 101.727 15.66 101.691 15.48L101.187 12.816Z" fill="#333333"/>
<path d="M110.788 16.488C110.788 15.552 111.112 15.084 111.4 14.724C111.94 14.112 112.732 13.464 113.524 13.464C114.28 13.464 114.712 13.644 115.216 14.148C116.152 15.084 116.044 17.604 116.044 19.368V21.564C116.044 22.644 115.972 24.552 115.936 25.056C115.864 25.56 115.396 25.74 115.072 25.74H114.604C114.388 25.74 114.352 25.848 114.352 26.028V26.712C114.352 27 114.424 27.108 114.676 27.108C115 27.108 116.296 27 118.78 27C121.3 27 122.452 27.108 122.704 27.108C122.92 27.108 122.992 26.964 122.992 26.748V25.992C122.992 25.812 122.884 25.74 122.596 25.74H121.912C121.48 25.74 120.76 25.704 120.76 25.2C120.76 24.516 120.832 22.32 120.832 20.52V18.288C120.832 15.984 120.976 14.184 119.284 12.78C118.168 11.844 117.232 11.376 115.612 11.376C113.632 11.376 111.868 12.204 111.004 13.572H110.752V11.412C110.752 9.28802 110.788 1.98002 110.86 1.36802C110.932 0.756018 110.86 0.468018 110.536 0.468018C110.176 0.468018 109.888 0.612018 109.42 0.828017C107.26 1.87202 105.964 2.44802 103.984 3.02402C103.48 3.16802 103.372 3.31202 103.372 3.45602V3.92402C103.372 4.03202 103.444 4.14002 103.66 4.24802L104.308 4.46402C105.532 4.93202 106 5.97602 106 7.77602L106.072 22.752C106.072 23.832 106.072 24.48 105.892 25.128C105.784 25.596 105.244 25.74 104.668 25.74H104.092C103.696 25.74 103.552 25.776 103.552 26.028V26.748C103.552 27 103.66 27.108 103.804 27.108C104.128 27.108 105.496 27 108.016 27C110.14 27 111.796 27.108 112.084 27.108C112.3 27.108 112.336 26.964 112.336 26.712V26.028C112.336 25.812 112.228 25.74 112.048 25.74H111.328C111.004 25.74 110.788 25.344 110.788 24.264V16.488Z" fill="#333333"/>
<path d="M154.376 19.8H154.232C153.836 19.332 148.579 12.744 148.076 12.132C146.995 10.8 139.903 2.12402 139.723 1.90802C139.436 1.58402 139.148 1.44002 138.68 1.44002C138.247 1.44002 137.167 1.51202 135.943 1.51202C134.072 1.51202 132.919 1.47602 132.199 1.44002C131.515 1.44002 131.227 1.40402 131.048 1.40402C130.868 1.40402 130.831 1.47602 130.831 1.62002V2.59202C130.831 2.70002 130.868 2.84402 131.048 2.84402L131.947 2.88002C133.747 2.91602 135.044 4.93202 135.044 7.05602V10.296C135.044 15.624 134.755 21.384 134.719 22.068C134.54 24.48 133.964 25.632 133.171 25.632H131.911C131.732 25.632 131.695 25.74 131.695 25.848V26.784C131.695 27.036 131.732 27.108 131.876 27.108C132.236 27.108 134.719 27 135.835 27C137.527 27 139.688 27.108 140.048 27.108C140.299 27.108 140.335 27.036 140.335 26.82V25.956C140.335 25.74 140.299 25.632 140.048 25.632H139.148C137.636 25.632 136.988 24.552 136.915 22.464C136.88 21.096 136.555 16.668 136.555 13.68V6.40802H136.844C137.672 7.59602 142.639 13.788 143.251 14.508C143.936 15.3 146.816 18.756 149.408 21.816C151.568 24.372 153.331 26.28 153.943 26.856C154.339 27.252 154.807 27.432 155.348 27.432C155.852 27.432 155.887 26.784 155.887 26.244V20.088C155.887 15.336 156.464 7.20002 156.715 4.78802C156.824 3.49202 157.184 2.88002 157.796 2.88002H158.803C158.947 2.88002 158.984 2.73602 158.984 2.55602V1.69202C158.984 1.47602 158.948 1.40402 158.624 1.40402C158.228 1.40402 157.364 1.51202 155.204 1.51202C152.54 1.51202 151.387 1.40402 150.992 1.40402C150.704 1.40402 150.667 1.47602 150.667 1.65602V2.55602C150.667 2.77202 150.704 2.88002 150.883 2.88002H152.036C152.864 2.88002 153.727 3.38402 153.943 4.28402C154.051 4.82402 154.232 8.35202 154.268 9.75602C154.34 11.556 154.376 13.32 154.376 16.524V19.8Z" fill="#333333"/>
<path d="M173.484 18.036C174.276 18.036 174.6 18 174.6 17.532C174.6 16.956 174.276 11.376 168.444 11.376C165.672 11.376 163.476 12.42 162.18 14.328C160.56 16.704 160.56 18.612 160.56 19.62C160.596 22.428 161.208 23.832 163.044 25.812C164.232 27.108 166.14 27.504 168.444 27.504C171.828 27.504 174.168 25.02 174.816 23.688C175.14 23.076 175.032 22.896 174.888 22.824L174.276 22.5C174.132 22.392 173.988 22.428 173.916 22.608C173.196 23.76 171.756 24.588 169.992 24.588C167.364 24.588 165.24 22.752 165.24 19.008V18.036H173.484ZM165.276 16.668C165.528 14.148 166.428 12.816 168.12 12.816C169.236 12.816 169.884 14.364 169.884 15.948C169.884 16.488 169.524 16.668 168.732 16.668H165.276Z" fill="#333333"/>
<path d="M175.426 12.816C175.426 13.032 175.462 13.14 175.678 13.14H176.11C176.542 13.14 177.082 13.392 177.37 14.112L182.59 26.82C182.77 27.252 182.95 27.54 183.31 27.54C183.67 27.54 183.994 27.36 184.174 26.964L188.206 17.424H188.422L192.058 26.676C192.31 27.288 192.454 27.54 192.85 27.54C193.138 27.54 193.498 27.468 193.678 27.072C194.254 25.812 198.934 14.508 199.222 13.896C199.474 13.356 200.122 13.14 200.698 13.14H201.058C201.238 13.14 201.31 13.032 201.31 12.852V12.096C201.31 11.88 201.238 11.772 201.058 11.772C200.626 11.772 199.978 11.88 198.43 11.88C196.414 11.88 195.334 11.772 195.118 11.772C194.974 11.772 194.866 11.844 194.866 12.024V12.852C194.866 13.032 194.902 13.14 195.082 13.14H195.586C196.558 13.14 197.062 13.896 196.378 15.768L194.434 21.24H194.29L191.734 14.148C191.59 13.716 191.914 13.356 192.202 13.356H192.706C192.886 13.356 192.922 13.176 192.922 12.996V12.204C192.922 12.06 192.85 11.988 192.598 11.988C192.31 11.988 191.518 12.096 189.43 12.096C187.162 12.096 186.01 11.988 185.722 11.988C185.506 11.988 185.398 12.06 185.398 12.276V13.068C185.398 13.248 185.47 13.356 185.686 13.356H185.938C186.262 13.356 186.658 13.392 186.874 13.68C187.234 14.148 187.378 15.3 187.198 15.804L185.002 21.42H184.786L182.338 13.968C182.194 13.464 182.338 13.14 182.662 13.14H183.13C183.382 13.14 183.418 13.032 183.418 12.852V12.06C183.418 11.844 183.346 11.772 183.13 11.772C182.59 11.772 181.726 11.88 179.926 11.88C176.866 11.88 176.146 11.772 175.642 11.772C175.462 11.772 175.426 11.88 175.426 12.06V12.816Z" fill="#333333"/>
<path d="M212.421 12.816C212.385 12.564 212.313 12.384 211.773 12.132C211.125 11.808 209.937 11.376 207.993 11.376C206.481 11.376 205.473 11.628 204.033 12.672C202.665 13.68 202.161 15.084 202.161 16.776C202.161 19.368 203.997 20.592 206.553 21.348C208.893 22.068 209.937 22.536 209.937 23.976C209.937 25.236 209.145 26.172 207.813 26.172C206.157 26.172 205.329 25.272 204.681 24.336L203.241 22.212C203.169 22.068 203.097 22.032 202.989 22.068L202.341 22.248C202.197 22.284 202.089 22.356 202.089 22.536L202.557 25.992C202.593 26.208 202.629 26.352 202.773 26.46C203.205 26.784 204.969 27.504 206.985 27.504C210.909 27.504 213.429 25.2 213.429 21.996C213.429 20.736 213.213 19.872 212.277 18.936C211.197 17.784 210.333 17.532 208.569 17.064C205.905 16.344 205.473 15.984 205.401 14.724C205.401 13.5 206.445 12.78 207.525 12.78C208.605 12.78 209.289 13.356 209.757 13.824L211.773 15.984C211.917 16.128 212.025 16.164 212.133 16.092L212.781 15.804C212.925 15.732 212.961 15.66 212.925 15.48L212.421 12.816Z" fill="#333333"/>
</svg>
