<svg xmlns="http://www.w3.org/2000/svg" xmlns:xlink="http://www.w3.org/1999/xlink" width="311.218" height="24.001" viewBox="0 0 311.218 24.001">
  <defs>
    <clipPath id="clip-path">
      <rect id="Rectangle_1" data-name="Rectangle 1" width="311.218" height="24.001" fill="#fff"/>
    </clipPath>
  </defs>
  <g id="Group_1" data-name="Group 1" clip-path="url(#clip-path)">
    <path id="Path_1" data-name="Path 1" d="M1.548,63.688c.124,0,.216.033.216.251A8.57,8.57,0,0,0,3,67.546,4.608,4.608,0,0,0,4.67,69.152a4.422,4.422,0,0,0,2.216.563c1.482,0,3.856-1.021,3.856-3.541,0-2.649-.486-3.415-4.505-4.979a16.453,16.453,0,0,1-4.474-2.772A6.089,6.089,0,0,1,.221,53.889,5.182,5.182,0,0,1,2.535,49.2a6.45,6.45,0,0,1,4.444-1.53,10.712,10.712,0,0,1,4.1.638.54.54,0,0,0,.384.056.555.555,0,0,0,.326-.217l.4-.422a.627.627,0,0,1,.213-.145.61.61,0,0,1,.251-.046c.216,0,.277.352.309.543l.486,5.459c0,.126-.061.159-.153.191l-.663.231c-.153.063-.309,0-.4-.224a9.722,9.722,0,0,0-1.922-3.32,3.737,3.737,0,0,0-3.086-1.34,3.271,3.271,0,0,0-3.273,2.9,3.808,3.808,0,0,0,.8,2.938,10.144,10.144,0,0,0,4.073,2.073,9.857,9.857,0,0,1,3.951,2.425c1.2,1.118,1.7,2.513,1.7,4.757,0,3.893-2.673,7.052-6.758,7.052-2.782,0-4.233-.478-5.538-1.382-.372-.251-.556-.349-.712-.349s-.309.221-.486.54-.335.395-.552.395c-.34,0-.464-.161-.433-.5l.486-6.064c.032-.224.124-.224.243-.224Z" transform="translate(0 -47.218)" fill="#333"/>
    <path id="Path_2" data-name="Path 2" d="M17.313,53.577a1.465,1.465,0,0,1-1.606,1.508,2.2,2.2,0,0,1-1.394-.46,2.335,2.335,0,0,1-.827-1.249c-.372-1.148-.957-1.533-1.82-1.533S9.627,53.1,9.627,55.111s-.061,3.446.989,5.426a3.361,3.361,0,0,0,3.3,1.85A4.391,4.391,0,0,0,17,61.366c.153-.1.243-.161.338-.033l.433.447c.092.128.061.251-.032.415-.586,1.053-2.994,2.586-5.832,2.586-2.313,0-3.856-.671-4.845-1.948a6.385,6.385,0,0,1-1.572-4.405A8.383,8.383,0,0,1,7.8,52.364a6.446,6.446,0,0,1,4.581-1.882C16.417,50.481,17.313,52.587,17.313,53.577Z" transform="translate(11.917 -40.81)" fill="#333"/>
    <path id="Path_3" data-name="Path 3" d="M11.372,62.457a7.406,7.406,0,0,1,1.013-10.349,7,7,0,0,1,4.6-1.629,6.588,6.588,0,0,1,4.969,2.011,6.6,6.6,0,0,1,2.129,5.074,7.562,7.562,0,0,1-1.976,4.981,6.911,6.911,0,0,1-5.37,2.234A6.127,6.127,0,0,1,11.372,62.457Zm8.019-5.1c0-3.7-1.235-5.529-2.593-5.529a1.729,1.729,0,0,0-1.667.862c-.617.99-1.018,2.362-1.018,4.948a9.89,9.89,0,0,0,.77,4.436,2,2,0,0,0,2.044,1.367c1.7,0,2.469-2.573,2.469-6.085Z" transform="translate(21.13 -40.818)" fill="#333"/>
    <path id="Path_4" data-name="Path 4" d="M20.813,62.013c0,2.616.957,3.192,1.7,3.192a2.921,2.921,0,0,0,1.6-.385c.092-.063.185-.063.277.128l.216.48a.326.326,0,0,1,.019.232.314.314,0,0,1-.141.182,7.122,7.122,0,0,1-4.32,1.276,3.207,3.207,0,0,1-3.426-2.968c0-1.118.061-3.544.061-4.758l.019-4.212h-1.7c-.277,0-.486-.128-.486-.447s.185-.543.681-.8a23.893,23.893,0,0,0,4.756-4.215.8.8,0,0,1,.26-.227.764.764,0,0,1,.328-.092c.277,0,.4.224.4.48l-.124,3.383h3.92a.208.208,0,0,1,.216.287l-.309,1.372c-.031.128-.092.251-.277.251H20.876c-.063,1.309-.063,2.84-.063,4.308Z" transform="translate(31.778 -43.149)" fill="#333"/>
    <path id="Path_5" data-name="Path 5" d="M24.121,62.013c0,2.616.957,3.192,1.7,3.192a2.924,2.924,0,0,0,1.606-.385c.092-.063.185-.063.277.128l.216.48a.324.324,0,0,1,.018.233.314.314,0,0,1-.142.182,7.116,7.116,0,0,1-4.32,1.276,3.209,3.209,0,0,1-3.427-2.968c0-1.118.063-3.544.063-4.758l.031-4.212h-1.7c-.277,0-.486-.128-.486-.447s.185-.543.678-.8a24.125,24.125,0,0,0,4.743-4.215.8.8,0,0,1,.259-.226.767.767,0,0,1,.327-.093c.279,0,.4.224.4.48l-.121,3.383h3.92a.206.206,0,0,1,.214.287l-.3,1.372a.283.283,0,0,1-.09.182.263.263,0,0,1-.186.069H24.187c-.061,1.309-.061,2.84-.061,4.308Z" transform="translate(38.993 -43.149)" fill="#333"/>
    <path id="Path_6" data-name="Path 6" d="M29.289,69.112c-.243,0-1.665-.1-4.35-.1-1.791,0-2.994.1-3.334.1-.153,0-.243-.063-.243-.319v-.643c0-.191.092-.251.309-.251h1.142c.338,0,.554-.126.586-.638.061-.957.061-1.945.061-2.84L23.4,59.951a1.832,1.832,0,0,0-1.482-2.011c-.338-.128-.369-.251-.369-.447v-.352c0-.1.061-.159.34-.251l4.6-1.533a2.481,2.481,0,0,1,.833-.191c.243,0,.338.161.309.382-.063.543-.063,2.553-.063,5.363v3.408c0,1.244,0,2.392.031,2.744.061.606.216.829.557.829h1.111c.243,0,.309.1.309.289v.606C29.569,69.011,29.505,69.112,29.289,69.112Zm-4.23-16.379a2.122,2.122,0,0,1-.866-.156,2.18,2.18,0,0,1-.737-.5,2.271,2.271,0,0,1-.489-.755,2.184,2.184,0,0,1,2.244-3A2.12,2.12,0,0,1,27.5,50.338,2.365,2.365,0,0,1,25.059,52.733Z" transform="translate(46.384 -45.487)" fill="#333"/>
    <path id="Path_7" data-name="Path 7" d="M33.746,54.123c.029.158,0,.224-.124.287l-.556.251c-.093.063-.185.03-.309-.1l-1.728-1.915a2.628,2.628,0,0,0-.862-.672,2.551,2.551,0,0,0-1.05-.256,1.739,1.739,0,0,0-1.823,1.724c.063,1.119.433,1.438,2.717,2.076a5.441,5.441,0,0,1,3.178,1.659,3.423,3.423,0,0,1,.989,2.714c0,2.84-2.16,4.883-5.526,4.883a7.172,7.172,0,0,1-3.611-.927.581.581,0,0,1-.134-.188.594.594,0,0,1-.051-.227l-.4-3.063a.257.257,0,0,1,.062-.169.241.241,0,0,1,.155-.083l.557-.158c.092-.033.153,0,.216.128l1.235,1.882A3.036,3.036,0,0,0,29.353,63.6a1.784,1.784,0,0,0,1.823-1.948c0-1.277-.9-1.692-2.9-2.33-2.187-.671-3.764-1.759-3.764-4.054a4.237,4.237,0,0,1,1.6-3.639,4.943,4.943,0,0,1,3.4-1.148,6.882,6.882,0,0,1,3.239.671c.464.224.525.382.557.605Z" transform="translate(53.1 -40.803)" fill="#333"/>
    <path id="Path_8" data-name="Path 8" d="M34.2,68.543c0,.957.185,1.307.462,1.307h.627c.156,0,.243.065.243.251v.605c0,.224-.032.352-.216.352-.243,0-1.667-.1-3.487-.1-2.16,0-3.334.1-3.611.1-.124,0-.216-.1-.216-.319v-.646c0-.224.124-.251.464-.251h.486c.486,0,.955-.126,1.05-.543a8.117,8.117,0,0,0,.153-2.106L30.1,53.916c0-1.6-.4-2.513-1.458-2.936l-.557-.193c-.185-.1-.243-.191-.243-.286v-.42c0-.128.092-.251.522-.382a25.678,25.678,0,0,0,4.661-1.948,2.238,2.238,0,0,1,.965-.319c.277,0,.34.251.277.8s-.092,7.022-.092,8.907V59.05h.216A4.548,4.548,0,0,1,38.338,57.1,4.288,4.288,0,0,1,41.5,58.359c1.458,1.257,1.327,2.843,1.327,4.883v1.98c0,1.6-.061,3.544-.061,4.149,0,.447.617.478.987.478h.586c.243,0,.34.065.34.224v.671c0,.191-.061.319-.243.319s-1.2-.1-3.363-.1-3.239.1-3.518.1c-.216,0-.277-.1-.277-.352v-.618c0-.161.032-.251.216-.251h.4a.712.712,0,0,0,.478-.162.759.759,0,0,0,.263-.444c.029-.447.092-2.139.092-3.1V64.187c0-1.563.092-3.8-.71-4.627a1.781,1.781,0,0,0-.661-.478,1.726,1.726,0,0,0-.8-.127,2.737,2.737,0,0,0-1.82,1.116,2.288,2.288,0,0,0-.525,1.563Z" transform="translate(60.449 -47.431)" fill="#333"/>
    <path id="Path_9" data-name="Path 9" d="M43.02,59.209a22.809,22.809,0,0,0,3.057-.193,2.6,2.6,0,0,0,1.6-1.151,4.493,4.493,0,0,0,.68-1.691c.032-.159.124-.251.243-.251l.709.063c.121,0,.185.1.185.224-.063.543-.063,3.192-.063,3.639,0,1.149.092,2.682.156,3.32,0,.158-.063.221-.216.251l-.678.161c-.124.03-.216-.065-.243-.251a9.624,9.624,0,0,0-.586-1.533,3.267,3.267,0,0,0-1.514-1.277,17.759,17.759,0,0,0-3.331-.221v1.211c0,.957.031,6.321.031,6.735,0,.862.309,1.02.729,1.02h1.823c.185,0,.277.065.277.191v.87c0,.193-.063.251-.243.251-.309,0-1.543-.1-4.751-.1-3.025,0-4.2.1-4.661.1-.124,0-.185-.063-.185-.286v-.867c0-.128.093-.161.216-.161h1.079c.649,0,.894-.128.926-.638.032-.638.124-4.66.124-10.148V56.25c0-1.4-.063-5.906-.063-6.225,0-.606-.43-.925-1.264-.925H35.8c-.185,0-.277-.065-.277-.191v-.937a.19.19,0,0,1,.216-.191c.338,0,1.511.1,5.276.1.432,0,8.549-.1,10.031-.1.678,0,1.358-.128,1.6-.128.156,0,.243.194.309.543l1.215,5.2c.031.128,0,.224-.093.251L53.462,54c-.153.063-.216,0-.43-.319a32.189,32.189,0,0,0-2.408-2.938,4.729,4.729,0,0,0-2.141-1.43,37.838,37.838,0,0,0-5.431-.319c0,.415-.031,6.766-.031,8.714Z" transform="translate(77.125 -46.951)" fill="#333"/>
    <path id="Path_10" data-name="Path 10" d="M49.344,69.108c-.243,0-1.667-.1-4.35-.1-1.791,0-2.994.1-3.334.1-.156,0-.243-.063-.243-.319v-.643c0-.191.092-.251.309-.251h1.142c.34,0,.557-.126.588-.638.061-.957.061-1.945.061-2.84l-.061-4.469a1.834,1.834,0,0,0-1.483-2.011c-.34-.128-.369-.251-.369-.447v-.352c0-.1.061-.159.338-.251l4.6-1.533a2.471,2.471,0,0,1,.831-.191.277.277,0,0,1,.137.02.285.285,0,0,1,.112.084.3.3,0,0,1,.061.128.306.306,0,0,1-.005.143c-.066.543-.066,2.553-.066,5.363v3.416c0,1.244,0,2.392.031,2.744.061.606.216.829.554.829h1.115c.243,0,.309.1.309.289v.605C49.623,69.008,49.555,69.108,49.344,69.108ZM45.116,52.734a2.123,2.123,0,0,1-.866-.156,2.182,2.182,0,0,1-.736-.5,2.265,2.265,0,0,1-.489-.755,2.184,2.184,0,0,1,2.246-3,2.119,2.119,0,0,1,2.284,2.011,2.371,2.371,0,0,1-2.44,2.39Z" transform="translate(89.927 -45.484)" fill="#333"/>
    <path id="Path_11" data-name="Path 11" d="M50.013,52.239h.243a5.18,5.18,0,0,1,1.482-1.151,4.474,4.474,0,0,1,2.377-.606,4.429,4.429,0,0,1,3.179.895,4.043,4.043,0,0,1,1.39,3.637V58.4c0,1.083-.063,2.584-.124,3.7-.031.958.462,1.116.729,1.116h.831c.279,0,.34.1.34.289v.573c0,.224-.061.352-.243.352s-1.171-.1-3.645-.1c-2.036,0-3.025.1-3.242.1s-.243-.1-.243-.352v-.578c0-.224.092-.289.4-.289h.34c.216,0,.486-.158.554-.734a22.679,22.679,0,0,0,.2-3.325V55.751a3.361,3.361,0,0,0-.729-2.651,1.972,1.972,0,0,0-.7-.453,1.92,1.92,0,0,0-.816-.12,2.334,2.334,0,0,0-1.572.638c-.372.286-.617,1.149-.617,2.458l-.063,6.534c0,.576.216,1.053.486,1.053h.4c.243,0,.309.1.309.319v.608c0,.191-.063.286-.216.286-.216,0-1.05-.1-3.086-.1-2.187,0-3.179.1-3.366.1s-.216-.1-.216-.286v-.631c0-.194.063-.289.309-.289h.464c.34,0,.865-.1.865-.638V55.494A1.947,1.947,0,0,0,44.8,53.642l-.279-.126a.343.343,0,0,1-.163-.14.363.363,0,0,1-.053-.212v-.289c0-.161.124-.251.279-.319L48.533,50.7a2.054,2.054,0,0,1,.71-.224.476.476,0,0,1,.275.121.5.5,0,0,1,.155.264Z" transform="translate(96.194 -40.812)" fill="#333"/>
    <path id="Path_12" data-name="Path 12" d="M56.7,54.16a2.5,2.5,0,0,0-.464-1.759,1.914,1.914,0,0,0-1.3-.382,2.73,2.73,0,0,0-1.635.5c-.464.319-.093.862-.093,1.882a1.8,1.8,0,0,1-2.007,1.82,1.218,1.218,0,0,1-1.327-1.149,3.056,3.056,0,0,1,.865-2.234,8.859,8.859,0,0,1,5.925-2.363c1.975,0,2.5.319,3.159.925a3.54,3.54,0,0,1,.863,2.715l.063,6.351c.029,1.661.121,2.172.709,2.172a1.1,1.1,0,0,0,.517-.173,1.14,1.14,0,0,0,.378-.4c.124-.191.216-.224.309-.159l.433.251c.124.065.216.161.092.447a3.418,3.418,0,0,1-3.118,2.171,2.874,2.874,0,0,1-2.931-1.948h-.156a7.1,7.1,0,0,1-2.653,1.659,6.5,6.5,0,0,1-2.221.289c-1.081,0-2.039-1.214-2.039-2.938a4.245,4.245,0,0,1,2.656-3.893,29.285,29.285,0,0,0,3.981-2.106Zm.032,2.968c-1.514.892-2.778,1.372-2.778,3.574,0,1.468.647,2.076,1.327,2.106a1.729,1.729,0,0,0,1.458-1.149Z" transform="translate(108.298 -40.817)" fill="#333"/>
    <path id="Path_13" data-name="Path 13" d="M59.945,52.239h.243a5.166,5.166,0,0,1,1.48-1.151,4.479,4.479,0,0,1,2.377-.606,4.428,4.428,0,0,1,3.178.895,4.037,4.037,0,0,1,1.39,3.637V58.4c0,1.083-.061,2.584-.124,3.7-.032.958.464,1.116.729,1.116h.853c.277,0,.34.1.34.289v.573c0,.224-.063.352-.243.352s-1.174-.1-3.645-.1c-2.037,0-3.023.1-3.239.1s-.243-.1-.243-.352v-.578c0-.224.092-.289.4-.289h.34c.216,0,.486-.158.557-.734a23.069,23.069,0,0,0,.175-3.325V55.751a3.363,3.363,0,0,0-.729-2.651,1.97,1.97,0,0,0-.7-.453,1.92,1.92,0,0,0-.814-.12,2.336,2.336,0,0,0-1.575.638,3.4,3.4,0,0,0-.617,2.458l-.061,6.534c0,.576.216,1.053.486,1.053h.4c.243,0,.309.1.309.319v.608c0,.191-.061.286-.216.286-.216,0-1.05-.1-3.086-.1-2.187,0-3.179.1-3.363.1s-.216-.1-.216-.286v-.631c0-.194.061-.289.309-.289H55.1c.34,0,.865-.1.865-.638V55.494a1.947,1.947,0,0,0-1.235-1.852l-.277-.126a.342.342,0,0,1-.164-.139.363.363,0,0,1-.052-.212v-.289c0-.161.124-.251.277-.319L58.47,50.7a2.022,2.022,0,0,1,.709-.224.478.478,0,0,1,.274.121.505.505,0,0,1,.154.263Z" transform="translate(117.769 -40.812)" fill="#333"/>
    <path id="Path_14" data-name="Path 14" d="M71.606,53.578A1.466,1.466,0,0,1,70,55.085a2.2,2.2,0,0,1-1.394-.46,2.337,2.337,0,0,1-.827-1.249c-.372-1.149-.957-1.533-1.82-1.533S63.92,53.1,63.92,55.111s-.061,3.446.989,5.426a3.36,3.36,0,0,0,3.3,1.85,4.43,4.43,0,0,0,3.086-1.02c.153-.1.243-.161.338-.033l.433.447c.092.128.063.251-.032.415-.586,1.053-2.994,2.586-5.832,2.586-2.313,0-3.857-.671-4.846-1.948a6.386,6.386,0,0,1-1.572-4.406A8.383,8.383,0,0,1,62.1,52.364a6.447,6.447,0,0,1,4.568-1.882C70.709,50.481,71.606,52.587,71.606,53.578Z" transform="translate(129.81 -40.81)" fill="#333"/>
    <path id="Path_15" data-name="Path 15" d="M71.793,69.108c-.243,0-1.667-.1-4.352-.1-1.791,0-2.994.1-3.334.1-.153,0-.243-.063-.243-.319v-.643c0-.191.092-.251.309-.251h1.142c.338,0,.554-.126.586-.638.061-.957.061-1.945.061-2.84L65.9,59.947a1.832,1.832,0,0,0-1.482-2.011c-.338-.128-.369-.251-.369-.447v-.352c0-.1.061-.159.34-.251l4.6-1.533a2.485,2.485,0,0,1,.834-.191.281.281,0,0,1,.137.02.288.288,0,0,1,.112.084.3.3,0,0,1,.061.128.3.3,0,0,1,0,.143c-.053.543-.053,2.553-.053,5.363v3.416c0,1.244,0,2.392.031,2.744.063.606.216.829.557.829h1.113c.243,0,.309.1.309.289v.605C72.07,69.008,72.017,69.108,71.793,69.108ZM67.565,52.734a2.123,2.123,0,0,1-.866-.156,2.183,2.183,0,0,1-.737-.5,2.265,2.265,0,0,1-.488-.755,2.184,2.184,0,0,1,2.244-3A2.118,2.118,0,0,1,70,50.339a2.37,2.37,0,0,1-2.437,2.39Z" transform="translate(138.665 -45.484)" fill="#333"/>
    <path id="Path_16" data-name="Path 16" d="M73.7,54.16a2.515,2.515,0,0,0-.462-1.759,1.917,1.917,0,0,0-1.3-.382,2.736,2.736,0,0,0-1.635.5c-.462.319-.092.862-.092,1.882a1.8,1.8,0,0,1-2,1.82,1.218,1.218,0,0,1-1.327-1.149,3.064,3.064,0,0,1,.863-2.234,8.865,8.865,0,0,1,5.927-2.363c1.973,0,2.5.319,3.159.925a3.532,3.532,0,0,1,.865,2.715l.061,6.351c.032,1.661.124,2.172.709,2.172a1.093,1.093,0,0,0,.517-.172,1.135,1.135,0,0,0,.377-.4c.124-.191.216-.224.309-.159l.433.251c.124.065.216.161.093.447a3.417,3.417,0,0,1-3.115,2.171,2.877,2.877,0,0,1-2.933-1.948h-.17a7.132,7.132,0,0,1-2.656,1.659,6.506,6.506,0,0,1-2.2.3c-1.079,0-2.037-1.214-2.037-2.938a4.247,4.247,0,0,1,2.654-3.893,29.122,29.122,0,0,0,3.98-2.106Zm.032,2.968c-1.512.892-2.778,1.372-2.778,3.574,0,1.468.649,2.076,1.327,2.106a1.73,1.73,0,0,0,1.458-1.149Z" transform="translate(145.213 -40.817)" fill="#333"/>
    <path id="Path_17" data-name="Path 17" d="M77.606,64.568c0,1.277,0,3.35.092,4.272.029.543.124.988.77.988h1.05c.277,0,.34.1.34.289v.606c0,.191-.063.319-.185.319-.216,0-1.575-.1-4.012-.1-2.593,0-3.827.1-4.1.1-.155,0-.216-.128-.216-.382v-.538c0-.224.061-.289.4-.289h.926c.338,0,.834-.224.834-1.372V58.313c0-2.262,0-4.853-.063-5.682-.061-1.086-.709-1.533-1.7-1.852l-.556-.191c-.216-.1-.243-.191-.243-.349v-.48c0-.1.061-.224.277-.251a33.06,33.06,0,0,0,5.492-1.85,1.715,1.715,0,0,1,.68-.224c.185,0,.309.159.277.576-.032,1.759-.061,8.394-.061,10.6Z" transform="translate(154.023 -47.428)" fill="#333"/>
    <path id="Path_18" data-name="Path 18" d="M95.992,61.1c0-2.84-.031-4.4-.092-6-.032-1.257-.185-4.373-.277-4.853a1.713,1.713,0,0,0-.608-.92,1.615,1.615,0,0,0-1.027-.336H93c-.153,0-.185-.1-.185-.287v-.786c0-.158.031-.224.277-.224.34,0,1.327.1,3.611.1,1.852,0,2.593-.1,2.933-.1.277,0,.309.065.309.251v.772c0,.158-.032.287-.156.287h-.863c-.525,0-.833.543-.926,1.691-.216,2.139-.71,9.352-.71,13.572v5.451c0,.48-.031,1.053-.464,1.053a1.578,1.578,0,0,1-.659-.119,1.621,1.621,0,0,1-.556-.384c-.525-.5-2.039-2.2-3.888-4.469l-5.275-6.479c-.525-.638-4.785-6.127-5.495-7.183H80.71v6.441c0,2.649.277,6.575.309,7.791.061,1.85.617,2.807,1.913,2.807H83.7c.214,0,.243.1.243.289v.754c0,.193-.032.251-.243.251-.309,0-2.16-.1-3.611-.1-.957,0-3.086.1-3.4.1-.124,0-.155-.063-.155-.287v-.819a.173.173,0,0,1,.006-.077.168.168,0,0,1,.04-.066.161.161,0,0,1,.064-.041.158.158,0,0,1,.075-.007H77.8c.678,0,1.171-1.02,1.327-3.159.031-.605.277-5.712.277-10.437V52.7c0-1.882-1.111-3.669-2.653-3.7l-.763-.033c-.156,0-.187-.128-.187-.224v-.862c0-.126.032-.191.187-.191s.4.033.987.033,1.6.063,3.21.063c1.047,0,1.976-.063,2.345-.063a1.04,1.04,0,0,1,.5.1,1.077,1.077,0,0,1,.4.319l7.161,9.065L95.861,64h.124Z" transform="translate(164.582 -46.863)" fill="#333"/>
    <path id="Path_19" data-name="Path 19" d="M87.848,56.406v.854c0,3.32,1.82,4.949,4.073,4.949a3.866,3.866,0,0,0,3.363-1.759.19.19,0,0,1,.045-.088.182.182,0,0,1,.082-.053.176.176,0,0,1,.1,0,.18.18,0,0,1,.085.048l.525.289c.124.063.216.224-.061.754a6.43,6.43,0,0,1-5.462,3.385c-1.976,0-3.611-.352-4.617-1.508a7.1,7.1,0,0,1-2.129-5.492,7.829,7.829,0,0,1,1.388-4.692,6.109,6.109,0,0,1,5.37-2.616c5,0,5.278,4.949,5.278,5.459,0,.414-.279.447-.957.447Zm2.994-1.219c.681,0,.989-.161.989-.638,0-1.4-.557-2.765-1.511-2.765-1.458,0-2.223,1.181-2.43,3.415Z" transform="translate(182.048 -40.824)" fill="#333"/>
    <path id="Path_20" data-name="Path 20" d="M87.866,50.847c0-.158.031-.251.187-.251.433,0,1.05.1,3.672.1,1.543,0,2.284-.1,2.746-.1.185,0,.243.063.243.251v.7c0,.158-.031.251-.243.251h-.4c-.277,0-.4.289-.277.734l2.1,6.607h.187l1.881-4.979a2.689,2.689,0,0,0-.277-1.882.953.953,0,0,0-.8-.286h-.216a.21.21,0,0,1-.1-.01.217.217,0,0,1-.084-.054.228.228,0,0,1-.052-.087.234.234,0,0,1-.01-.1v-.7c0-.193.092-.251.279-.251.243,0,1.235.1,3.179.1,1.789,0,2.469-.1,2.714-.1s.28.063.28.191v.7c0,.158-.032.319-.187.319h-.43a.489.489,0,0,0-.211.08.511.511,0,0,0-.155.169.53.53,0,0,0-.034.452l2.187,6.283h.124l1.665-4.845c.586-1.659.153-2.33-.68-2.33h-.421c-.155,0-.187-.1-.187-.251v-.744a.21.21,0,0,1,.009-.09.2.2,0,0,1,.046-.076.192.192,0,0,1,.074-.048.189.189,0,0,1,.087-.01c.187,0,1.113.1,2.841.1,1.327,0,1.881-.1,2.253-.1.153,0,.216.1.216.286v.671c0,.158-.063.251-.216.251h-.309a1.351,1.351,0,0,0-1.266.671c-.243.543-4.257,10.555-4.753,11.681a.72.72,0,0,1-.291.324.687.687,0,0,1-.418.091c-.338,0-.462-.224-.678-.754l-3.118-8.2h-.185l-3.455,8.457a.8.8,0,0,1-.291.366.767.767,0,0,1-.439.136c-.309,0-.464-.251-.617-.638L89.554,52.666a1.223,1.223,0,0,0-.419-.616,1.157,1.157,0,0,0-.689-.245h-.372c-.185,0-.216-.1-.216-.287Z" transform="translate(190.762 -40.57)" fill="#333"/>
    <path id="Path_21" data-name="Path 21" d="M104.366,54.123c.029.158,0,.224-.124.287l-.557.251c-.092.063-.185.03-.309-.1l-1.728-1.915a2.63,2.63,0,0,0-.862-.672,2.553,2.553,0,0,0-1.051-.256,1.737,1.737,0,0,0-1.82,1.724c.061,1.119.43,1.438,2.714,2.076a5.443,5.443,0,0,1,3.179,1.659A3.424,3.424,0,0,1,104.8,59.9c0,2.84-2.16,4.883-5.526,4.883a7.169,7.169,0,0,1-3.611-.927.582.582,0,0,1-.134-.188.6.6,0,0,1-.051-.227l-.4-3.063a.257.257,0,0,1,.062-.169.242.242,0,0,1,.155-.083l.557-.158c.092-.033.153,0,.214.128L97.3,61.975A3.046,3.046,0,0,0,99.982,63.6a1.784,1.784,0,0,0,1.823-1.948c0-1.277-.9-1.692-2.9-2.33-2.187-.671-3.764-1.759-3.764-4.054a4.237,4.237,0,0,1,1.6-3.639,4.943,4.943,0,0,1,3.4-1.148,6.924,6.924,0,0,1,3.239.671c.464.224.525.382.556.605Z" transform="translate(206.432 -40.803)" fill="#333"/>
  </g>
</svg>
