<svg width="390" height="30" viewBox="0 0 390 30" fill="none" xmlns="http://www.w3.org/2000/svg">
<path d="M1.93538 20.5853C2.09031 20.5853 2.20575 20.6262 2.20575 20.8995C2.28169 22.134 2.81331 23.8523 3.74896 25.4073C4.26904 26.2496 4.98843 26.9407 5.83899 27.4151C6.68956 27.8895 7.64315 28.1315 8.60947 28.1183C10.4625 28.1183 13.4305 26.8429 13.4305 23.6921C13.4305 20.3811 12.8229 19.423 7.79837 17.4691C5.76889 16.6268 3.88129 15.4573 2.20575 14.0042C0.853917 12.7665 0.276732 10.6523 0.276732 8.33716C0.276732 5.90574 0.853917 4.26909 3.16873 2.47223C4.90637 1.11831 6.37971 0.559145 8.7249 0.559145C11.544 0.559145 13.0447 1.03663 13.8558 1.35705C14.0024 1.43897 14.1726 1.46374 14.3354 1.42684C14.4982 1.38994 14.6428 1.29383 14.7428 1.156L15.2441 0.628255C15.3199 0.549617 15.4105 0.487867 15.5103 0.446808C15.6101 0.405748 15.7169 0.386249 15.8243 0.389511C16.0946 0.389511 16.1706 0.829302 16.2101 1.06805L16.8176 7.89108C16.8176 8.04815 16.7417 8.08899 16.6263 8.12983L15.7969 8.41883C15.6056 8.49736 15.4111 8.41883 15.2957 8.13925C14.7739 6.60239 13.9565 5.19076 12.8928 3.98951C11.9268 2.87119 10.7663 2.31517 9.03476 2.31517C6.13972 2.31517 4.94282 4.90679 4.94282 5.94344C4.94282 7.41988 4.98231 8.61674 5.94834 9.61569C6.95082 10.6932 9.1502 11.6482 11.0397 12.2073C12.9292 12.7665 14.3813 13.778 15.9792 15.2387C17.4829 16.6366 18.1057 18.3801 18.1057 21.1853C18.1057 26.0513 14.7641 30 9.65751 30C6.17921 30 4.36563 29.4031 2.73433 28.2722C2.26954 27.9581 2.03867 27.8356 1.84425 27.8356C1.64983 27.8356 1.45844 28.112 1.23668 28.511C1.01492 28.9099 0.817464 29.0042 0.547098 29.0042C0.121803 29.0042 -0.0331254 28.8031 0.00636626 28.3759L0.61393 20.7958C0.653421 20.5162 0.768858 20.5162 0.917711 20.5162L1.93538 20.5853Z" fill="#333333"/>
<path d="M36.542 15.958C36.542 17.0763 35.7704 17.8428 34.534 17.8428C33.9074 17.8566 33.2942 17.654 32.7914 17.2672C32.2886 16.8803 31.9248 16.3312 31.7574 15.7067C31.2926 14.2711 30.5605 13.7905 29.4821 13.7905C28.4037 13.7905 26.9334 15.3611 26.9334 17.8742C26.9334 20.3873 26.8574 22.181 28.1697 24.6564C29.1327 26.4501 30.5605 26.9685 32.2981 26.9685C34.0358 26.9685 34.935 26.6104 36.1501 25.6931C36.3415 25.5737 36.4539 25.492 36.5724 25.6522L37.1131 26.2114C37.2285 26.3716 37.189 26.5255 37.0736 26.7297C36.3415 28.046 33.331 29.9622 29.7828 29.9622C26.8908 29.9622 24.9618 29.1234 23.7254 27.5276C22.2065 25.6114 21.7599 24.0721 21.7599 22.0208C21.7599 19.3098 22.6075 16.3978 24.652 14.4407C26.1925 12.9167 28.2463 12.0727 30.3782 12.0878C35.421 12.0878 36.542 14.7203 36.542 15.958Z" fill="#333333"/>
<path d="M40.6308 27.0473C39.1636 25.3729 38.5803 23.2462 38.5803 20.7331C38.5803 18.9363 39.5433 15.9865 41.8976 14.1111C43.5247 12.7592 45.5582 12.039 47.6452 12.0755C50.3063 12.0755 52.1199 12.9143 53.8575 14.5886C55.747 16.3447 56.5186 18.4996 56.5186 20.931C56.4775 23.2528 55.5963 25.4743 54.0489 27.1572C52.1989 29.152 49.96 29.9499 47.3353 29.9499C44.5253 29.9625 42.5963 29.3625 40.6308 27.0473ZM50.6557 20.6672C50.6557 16.0368 49.1124 13.7562 47.4143 13.7562C46.4483 13.7562 45.8316 14.0358 45.3304 14.8337C44.5587 16.0714 44.0575 17.7865 44.0575 21.019C44.0575 23.331 44.2489 24.8483 45.0205 26.5635C45.5309 27.6441 46.1475 28.2724 47.5753 28.2724C49.6957 28.2724 50.6617 25.0557 50.6617 20.6672H50.6557Z" fill="#333333"/>
<path d="M65.7448 23.5791C65.7448 26.8492 66.9417 27.5686 67.8713 27.5686C68.5699 27.6049 69.2644 27.4385 69.8762 27.088C69.9917 27.0094 70.1071 27.0094 70.2225 27.2482L70.4929 27.8482C70.5368 27.9382 70.5455 28.0422 70.5172 28.1387C70.4889 28.2352 70.4258 28.3168 70.341 28.3665C69.6848 28.844 67.9472 29.9623 64.9398 29.9623C62.3151 29.9623 60.6564 28.0775 60.6564 26.2524C60.6564 24.8544 60.7324 21.823 60.7324 20.3058L60.7567 15.0408H58.6302C58.2839 15.0408 58.0226 14.8806 58.0226 14.4817C58.0226 14.0827 58.2535 13.8031 58.8732 13.4859C60.1491 12.8796 63.3935 9.89529 64.8182 8.2178C64.9053 8.09993 65.0162 8.00316 65.1432 7.93425C65.2701 7.86533 65.4102 7.82595 65.5534 7.81885C65.8997 7.81885 66.0546 8.09843 66.0546 8.41885L65.8997 12.6471H70.7997C71.0306 12.6471 71.146 12.845 71.0701 13.0052L70.6843 14.7204C70.6448 14.8806 70.5688 15.0346 70.338 15.0346H65.8238C65.7448 16.6712 65.7448 18.5843 65.7448 20.4188V23.5791Z" fill="#333333"/>
<path d="M78.9014 23.5791C78.9014 26.8492 80.0983 27.5686 81.0279 27.5686C81.7275 27.6054 82.4231 27.4389 83.0359 27.088C83.1513 27.0094 83.2668 27.0094 83.3822 27.2482L83.6526 27.8482C83.6962 27.9386 83.7045 28.0429 83.6756 28.1394C83.6467 28.236 83.583 28.3173 83.4976 28.3665C82.8415 28.844 81.1069 29.9623 78.0964 29.9623C75.4748 29.9623 73.8131 28.0775 73.8131 26.2524C73.8131 24.8544 73.8921 21.823 73.8921 20.3058L73.9315 15.0408H71.8051C71.4588 15.0408 71.1975 14.8806 71.1975 14.4817C71.1975 14.0827 71.4284 13.8031 72.0451 13.4859C73.3058 12.8796 76.5532 9.89529 77.9749 8.2178C78.0616 8.10033 78.172 8.00379 78.2984 7.93489C78.4249 7.866 78.5643 7.8264 78.707 7.81885C79.0564 7.81885 79.2082 8.09843 79.2082 8.41885L79.0564 12.6471H83.9564C84.1872 12.6471 84.3027 12.845 84.2237 13.0052L83.844 14.7204C83.8355 14.8084 83.7951 14.8898 83.7308 14.9482C83.6665 15.0065 83.5831 15.0374 83.4976 15.0346H78.9834C78.9075 16.6712 78.9075 18.5843 78.9075 20.4188L78.9014 23.5791Z" fill="#333333"/>
<path d="M94.6006 29.5286C94.2969 29.5286 92.5197 29.4092 89.1629 29.4092C86.9241 29.4092 85.4204 29.5286 84.9951 29.5286C84.8037 29.5286 84.6913 29.4501 84.6913 29.1297V28.3255C84.6913 28.0867 84.8067 28.0113 85.0771 28.0113H86.5049C86.9271 28.0113 87.1975 27.8543 87.237 27.2134C87.3129 26.0166 87.3129 24.782 87.3129 23.6637L87.237 18.0784C87.237 16.96 87.0061 16.1621 85.3839 15.5653C84.9616 15.4051 84.9222 15.2511 84.9222 15.0061V14.5663C84.9222 14.4469 84.9981 14.3684 85.3475 14.2522L91.095 12.3359C91.4269 12.1965 91.7791 12.1158 92.137 12.0972C92.4407 12.0972 92.5592 12.2983 92.5228 12.5747C92.4438 13.2532 92.4438 15.7663 92.4438 19.2784V23.538C92.4438 25.093 92.4438 26.5286 92.4833 26.9684C92.5592 27.7255 92.7536 28.0051 93.1789 28.0051H94.5672C94.871 28.0051 94.953 28.1244 94.953 28.3663V29.1234C94.95 29.403 94.871 29.5286 94.6006 29.5286ZM89.3118 9.05637C88.9421 9.0679 88.5739 9.00172 88.2296 8.86184C87.8853 8.72195 87.572 8.51128 87.3088 8.24256C87.0455 7.97384 86.8377 7.65267 86.698 7.29849C86.5582 6.94431 86.4894 6.56449 86.4957 6.18202C86.4957 4.86579 87.805 3.54956 89.5032 3.54956C91.3927 3.54956 92.3587 4.90663 92.3587 6.06265C92.3648 7.37888 91.4778 8.97469 89.3118 9.05637Z" fill="#333333"/>
<path d="M108.569 16.6493C108.605 16.8472 108.569 16.9289 108.414 17.0074L107.718 17.3215C107.603 17.4001 107.487 17.3592 107.332 17.2022L105.173 14.8084C104.874 14.4544 104.507 14.1685 104.095 13.9689C103.683 13.7693 103.236 13.6605 102.782 13.6493C101.624 13.6493 100.503 14.4472 100.503 15.8043C100.582 17.2022 101.044 17.6011 103.9 18.399C105.789 18.9173 106.716 19.1969 107.873 20.4723C108.876 21.509 109.11 22.4671 109.11 23.865C109.11 27.4147 106.409 29.9687 102.202 29.9687C100.042 29.9687 98.1522 29.1707 97.6874 28.8095C97.6169 28.7438 97.5601 28.664 97.5204 28.5749C97.4807 28.4858 97.4589 28.3892 97.4565 28.2912L96.9553 24.4618C96.9548 24.3842 96.9822 24.3091 97.0321 24.2511C97.0821 24.1931 97.151 24.1562 97.2256 24.1477L97.9213 23.9498C98.0367 23.909 98.1127 23.9498 98.1917 24.11L99.7349 26.4629C100.427 27.4995 101.315 28.4985 103.076 28.4985C104.504 28.4985 105.355 27.4618 105.355 26.0639C105.355 24.4681 104.234 23.9498 101.728 23.1519C98.9936 22.3132 97.0221 20.9529 97.0221 18.0849C97.0221 16.2001 97.5598 14.6545 99.0271 13.5362C100.57 12.3802 101.652 12.1006 103.28 12.1006C105.364 12.1006 106.637 12.5781 107.329 12.9393C107.91 13.2189 107.986 13.4168 108.025 13.6964L108.569 16.6493Z" fill="#333333"/>
<path d="M118.329 26.3874C118.329 27.5843 118.56 28.0209 118.906 28.0209H119.69C119.885 28.0209 119.994 28.1026 119.994 28.3351V29.0921C119.994 29.3717 119.954 29.5319 119.724 29.5319C119.42 29.5319 117.64 29.4126 115.364 29.4126C112.664 29.4126 111.196 29.5319 110.85 29.5319C110.695 29.5319 110.58 29.4126 110.58 29.133V28.3257C110.58 28.0461 110.735 28.0115 111.16 28.0115H111.767C112.375 28.0115 112.961 27.8545 113.08 27.333C113.271 26.6168 113.271 25.8974 113.271 24.7005L113.195 8.10471C113.195 6.10995 112.694 4.96335 111.373 4.4356L110.677 4.19372C110.446 4.07435 110.373 3.95497 110.373 3.8356V3.31099C110.373 3.15079 110.489 2.99686 111.026 2.83351C113.153 2.20524 114.538 1.55497 116.853 0.398953C117.221 0.174512 117.633 0.0381904 118.059 0C118.405 0 118.484 0.314136 118.405 0.995812C118.326 1.67749 118.29 9.77277 118.29 12.1288V14.5225H118.56C119.487 13.0052 121.376 12.088 123.496 12.088C125.234 12.088 126.231 12.6063 127.446 13.6586C129.268 15.2293 129.104 17.2115 129.104 19.7623V22.2377C129.104 24.2325 129.028 26.667 129.028 27.4241C129.028 27.9832 129.8 28.0209 130.262 28.0209H130.994C131.298 28.0209 131.419 28.1026 131.419 28.3005V29.1393C131.419 29.378 131.343 29.5382 131.115 29.5382C130.887 29.5382 129.612 29.4188 126.911 29.4188C124.21 29.4188 122.862 29.5382 122.512 29.5382C122.242 29.5382 122.166 29.4188 122.166 29.0984V28.3257C122.166 28.1246 122.205 28.0115 122.436 28.0115H122.938C123.154 28.0196 123.366 27.9479 123.535 27.8092C123.705 27.6705 123.822 27.4738 123.864 27.2544C123.901 26.6953 123.979 24.5812 123.979 23.3843V20.9435C123.979 18.9895 124.095 16.1969 123.092 15.1602C122.865 14.8983 122.582 14.6939 122.266 14.5626C121.95 14.4314 121.609 14.3768 121.27 14.4031C120.419 14.4031 119.572 15.1194 118.994 15.7979C118.542 16.3387 118.308 17.0378 118.338 17.7518L118.329 26.3874Z" fill="#333333"/>
<path d="M150.196 15.3204C151.474 15.3255 152.75 15.2447 154.018 15.0786C154.674 14.9969 155.406 14.4786 156.023 13.6398C156.446 13.0045 156.736 12.2842 156.873 11.5257C156.913 11.3278 157.028 11.2115 157.177 11.2115L158.064 11.2901C158.216 11.2901 158.295 11.4095 158.295 11.5697C158.216 12.2482 158.216 15.5592 158.216 16.1184C158.216 17.554 158.331 19.4702 158.41 20.2681C158.41 20.466 158.331 20.5445 158.14 20.5822L157.292 20.7833C157.137 20.821 157.022 20.7016 156.989 20.4691C156.799 19.8095 156.554 19.1683 156.256 18.5529C155.792 17.8775 155.06 17.1581 154.364 16.9571C152.987 16.7343 151.593 16.6418 150.199 16.6807V18.1948C150.199 19.3917 150.239 26.0953 150.239 26.6136C150.239 27.6911 150.624 27.889 151.15 27.889H153.428C153.659 27.889 153.775 27.9707 153.775 28.1278V29.2147C153.775 29.4566 153.696 29.5288 153.471 29.5288C153.085 29.5288 151.542 29.4095 147.532 29.4095C143.75 29.4095 142.282 29.5288 141.705 29.5288C141.55 29.5288 141.474 29.4503 141.474 29.1707V28.0869C141.474 27.9267 141.59 27.8859 141.745 27.8859H143.094C143.905 27.8859 144.211 27.7257 144.251 27.088C144.29 26.2901 144.406 21.2639 144.406 14.4032V11.6231C144.406 9.86704 144.327 4.24086 144.327 3.84191C144.327 3.08484 143.789 2.68589 142.747 2.68589H141.168C140.937 2.68589 140.821 2.60421 140.821 2.44715V1.27542C140.821 1.11835 140.937 1.03667 141.092 1.03667C141.514 1.03667 142.981 1.15605 147.687 1.15605C148.227 1.15605 158.374 1.03667 160.227 1.03667C161.074 1.03667 161.925 0.876465 162.232 0.876465C162.426 0.876465 162.536 1.11835 162.618 1.555L164.137 8.05762C164.176 8.21783 164.137 8.3372 164.021 8.37176L163.249 8.81154C163.058 8.89008 162.979 8.81155 162.712 8.41259C161.78 7.1279 160.774 5.90165 159.701 4.74034C158.984 3.90322 158.058 3.2851 157.025 2.95291C156.059 2.67332 151.97 2.55395 150.235 2.55395C150.235 3.07228 150.196 11.0105 150.196 13.4451V15.3204Z" fill="#333333"/>
<path d="M174.106 29.5287C173.803 29.5287 172.023 29.4093 168.669 29.4093C166.43 29.4093 164.926 29.5287 164.501 29.5287C164.307 29.5287 164.197 29.4502 164.197 29.1297V28.3255C164.197 28.0868 164.313 28.0114 164.583 28.0114H166.011C166.436 28.0114 166.706 27.8543 166.746 27.2135C166.822 26.0166 166.822 24.7821 166.822 23.6638L166.746 18.0784C166.746 16.9601 166.512 16.1622 164.893 15.5653C164.468 15.4051 164.431 15.2512 164.431 15.0062V14.5664C164.431 14.447 164.507 14.3685 164.853 14.2522L170.604 12.336C170.935 12.1966 171.286 12.1159 171.643 12.0973C171.701 12.0907 171.76 12.0991 171.814 12.1216C171.868 12.1442 171.916 12.1802 171.954 12.2264C171.991 12.2727 172.017 12.3278 172.029 12.387C172.041 12.4461 172.039 12.5073 172.023 12.5653C171.941 13.2439 171.941 15.757 171.941 19.269V23.5381C171.941 25.0931 171.941 26.5287 171.98 26.9685C172.056 27.7255 172.25 28.0051 172.673 28.0051H174.067C174.371 28.0051 174.453 28.1245 174.453 28.3664V29.1234C174.456 29.403 174.371 29.5287 174.106 29.5287ZM168.821 9.06272C168.451 9.07425 168.083 9.00807 167.738 8.86819C167.394 8.7283 167.081 8.51762 166.818 8.24891C166.554 7.98019 166.347 7.65902 166.207 7.30484C166.067 6.95066 165.998 6.57084 166.005 6.18837C166.005 4.87214 167.317 3.55591 169.015 3.55591C170.905 3.55591 171.871 4.91298 171.871 6.069C171.871 7.37895 170.984 8.97476 168.821 9.05643V9.06272Z" fill="#333333"/>
<path d="M182.777 14.2837H183.08C183.609 13.6923 184.237 13.2049 184.933 12.8449C185.839 12.3196 186.866 12.058 187.904 12.0879C189.423 12.0879 190.875 12.2481 191.878 13.2062C193.497 14.7769 193.616 15.757 193.616 17.7517V21.9894C193.616 23.3434 193.537 25.2188 193.461 26.6167C193.421 27.8135 194.038 28.0114 194.372 28.0114H195.411C195.76 28.0114 195.836 28.1308 195.836 28.3727V29.0889C195.836 29.3685 195.76 29.5287 195.532 29.5287C195.305 29.5287 194.068 29.4093 190.976 29.4093C188.43 29.4093 187.194 29.5287 186.923 29.5287C186.653 29.5287 186.619 29.4093 186.619 29.0889V28.3664C186.619 28.0868 186.735 28.0051 187.121 28.0051H187.546C187.816 28.0051 188.154 27.8072 188.239 27.0879C188.422 25.711 188.505 24.3216 188.485 22.9318V18.6722C188.485 17.1549 188.369 16.1182 187.573 15.358C187.324 15.1084 187.027 14.9157 186.701 14.7923C186.375 14.6689 186.027 14.6177 185.681 14.6418C184.988 14.6418 184.487 14.8397 183.715 15.4397C183.251 15.7978 182.944 16.8753 182.944 18.5119L182.865 26.6795C182.865 27.3989 183.135 27.9957 183.472 27.9957H183.977C184.28 27.9957 184.362 28.1151 184.362 28.3947V29.1549C184.362 29.3936 184.283 29.513 184.092 29.513C183.822 29.513 182.78 29.3936 180.234 29.3936C177.5 29.3936 176.261 29.513 176.027 29.513C175.793 29.513 175.756 29.3936 175.756 29.1549V28.3664C175.756 28.1245 175.835 28.0051 176.142 28.0051H176.722C177.148 28.0051 177.804 27.8858 177.804 27.2072V18.3517C177.804 17.1549 177.148 16.4669 176.261 16.0366L175.911 15.8795C175.827 15.8451 175.755 15.7841 175.707 15.7051C175.658 15.626 175.635 15.5331 175.641 15.4397V15.0784C175.641 14.8774 175.796 14.7643 175.99 14.6795L180.927 12.3643C181.204 12.2176 181.504 12.1229 181.814 12.0847C181.941 12.0963 182.061 12.149 182.158 12.2352C182.254 12.3215 182.322 12.437 182.351 12.5653L182.777 14.2837Z" fill="#333333"/>
<path d="M206.268 16.6775C206.268 15.8796 206.192 14.9592 205.688 14.4786C205.302 14.1205 204.685 14.0011 204.068 14.0011C203.34 13.985 202.625 14.2047 202.024 14.6294C201.444 15.0283 201.909 15.7069 201.909 16.9822C201.909 18.3393 200.943 19.2566 199.399 19.2566C198.512 19.2566 197.741 18.6974 197.741 17.821C197.741 16.9445 198.011 15.7445 198.822 15.0283C200.863 13.1489 203.495 12.0996 206.228 12.0754C208.698 12.0754 209.354 12.4744 210.177 13.2315C211.001 13.9885 211.256 15.1885 211.256 16.6241L211.335 24.5623C211.371 26.6388 211.487 27.2765 212.222 27.2765C212.451 27.2605 212.673 27.1866 212.868 27.0611C213.063 26.9357 213.225 26.7626 213.34 26.5571C213.495 26.3184 213.61 26.2775 213.726 26.3592L214.266 26.6733C214.421 26.755 214.537 26.8744 214.382 27.2325C214.036 28.0712 212.878 29.9466 210.484 29.9466C208.965 29.9466 207.553 29.3875 206.821 27.5121H206.626C205.681 28.4461 204.548 29.1538 203.309 29.5854C202.41 29.8659 201.471 29.988 200.532 29.9466C199.181 29.9466 197.984 28.4294 197.984 26.2744C197.984 24.5184 198.795 22.6838 201.304 21.4084C204.311 19.932 205.277 19.4922 206.28 18.776L206.268 16.6775ZM206.307 20.3875C204.415 21.5027 202.835 22.1027 202.835 24.8545C202.835 26.689 203.643 27.4493 204.494 27.487C205.536 27.4084 206.316 26.4095 206.316 26.0513L206.307 20.3875Z" fill="#333333"/>
<path d="M222.165 14.2837H222.469C222.996 13.6923 223.623 13.2048 224.319 12.8449C225.225 12.3199 226.252 12.0583 227.29 12.0879C228.809 12.0879 230.261 12.2481 231.263 13.2062C232.885 14.7769 233.001 15.757 233.001 17.7517V21.9894C233.001 23.3434 232.925 25.2188 232.846 26.6167C232.806 27.8135 233.426 28.0114 233.757 28.0114H234.824C235.17 28.0114 235.249 28.1308 235.249 28.3727V29.0889C235.249 29.3685 235.17 29.5287 234.945 29.5287C234.72 29.5287 233.478 29.4093 230.388 29.4093C227.843 29.4093 226.609 29.5287 226.339 29.5287C226.069 29.5287 226.035 29.4093 226.035 29.0889V28.3664C226.035 28.0868 226.151 28.0051 226.536 28.0051H226.962C227.232 28.0051 227.569 27.8072 227.657 27.0879C227.83 25.7101 227.904 24.3209 227.876 22.9318V18.6722C227.876 17.1549 227.761 16.1182 226.965 15.358C226.716 15.1085 226.419 14.9158 226.094 14.7924C225.768 14.669 225.421 14.6177 225.075 14.6418C224.38 14.6418 223.878 14.8397 223.107 15.4397C222.645 15.7978 222.335 16.8753 222.335 18.5119L222.259 26.6795C222.259 27.3989 222.53 27.9957 222.867 27.9957H223.368C223.672 27.9957 223.754 28.1151 223.754 28.3947V29.1549C223.754 29.3936 223.678 29.513 223.483 29.513C223.213 29.513 222.171 29.3936 219.625 29.3936C216.891 29.3936 215.652 29.513 215.421 29.513C215.19 29.513 215.151 29.3936 215.151 29.1549V28.3664C215.151 28.1245 215.227 28.0051 215.536 28.0051H216.114C216.539 28.0051 217.195 27.8858 217.195 27.2072V18.3517C217.195 17.1549 216.539 16.4669 215.652 16.0366L215.306 15.8795C215.221 15.8455 215.149 15.7846 215.101 15.7055C215.052 15.6263 215.029 15.5332 215.035 15.4397V15.0784C215.035 14.8774 215.19 14.7643 215.382 14.6795L220.321 12.3643C220.598 12.2168 220.899 12.1221 221.208 12.0847C221.335 12.0969 221.454 12.1499 221.55 12.2361C221.646 12.3223 221.713 12.4375 221.743 12.5653L222.165 14.2837Z" fill="#333333"/>
<path d="M251.796 15.9582C251.796 17.0765 251.024 17.843 249.788 17.843C249.161 17.8567 248.548 17.6542 248.045 17.2673C247.542 16.8805 247.178 16.3314 247.011 15.7068C246.546 14.2712 245.814 13.7906 244.736 13.7906C243.657 13.7906 242.187 15.3613 242.187 17.8744C242.187 20.3875 242.111 22.1812 243.423 24.6566C244.386 26.4503 245.814 26.9686 247.552 26.9686C249.29 26.9686 250.174 26.6105 251.41 25.6932C251.601 25.5739 251.714 25.4922 251.832 25.6524L252.373 26.2116C252.488 26.3718 252.452 26.5257 252.333 26.7299C251.601 28.0461 248.591 29.9623 245.043 29.9623C242.151 29.9623 240.222 29.1236 238.985 27.5278C237.466 25.6116 237.02 24.0723 237.02 22.021C237.02 19.31 237.867 16.3979 239.912 14.4409C241.449 12.9206 243.496 12.077 245.623 12.088C250.675 12.088 251.796 14.7205 251.796 15.9582Z" fill="#333333"/>
<path d="M263.1 29.5287C262.796 29.5287 261.016 29.4093 257.659 29.4093C255.42 29.4093 253.916 29.5287 253.491 29.5287C253.3 29.5287 253.187 29.4502 253.187 29.1297V28.3255C253.187 28.0868 253.303 28.0114 253.573 28.0114H255.001C255.423 28.0114 255.693 27.8543 255.733 27.2135C255.809 26.0166 255.809 24.7821 255.809 23.6638L255.733 18.0784C255.733 16.9601 255.502 16.1622 253.88 15.5653C253.458 15.4051 253.418 15.2512 253.418 15.0062V14.5664C253.418 14.447 253.494 14.3685 253.843 14.2522L259.591 12.336C259.923 12.1965 260.275 12.1158 260.633 12.0973C260.691 12.091 260.75 12.0994 260.804 12.122C260.858 12.1445 260.906 12.1804 260.944 12.2266C260.982 12.2727 261.008 12.3277 261.02 12.3868C261.033 12.4458 261.031 12.5071 261.016 12.5653C260.949 13.2439 260.949 15.757 260.949 19.269V23.5381C260.949 25.0931 260.949 26.5287 260.988 26.9685C261.067 27.7255 261.259 28.0051 261.684 28.0051H263.075C263.379 28.0051 263.461 28.1245 263.461 28.3664V29.1234C263.446 29.403 263.379 29.5287 263.1 29.5287ZM257.814 9.06272C257.444 9.07425 257.076 9.00807 256.732 8.86819C256.387 8.7283 256.074 8.51762 255.811 8.24891C255.547 7.98019 255.34 7.65902 255.2 7.30484C255.06 6.95066 254.991 6.57084 254.998 6.18837C254.998 4.87214 256.307 3.55591 258.005 3.55591C259.898 3.55591 260.861 4.91298 260.861 6.069C260.861 7.37895 259.974 8.97476 257.814 9.05643V9.06272Z" fill="#333333"/>
<path d="M273.668 16.6775C273.668 15.8796 273.592 14.9592 273.091 14.4786C272.705 14.1205 272.088 14.0011 271.469 14.0011C270.741 13.9854 270.026 14.2051 269.424 14.6294C268.847 15.0283 269.309 15.7069 269.309 16.9822C269.309 18.3393 268.346 19.2566 266.803 19.2566C265.916 19.2566 265.144 18.6974 265.144 17.821C265.144 16.9445 265.414 15.7445 266.222 15.0283C268.265 13.1489 270.898 12.0997 273.632 12.0754C276.098 12.0754 276.755 12.4744 277.581 13.2315C278.407 13.9885 278.662 15.1885 278.662 16.6241L278.738 24.5624C278.778 26.6388 278.893 27.2765 279.625 27.2765C279.854 27.2608 280.076 27.187 280.271 27.0615C280.466 26.936 280.628 26.7628 280.743 26.5571C280.898 26.3184 281.014 26.2775 281.129 26.3592L281.67 26.6733C281.825 26.755 281.94 26.8744 281.785 27.2325C281.439 28.0713 280.281 29.9466 277.891 29.9466C276.372 29.9466 274.956 29.3875 274.224 27.5121H274.011C273.064 28.4454 271.931 29.153 270.691 29.5854C269.799 29.8687 268.868 29.9961 267.936 29.9623C266.587 29.9623 265.39 28.4451 265.39 26.2901C265.39 24.5341 266.201 22.6995 268.707 21.4241C271.718 19.9477 272.681 19.5079 273.683 18.7917L273.668 16.6775ZM273.708 20.3875C271.818 21.5027 270.235 22.1027 270.235 24.8545C270.235 26.6891 271.046 27.4493 271.894 27.487C272.936 27.4084 273.717 26.4095 273.717 26.0514L273.708 20.3875Z" fill="#333333"/>
<path d="M289.565 21.4239C289.565 23.0197 289.565 25.6113 289.68 26.7642C289.717 27.4428 289.835 27.9988 290.643 27.9988H291.956C292.302 27.9988 292.381 28.1182 292.381 28.36V29.1171C292.381 29.3558 292.302 29.5161 292.15 29.5161C291.88 29.5161 290.182 29.3967 287.135 29.3967C283.893 29.3967 282.35 29.5161 282.004 29.5161C281.809 29.5161 281.734 29.3558 281.734 29.0386V28.3663C281.734 28.0867 281.81 28.0051 282.235 28.0051H283.392C283.814 28.0051 284.434 27.7255 284.434 26.2899V13.6051C284.434 10.7778 284.434 7.53909 284.355 6.50244C284.279 5.14537 283.468 4.58621 282.229 4.18726L281.533 3.94851C281.263 3.82914 281.229 3.70977 281.229 3.51186V2.91186C281.229 2.79249 281.305 2.63228 281.576 2.59773C283.31 2.23961 287.323 0.882543 288.441 0.285685C288.703 0.133355 288.993 0.0382025 289.292 0.00610352C289.523 0.00610352 289.677 0.204009 289.638 0.725475C289.598 2.92443 289.562 11.2176 289.562 13.9695L289.565 21.4239Z" fill="#333333"/>
<path d="M325.751 17.7926C325.751 14.2429 325.712 12.289 325.636 10.2942C325.596 8.72353 325.405 4.82824 325.29 4.22824C325.168 3.76785 324.9 3.36301 324.529 3.07831C324.159 2.79362 323.707 2.64549 323.245 2.65756H322.009C321.817 2.65756 321.778 2.53819 321.778 2.29945V1.3162C321.778 1.1183 321.817 1.03662 322.124 1.03662C322.549 1.03662 323.783 1.15599 326.638 1.15599C328.953 1.15599 329.88 1.03662 330.305 1.03662C330.651 1.03662 330.691 1.1183 330.691 1.35076V2.31516C330.691 2.51306 330.651 2.67327 330.496 2.67327H329.418C328.762 2.67327 328.376 3.3518 328.261 4.78741C327.99 7.46071 327.373 16.4764 327.373 21.7508V28.5644C327.373 29.1644 327.334 29.8806 326.793 29.8806C326.512 29.8908 326.231 29.8402 325.97 29.732C325.708 29.6238 325.471 29.4605 325.274 29.2523C324.618 28.6241 322.726 26.5005 320.414 23.667L313.819 15.5686C313.163 14.7707 307.837 7.90992 306.95 6.59055H306.646V14.6419C306.646 17.9529 306.993 22.8597 307.032 24.3801C307.108 26.6921 307.804 27.889 309.423 27.889H310.389C310.656 27.889 310.693 28.0084 310.693 28.2502V29.1926C310.693 29.4345 310.653 29.5068 310.389 29.5068C310.003 29.5068 307.688 29.3874 305.875 29.3874C304.678 29.3874 302.017 29.5068 301.622 29.5068C301.467 29.5068 301.428 29.4282 301.428 29.1487V28.1246C301.423 28.0921 301.426 28.059 301.436 28.0279C301.446 27.9967 301.463 27.9685 301.485 27.9453C301.507 27.9221 301.535 27.9046 301.565 27.8943C301.595 27.884 301.627 27.8811 301.658 27.8858H303.01C303.858 27.8858 304.474 26.6104 304.669 23.9371C304.708 23.1801 305.015 16.7968 305.015 10.8911V7.3005C305.015 4.94762 303.627 2.71411 301.698 2.67327L300.744 2.63243C300.55 2.63243 300.51 2.47222 300.51 2.35285V1.27536C300.51 1.1183 300.55 1.03662 300.744 1.03662C300.938 1.03662 301.245 1.07746 301.977 1.07746C302.709 1.07746 303.982 1.15599 305.99 1.15599C307.3 1.15599 308.46 1.07746 308.922 1.07746C309.135 1.0657 309.347 1.10659 309.541 1.19673C309.736 1.28688 309.907 1.42368 310.04 1.59578L318.992 12.9267L325.587 21.4241H325.742L325.751 17.7926Z" fill="#333333"/>
<path d="M337.404 19.4764V20.5444C337.404 24.6942 339.68 26.7298 342.496 26.7298C344.385 26.7298 345.928 25.8125 346.7 24.5308C346.709 24.4894 346.728 24.4513 346.756 24.4202C346.784 24.3892 346.82 24.3665 346.859 24.3543C346.898 24.3422 346.94 24.341 346.98 24.3511C347.02 24.3611 347.056 24.3819 347.086 24.4114L347.742 24.7727C347.897 24.8512 348.012 25.0523 347.666 25.7151C346.97 27.1915 344.464 29.9465 340.837 29.9465C338.367 29.9465 336.323 29.5067 335.065 28.0617C333.097 25.8627 332.441 24.3109 332.404 21.1978C332.343 19.0989 332.953 17.0377 334.139 15.3329C335.527 13.2188 337.881 12.0627 340.852 12.0627C347.101 12.0627 347.45 18.2481 347.45 18.8858C347.45 19.4041 347.101 19.4449 346.253 19.4449L337.404 19.4764ZM341.147 17.9528C341.997 17.9528 342.383 17.7517 342.383 17.1549C342.383 15.3989 341.688 13.6994 340.494 13.6994C338.671 13.6994 337.714 15.1758 337.456 17.9685L341.147 17.9528Z" fill="#333333"/>
<path d="M348.319 12.8452C348.319 12.6473 348.359 12.5311 348.553 12.5311C349.094 12.5311 349.865 12.6504 353.143 12.6504C355.072 12.6504 355.999 12.5311 356.576 12.5311C356.807 12.5311 356.88 12.6096 356.88 12.8452V13.7248C356.88 13.9227 356.84 14.0389 356.576 14.0389H356.075C355.728 14.0389 355.573 14.4002 355.728 14.9562L358.35 23.2148H358.584L360.935 16.9918C361.13 16.4326 360.975 15.1572 360.589 14.6389C360.358 14.3248 359.933 14.2808 359.586 14.2808H359.316C359.275 14.2865 359.233 14.2823 359.194 14.2685C359.154 14.2547 359.118 14.2318 359.089 14.2014C359.06 14.171 359.037 14.134 359.024 14.0933C359.011 14.0526 359.007 14.0093 359.012 13.9667V13.0871C359.012 12.8452 359.128 12.773 359.362 12.773C359.665 12.773 360.905 12.8923 363.335 12.8923C365.571 12.8923 366.422 12.773 366.728 12.773C367.035 12.773 367.078 12.8515 367.078 13.0117V13.8913C367.078 14.0892 367.038 14.2902 366.844 14.2902H366.306C366.212 14.3025 366.121 14.3369 366.042 14.3908C365.963 14.4448 365.896 14.5168 365.848 14.6014C365.799 14.686 365.77 14.7809 365.763 14.8789C365.755 14.9769 365.77 15.0753 365.805 15.1667L368.539 23.0201H368.694L370.775 16.9635C371.507 14.8902 370.966 14.0515 369.924 14.0515H369.399C369.204 14.0515 369.165 13.9321 369.165 13.7374V12.8075C369.16 12.7697 369.164 12.7313 369.176 12.6954C369.188 12.6594 369.208 12.6267 369.234 12.5997C369.26 12.5728 369.292 12.5523 369.327 12.5399C369.361 12.5275 369.398 12.5234 369.435 12.5279C369.669 12.5279 370.826 12.6473 372.986 12.6473C374.645 12.6473 375.338 12.5279 375.802 12.5279C375.994 12.5279 376.073 12.6473 376.073 12.886V13.7248C376.073 13.9227 375.994 14.0389 375.802 14.0389H375.417C374.809 14.0389 374.104 14.2808 373.834 14.8777C373.53 15.5562 368.512 28.0714 367.892 29.4787C367.814 29.6492 367.687 29.7905 367.528 29.8833C367.369 29.9761 367.186 30.0158 367.005 29.997C366.583 29.997 366.428 29.7175 366.157 29.0546L362.26 18.8012H362.029L357.709 29.3719C357.635 29.5585 357.508 29.7179 357.346 29.8298C357.184 29.9417 356.993 30.001 356.798 30.0002C356.412 30.0002 356.217 29.686 356.026 29.2023L350.43 15.1196C350.338 14.8121 350.155 14.5425 349.906 14.349C349.658 14.1556 349.356 14.0482 349.045 14.0421H348.58C348.349 14.0421 348.31 13.9227 348.31 13.684L348.319 12.8452Z" fill="#333333"/>
<path d="M388.537 16.6493C388.574 16.8472 388.537 16.9289 388.382 17.0074L387.687 17.3215C387.571 17.4001 387.456 17.3592 387.301 17.2022L385.141 14.8084C384.842 14.4544 384.475 14.1685 384.063 13.9689C383.652 13.7693 383.204 13.6605 382.75 13.6493C381.593 13.6493 380.475 14.4472 380.475 15.8043C380.551 17.2022 381.012 17.6011 383.868 18.399C385.758 18.9173 386.684 19.1969 387.841 20.4723C388.844 21.509 389.078 22.4671 389.078 23.865C389.078 27.4147 386.377 29.9687 382.17 29.9687C380.01 29.9687 378.12 29.1707 377.656 28.8095C377.585 28.7438 377.528 28.664 377.489 28.5749C377.449 28.4858 377.427 28.3892 377.425 28.2912L376.923 24.4618C376.923 24.3842 376.95 24.3091 377 24.2511C377.05 24.1931 377.119 24.1562 377.194 24.1477L377.89 23.9498C378.005 23.909 378.081 23.9498 378.157 24.11L379.7 26.4629C380.396 27.4995 381.283 28.4985 383.057 28.4985C384.485 28.4985 385.335 27.4618 385.335 26.0639C385.335 24.4681 384.214 23.9498 381.708 23.1519C378.974 22.3132 377.002 20.9529 377.002 18.0849C377.002 16.2001 377.54 14.6545 379.007 13.5362C380.551 12.3802 381.632 12.1006 383.26 12.1006C385.344 12.1006 386.602 12.5781 387.31 12.9393C387.89 13.2189 387.966 13.4168 388.006 13.6964L388.537 16.6493Z" fill="#333333"/>
</svg>
