<svg width="247" height="19" viewBox="0 0 247 19" fill="none" xmlns="http://www.w3.org/2000/svg">
<path d="M1.22891 13.0372C1.32727 13.0372 1.40056 13.0631 1.40056 13.2362C1.44877 14.0181 1.78627 15.1063 2.38028 16.0912C2.71046 16.6246 3.16717 17.0623 3.70716 17.3627C4.24715 17.6632 4.85254 17.8165 5.46602 17.8081C6.64246 17.8081 8.52669 17.0004 8.52669 15.0049C8.52669 12.9079 8.14097 12.3011 4.95109 11.0636C3.66265 10.5302 2.46429 9.78952 1.40056 8.86918C0.542335 8.0853 0.175903 6.74635 0.175903 5.28007C0.175903 3.74017 0.542335 2.70363 2.01192 1.56562C3.11507 0.708131 4.05043 0.353995 5.5393 0.353995C7.32903 0.353995 8.28176 0.656403 8.79669 0.859335C8.88978 0.911219 8.99783 0.926904 9.10118 0.903536C9.20453 0.880167 9.29632 0.819299 9.35984 0.732005L9.67805 0.397764C9.7262 0.347961 9.78372 0.308852 9.84707 0.282848C9.91042 0.256844 9.97826 0.244494 10.0464 0.24656C10.2181 0.24656 10.2663 0.525094 10.2913 0.676298L10.6771 4.99756C10.6771 5.09703 10.6288 5.1229 10.5556 5.14876L10.0291 5.3318C9.90755 5.38153 9.78412 5.3318 9.71084 5.15473C9.3796 4.18139 8.86066 3.28735 8.18533 2.52656C7.57203 1.81829 6.83531 1.46614 5.73602 1.46614C3.89808 1.46614 3.13821 3.1075 3.13821 3.76405C3.13821 4.69913 3.16328 5.45714 3.77658 6.08981C4.41301 6.77221 5.80931 7.37703 7.00889 7.73117C8.20847 8.0853 9.13033 8.72593 10.1448 9.65106C11.0994 10.5364 11.4948 11.6406 11.4948 13.4172C11.4948 16.499 9.37334 18.9999 6.13138 18.9999C3.92315 18.9999 2.77178 18.6218 1.73613 17.9056C1.44106 17.7067 1.29448 17.6291 1.17105 17.6291C1.04762 17.6291 0.926123 17.8042 0.785337 18.0568C0.64455 18.3095 0.519192 18.3692 0.347547 18.3692C0.077545 18.3692 -0.0208129 18.2418 0.00425872 17.9713L0.389976 13.1705C0.415048 12.9935 0.488334 12.9935 0.582835 12.9935L1.22891 13.0372Z" fill="white"/>
<path d="M23.1994 10.1067C23.1994 10.815 22.7096 11.3005 21.9247 11.3005C21.5269 11.3092 21.1376 11.1809 20.8184 10.9359C20.4991 10.6909 20.2682 10.3431 20.1619 9.94758C19.8669 9.03837 19.4021 8.73397 18.7174 8.73397C18.0328 8.73397 17.0993 9.72873 17.0993 11.3204C17.0993 12.912 17.0511 14.048 17.8843 15.6157C18.4956 16.7518 19.4021 17.08 20.5052 17.08C21.6084 17.08 22.1792 16.8532 22.9507 16.2723C23.0722 16.1967 23.1435 16.145 23.2187 16.2464L23.562 16.6006C23.6353 16.702 23.6102 16.7995 23.537 16.9288C23.0722 17.7624 21.1609 18.9761 18.9083 18.9761C17.0723 18.9761 15.8477 18.4449 15.0627 17.4342C14.0984 16.2206 13.8149 15.2457 13.8149 13.9465C13.8149 12.2296 14.353 10.3853 15.651 9.1458C16.629 8.18055 17.9329 7.64608 19.2863 7.65564C22.4878 7.65564 23.1994 9.32287 23.1994 10.1067Z" fill="white"/>
<path d="M25.795 17.1299C24.8635 16.0695 24.4932 14.7226 24.4932 13.131C24.4932 11.9929 25.1045 10.1248 26.5992 8.93703C27.6321 8.08078 28.9231 7.62465 30.2481 7.64781C31.9375 7.64781 33.0889 8.17902 34.192 9.23944C35.3916 10.3516 35.8815 11.7164 35.8815 13.2563C35.8553 14.7268 35.2959 16.1337 34.3135 17.1995C33.139 18.4629 31.7177 18.9682 30.0514 18.9682C28.2674 18.9762 27.0428 18.5962 25.795 17.1299ZM32.1593 13.0892C32.1593 10.1566 31.1796 8.71221 30.1015 8.71221C29.4882 8.71221 29.0967 8.88928 28.7785 9.39462C28.2886 10.1785 27.9704 11.2648 27.9704 13.312C27.9704 14.7763 28.0919 15.7372 28.5818 16.8235C28.9058 17.5079 29.2973 17.9058 30.2037 17.9058C31.5499 17.9058 32.1632 15.8685 32.1632 13.0892H32.1593Z" fill="white"/>
<path d="M41.7389 14.9336C41.7389 17.0047 42.4988 17.4603 43.0889 17.4603C43.5324 17.4833 43.9733 17.3779 44.3618 17.1559C44.4351 17.1062 44.5084 17.1062 44.5816 17.2574L44.7533 17.6374C44.7811 17.6944 44.7867 17.7603 44.7687 17.8214C44.7508 17.8825 44.7107 17.9342 44.6569 17.9657C44.2403 18.2681 43.1371 18.9763 41.2278 18.9763C39.5615 18.9763 38.5085 17.7826 38.5085 16.6267C38.5085 15.7414 38.5567 13.8215 38.5567 12.8605L38.5722 9.52608H37.2221C37.0023 9.52608 36.8364 9.42461 36.8364 9.17194C36.8364 8.91927 36.983 8.7422 37.3764 8.54126C38.1864 8.15728 40.2462 6.26723 41.1507 5.20482C41.2059 5.13017 41.2763 5.06888 41.357 5.02523C41.4376 4.98159 41.5265 4.95665 41.6174 4.95215C41.8373 4.95215 41.9356 5.12922 41.9356 5.33215L41.8373 8.01005H44.9481C45.0946 8.01005 45.1679 8.1354 45.1197 8.23686L44.8748 9.32314C44.8497 9.42461 44.8015 9.5221 44.6549 9.5221H41.789C41.7389 10.5586 41.7389 11.7703 41.7389 12.9321V14.9336Z" fill="white"/>
<path d="M50.0916 14.9336C50.0916 17.0047 50.8514 17.4603 51.4416 17.4603C51.8857 17.4836 52.3273 17.3782 52.7164 17.1559C52.7897 17.1062 52.863 17.1062 52.9363 17.2574L53.1079 17.6374C53.1356 17.6946 53.1408 17.7607 53.1225 17.8219C53.1042 17.883 53.0637 17.9345 53.0095 17.9657C52.593 18.2681 51.4917 18.9763 49.5805 18.9763C47.9161 18.9763 46.8612 17.7826 46.8612 16.6267C46.8612 15.7414 46.9113 13.8215 46.9113 12.8605L46.9364 9.52608H45.5864C45.3665 9.52608 45.2007 9.42461 45.2007 9.17194C45.2007 8.91927 45.3473 8.7422 45.7388 8.54126C46.5391 8.15728 48.6008 6.26723 49.5034 5.20482C49.5584 5.13042 49.6285 5.06928 49.7088 5.02564C49.789 4.98201 49.8775 4.95693 49.9682 4.95215C50.1899 4.95215 50.2864 5.12922 50.2864 5.33215L50.1899 8.01005H53.3008C53.4473 8.01005 53.5206 8.1354 53.4705 8.23686L53.2294 9.32314C53.224 9.37889 53.1984 9.43045 53.1575 9.46739C53.1167 9.50433 53.0638 9.52388 53.0095 9.5221H50.1437C50.0954 10.5586 50.0954 11.7703 50.0954 12.9321L50.0916 14.9336Z" fill="white"/>
<path d="M60.0586 18.7014C59.8658 18.7014 58.7375 18.6258 56.6065 18.6258C55.1851 18.6258 54.2304 18.7014 53.9604 18.7014C53.8389 18.7014 53.7676 18.6517 53.7676 18.4488V17.9395C53.7676 17.7883 53.8409 17.7405 54.0125 17.7405H54.9189C55.187 17.7405 55.3587 17.641 55.3837 17.2352C55.4319 16.4772 55.4319 15.6953 55.4319 14.987L55.3837 11.4496C55.3837 10.7413 55.2372 10.236 54.2073 9.85799C53.9392 9.75653 53.9141 9.65904 53.9141 9.50386V9.22532C53.9141 9.14972 53.9624 9.09998 54.1842 9.02637L57.833 7.81276C58.0438 7.72443 58.2674 7.67331 58.4945 7.66155C58.6874 7.66155 58.7626 7.78888 58.7395 7.96396C58.6893 8.3937 58.6893 9.98532 58.6893 12.2096V14.9074C58.6893 15.8922 58.6893 16.8014 58.7144 17.08C58.7626 17.5595 58.886 17.7365 59.156 17.7365H60.0374C60.2303 17.7365 60.2823 17.8121 60.2823 17.9653V18.4448C60.2804 18.6219 60.2303 18.7014 60.0586 18.7014ZM56.701 5.73569C56.4662 5.74299 56.2325 5.70108 56.0139 5.61249C55.7953 5.5239 55.5964 5.39047 55.4293 5.22028C55.2622 5.05009 55.1302 4.84668 55.0415 4.62237C54.9528 4.39806 54.9091 4.1575 54.9132 3.91527C54.9132 3.08166 55.7444 2.24805 56.8225 2.24805C58.022 2.24805 58.6353 3.10752 58.6353 3.83967C58.6392 4.67328 58.076 5.68396 56.701 5.73569Z" fill="white"/>
<path d="M68.9262 10.5444C68.9494 10.6698 68.9262 10.7215 68.8279 10.7712L68.3862 10.9702C68.3129 11.0199 68.2397 10.994 68.1413 10.8946L66.7701 9.37855C66.5803 9.1543 66.3473 8.97323 66.086 8.84684C65.8247 8.72046 65.5408 8.65152 65.2523 8.64441C64.5175 8.64441 63.8058 9.14975 63.8058 10.0092C63.856 10.8946 64.1491 11.1472 65.962 11.6526C67.1616 11.9809 67.7498 12.1579 68.4846 12.9657C69.121 13.6222 69.2695 14.229 69.2695 15.1144C69.2695 17.3625 67.555 18.98 64.8839 18.98C63.5127 18.98 62.3131 18.4747 62.018 18.2459C61.9733 18.2043 61.9372 18.1537 61.912 18.0973C61.8868 18.0409 61.873 17.9797 61.8714 17.9176L61.5532 15.4924C61.5529 15.4432 61.5703 15.3956 61.602 15.3589C61.6337 15.3222 61.6775 15.2988 61.7249 15.2934L62.1665 15.1681C62.2398 15.1422 62.288 15.1681 62.3382 15.2695L63.3179 16.7597C63.7576 17.4162 64.3208 18.0489 65.4393 18.0489C66.3458 18.0489 66.8858 17.3924 66.8858 16.507C66.8858 15.4963 66.1741 15.1681 64.583 14.6627C62.8473 14.1315 61.5957 13.2701 61.5957 11.4536C61.5957 10.2599 61.937 9.28106 62.8685 8.57279C63.8483 7.84064 64.5348 7.66357 65.5686 7.66357C66.8916 7.66357 67.6997 7.96598 68.1394 8.19478C68.5077 8.37185 68.556 8.49719 68.581 8.67425L68.9262 10.5444Z" fill="white"/>
<path d="M75.1227 16.712C75.1227 17.4701 75.2693 17.7466 75.4892 17.7466H75.9868C76.1102 17.7466 76.1796 17.7983 76.1796 17.9455V18.425C76.1796 18.6021 76.1545 18.7036 76.008 18.7036C75.8151 18.7036 74.685 18.628 73.2405 18.628C71.5259 18.628 70.5944 18.7036 70.3746 18.7036C70.2762 18.7036 70.2029 18.628 70.2029 18.4509V17.9396C70.2029 17.7625 70.3013 17.7406 70.5713 17.7406H70.957C71.3427 17.7406 71.7149 17.6412 71.7901 17.3109C71.9117 16.8573 71.9117 16.4017 71.9117 15.6437L71.8634 5.13298C71.8634 3.86963 71.5452 3.14346 70.7063 2.80921L70.2646 2.65602C70.1181 2.58042 70.0718 2.50482 70.0718 2.42921V2.09696C70.0718 1.9955 70.1451 1.89801 70.4864 1.79455C71.8364 1.39665 72.7159 0.984817 74.1855 0.25267C74.4192 0.110524 74.6808 0.0241873 74.9511 0C75.171 0 75.2211 0.198953 75.171 0.630681C75.1208 1.06241 75.0977 6.18942 75.0977 7.68157V9.19759H75.2693C75.8575 8.23665 77.0571 7.65571 78.4033 7.65571C79.5064 7.65571 80.139 7.98398 80.9104 8.65047C82.0676 9.64524 81.9634 10.9006 81.9634 12.5161V14.0839C81.9634 15.3472 81.9152 16.8891 81.9152 17.3686C81.9152 17.7227 82.4051 17.7466 82.6982 17.7466H83.163C83.3559 17.7466 83.433 17.7983 83.433 17.9237V18.4549C83.433 18.6061 83.3848 18.7075 83.2402 18.7075C83.0955 18.7075 82.2855 18.6319 80.571 18.6319C78.8565 18.6319 78.0002 18.7075 77.7784 18.7075C77.6068 18.7075 77.5586 18.6319 77.5586 18.429V17.9396C77.5586 17.8123 77.5836 17.7406 77.7302 17.7406H78.0484C78.1857 17.7457 78.3202 17.7003 78.428 17.6125C78.5358 17.5246 78.6097 17.4001 78.6366 17.2612C78.6598 16.907 78.7099 15.5681 78.7099 14.8101V13.2642C78.7099 12.0267 78.7832 10.258 78.1468 9.60147C78.0023 9.43559 77.8228 9.30611 77.6222 9.22299C77.4216 9.13987 77.2052 9.10532 76.9896 9.12199C76.4496 9.12199 75.9115 9.5756 75.5451 10.0053C75.2582 10.3478 75.1091 10.7906 75.1285 11.2428L75.1227 16.712Z" fill="white"/>
<path d="M95.3535 9.70303C96.1646 9.7062 96.975 9.65503 97.7796 9.54984C98.1962 9.49811 98.661 9.16984 99.0525 8.63863C99.3215 8.23628 99.5054 7.7801 99.5925 7.29968C99.6176 7.17434 99.6909 7.10073 99.7854 7.10073L100.349 7.15046C100.445 7.15046 100.495 7.22607 100.495 7.32753C100.445 7.75727 100.445 9.85423 100.445 10.2084C100.445 11.1176 100.518 12.3312 100.568 12.8365C100.568 12.9619 100.518 13.0116 100.397 13.0355L99.8587 13.1628C99.7603 13.1867 99.687 13.1111 99.6658 12.9639C99.5455 12.5461 99.39 12.14 99.201 11.7503C98.9059 11.3225 98.4411 10.8669 97.9995 10.7396C97.1251 10.5985 96.2401 10.5399 95.3554 10.5645V11.5234C95.3554 12.2815 95.3805 16.5271 95.3805 16.8554C95.3805 17.5378 95.6254 17.6631 95.959 17.6631H97.4055C97.5521 17.6631 97.6254 17.7149 97.6254 17.8143V18.5027C97.6254 18.6559 97.5752 18.7017 97.4325 18.7017C97.1876 18.7017 96.2078 18.6261 93.6621 18.6261C91.261 18.6261 90.3295 18.7017 89.9631 18.7017C89.8647 18.7017 89.8165 18.6519 89.8165 18.4749V17.7885C89.8165 17.687 89.8898 17.6611 89.9881 17.6611H90.8444C91.3594 17.6611 91.5542 17.5597 91.5792 17.1558C91.6043 16.6505 91.6776 13.4672 91.6776 9.12209V7.36135C91.6776 6.24921 91.6274 2.68596 91.6274 2.43329C91.6274 1.95381 91.2861 1.70114 90.6246 1.70114H89.6217C89.4751 1.70114 89.4019 1.64942 89.4019 1.54994V0.807846C89.4019 0.70837 89.4751 0.656642 89.5735 0.656642C89.8416 0.656642 90.7731 0.732244 93.7605 0.732244C94.1038 0.732244 100.545 0.656642 101.722 0.656642C102.26 0.656642 102.8 0.555176 102.995 0.555176C103.118 0.555176 103.187 0.708369 103.239 0.984914L104.204 5.10324C104.229 5.20471 104.204 5.28031 104.13 5.30219L103.641 5.58073C103.519 5.63046 103.469 5.58073 103.299 5.32806C102.707 4.51442 102.069 3.73779 101.388 3.0023C100.932 2.47212 100.345 2.08064 99.6889 1.87025C99.0757 1.69319 96.4798 1.61758 95.3785 1.61758C95.3785 1.94586 95.3535 6.9734 95.3535 8.51528V9.70303Z" fill="white"/>
<path d="M110.533 18.7019C110.34 18.7019 109.21 18.6263 107.081 18.6263C105.66 18.6263 104.705 18.7019 104.435 18.7019C104.312 18.7019 104.242 18.6521 104.242 18.4492V17.9399C104.242 17.7887 104.315 17.7409 104.487 17.7409H105.394C105.664 17.7409 105.835 17.6414 105.86 17.2356C105.908 16.4776 105.908 15.6957 105.908 14.9874L105.86 11.45C105.86 10.7418 105.712 10.2364 104.684 9.85841C104.414 9.75695 104.391 9.65946 104.391 9.50428V9.22574C104.391 9.15014 104.439 9.1004 104.659 9.02679L108.31 7.81318C108.52 7.72488 108.743 7.67376 108.969 7.66197C109.006 7.65783 109.043 7.66313 109.078 7.6774C109.112 7.69167 109.143 7.71446 109.166 7.74377C109.19 7.77308 109.207 7.808 109.214 7.84544C109.222 7.88287 109.221 7.92168 109.21 7.95841C109.158 8.38815 109.158 9.97977 109.158 12.2041V14.9078C109.158 15.8927 109.158 16.8019 109.183 17.0804C109.231 17.5599 109.355 17.7369 109.623 17.7369H110.508C110.701 17.7369 110.753 17.8125 110.753 17.9657V18.4452C110.755 18.6223 110.701 18.7019 110.533 18.7019ZM107.177 5.74009C106.943 5.74739 106.709 5.70548 106.49 5.61688C106.272 5.52829 106.073 5.39486 105.906 5.22467C105.739 5.05449 105.607 4.85108 105.518 4.62676C105.429 4.40245 105.386 4.1619 105.39 3.91967C105.39 3.08605 106.223 2.25244 107.301 2.25244C108.501 2.25244 109.114 3.11192 109.114 3.84406C109.114 4.6737 108.551 5.68438 107.177 5.73611V5.74009Z" fill="white"/>
<path d="M116.038 9.04648H116.23C116.566 8.67196 116.965 8.36325 117.407 8.13527C117.982 7.80257 118.634 7.63687 119.293 7.6558C120.257 7.6558 121.179 7.75726 121.816 8.36407C122.844 9.35884 122.919 9.97957 122.919 11.2429V13.9268C122.919 14.7843 122.869 15.972 122.82 16.8574C122.795 17.6154 123.187 17.7407 123.399 17.7407H124.059C124.28 17.7407 124.329 17.8163 124.329 17.9695V18.4231C124.329 18.6002 124.28 18.7017 124.136 18.7017C123.991 18.7017 123.206 18.6261 121.243 18.6261C119.627 18.6261 118.842 18.7017 118.67 18.7017C118.499 18.7017 118.477 18.6261 118.477 18.4231V17.9655C118.477 17.7885 118.551 17.7367 118.795 17.7367H119.066C119.237 17.7367 119.451 17.6114 119.505 17.1558C119.622 16.2838 119.674 15.4039 119.661 14.5237V11.8259C119.661 10.8649 119.588 10.2084 119.083 9.7269C118.924 9.56881 118.736 9.44676 118.529 9.36862C118.322 9.29049 118.101 9.25801 117.881 9.27329C117.442 9.27329 117.123 9.39863 116.634 9.77863C116.338 10.0054 116.144 10.6878 116.144 11.7244L116.094 16.8972C116.094 17.3528 116.265 17.7308 116.479 17.7308H116.799C116.992 17.7308 117.044 17.8064 117.044 17.9834V18.4649C117.044 18.6161 116.994 18.6917 116.873 18.6917C116.701 18.6917 116.04 18.6161 114.423 18.6161C112.688 18.6161 111.901 18.6917 111.752 18.6917C111.604 18.6917 111.581 18.6161 111.581 18.4649V17.9655C111.581 17.8123 111.631 17.7367 111.826 17.7367H112.194C112.464 17.7367 112.881 17.6611 112.881 17.2314V11.6229C112.881 10.8649 112.464 10.4292 111.901 10.1566L111.679 10.0572C111.626 10.0354 111.58 9.99673 111.549 9.94669C111.518 9.89665 111.504 9.83781 111.507 9.77863V9.54983C111.507 9.4225 111.606 9.35088 111.729 9.29716L114.863 7.83088C115.039 7.73796 115.23 7.67801 115.426 7.65381C115.507 7.66115 115.583 7.69451 115.645 7.74914C115.706 7.80378 115.749 7.87692 115.768 7.95821L116.038 9.04648Z" fill="white"/>
<path d="M130.952 10.5624C130.952 10.057 130.903 9.47409 130.583 9.16969C130.338 8.94289 129.947 8.86729 129.555 8.86729C129.093 8.85711 128.639 8.99623 128.257 9.26519C127.889 9.51786 128.184 9.9476 128.184 10.7553C128.184 11.6148 127.571 12.1958 126.591 12.1958C126.028 12.1958 125.538 11.8416 125.538 11.2866C125.538 10.7315 125.71 9.97147 126.225 9.51786C127.521 8.32753 129.191 7.66299 130.927 7.64771C132.495 7.64771 132.911 7.90038 133.434 8.37985C133.956 8.85933 134.118 9.61933 134.118 10.5285L134.169 15.5561C134.192 16.8712 134.265 17.275 134.732 17.275C134.877 17.2649 135.018 17.2181 135.142 17.1386C135.265 17.0592 135.368 16.9496 135.441 16.8194C135.54 16.6682 135.613 16.6424 135.686 16.6941L136.03 16.893C136.128 16.9448 136.201 17.0204 136.103 17.2472C135.883 17.7784 135.148 18.9661 133.629 18.9661C132.664 18.9661 131.767 18.612 131.303 17.4242H131.179C130.579 18.0158 129.86 18.464 129.073 18.7373C128.502 18.915 127.906 18.9923 127.31 18.9661C126.452 18.9661 125.692 18.0052 125.692 16.6404C125.692 15.5282 126.207 14.3663 127.8 13.5586C129.71 12.6235 130.323 12.345 130.959 11.8914L130.952 10.5624ZM130.977 12.912C129.775 13.6183 128.772 13.9983 128.772 15.7411C128.772 16.903 129.285 17.3845 129.825 17.4083C130.487 17.3586 130.982 16.7259 130.982 16.4991L130.977 12.912Z" fill="white"/>
<path d="M141.044 9.04648H141.236C141.571 8.67196 141.969 8.36322 142.411 8.13527C142.986 7.80275 143.638 7.63707 144.297 7.6558C145.261 7.6558 146.183 7.75726 146.82 8.36407C147.85 9.35884 147.923 9.97957 147.923 11.2429V13.9268C147.923 14.7843 147.875 15.972 147.825 16.8574C147.799 17.6154 148.193 17.7407 148.403 17.7407H149.08C149.3 17.7407 149.35 17.8163 149.35 17.9695V18.4231C149.35 18.6002 149.3 18.7017 149.157 18.7017C149.014 18.7017 148.226 18.6261 146.264 18.6261C144.648 18.6261 143.865 18.7017 143.694 18.7017C143.522 18.7017 143.501 18.6261 143.501 18.4231V17.9655C143.501 17.7885 143.574 17.7367 143.819 17.7367H144.089C144.261 17.7367 144.475 17.6114 144.531 17.1558C144.64 16.2832 144.687 15.4034 144.669 14.5237V11.8259C144.669 10.8649 144.596 10.2084 144.091 9.7269C143.933 9.56886 143.744 9.44682 143.538 9.36868C143.331 9.29054 143.111 9.25804 142.891 9.27329C142.45 9.27329 142.131 9.39863 141.641 9.77863C141.348 10.0054 141.152 10.6878 141.152 11.7244L141.103 16.8972C141.103 17.3528 141.275 17.7308 141.489 17.7308H141.807C142 17.7308 142.052 17.8064 142.052 17.9834V18.4649C142.052 18.6161 142.004 18.6917 141.881 18.6917C141.709 18.6917 141.047 18.6161 139.431 18.6161C137.696 18.6161 136.909 18.6917 136.762 18.6917C136.616 18.6917 136.591 18.6161 136.591 18.4649V17.9655C136.591 17.8123 136.639 17.7367 136.835 17.7367H137.202C137.472 17.7367 137.888 17.6611 137.888 17.2314V11.6229C137.888 10.8649 137.472 10.4292 136.909 10.1566L136.689 10.0572C136.635 10.0357 136.59 9.99705 136.559 9.94694C136.528 9.89684 136.513 9.83786 136.517 9.77863V9.54983C136.517 9.4225 136.616 9.35088 136.737 9.29716L139.873 7.83088C140.049 7.73744 140.24 7.67746 140.436 7.65381C140.516 7.66155 140.592 7.69509 140.653 7.74969C140.714 7.80429 140.757 7.87722 140.776 7.95821L141.044 9.04648Z" fill="white"/>
<path d="M159.855 10.1067C159.855 10.815 159.365 11.3004 158.58 11.3004C158.183 11.3091 157.793 11.1808 157.474 10.9358C157.155 10.6908 156.924 10.3431 156.818 9.94752C156.523 9.03831 156.058 8.73391 155.373 8.73391C154.689 8.73391 153.755 9.72867 153.755 11.3203C153.755 12.9119 153.707 14.0479 154.54 15.6157C155.151 16.7517 156.058 17.08 157.161 17.08C158.264 17.08 158.825 16.8532 159.61 16.2722C159.732 16.1966 159.803 16.1449 159.878 16.2464L160.222 16.6005C160.295 16.702 160.272 16.7995 160.197 16.9288C159.732 17.7624 157.821 18.976 155.568 18.976C153.732 18.976 152.507 18.4448 151.722 17.4341C150.758 16.2205 150.475 15.2456 150.475 13.9465C150.475 12.2295 151.013 10.3852 152.311 9.14574C153.286 8.1829 154.586 7.64861 155.936 7.65559C159.144 7.65559 159.855 9.32281 159.855 10.1067Z" fill="white"/>
<path d="M167.031 18.7019C166.838 18.7019 165.708 18.6263 163.577 18.6263C162.156 18.6263 161.201 18.7019 160.931 18.7019C160.81 18.7019 160.738 18.6521 160.738 18.4492V17.9399C160.738 17.7887 160.812 17.7409 160.983 17.7409H161.89C162.158 17.7409 162.329 17.6414 162.354 17.2356C162.403 16.4776 162.403 15.6957 162.403 14.9874L162.354 11.45C162.354 10.7418 162.208 10.2364 161.178 9.85841C160.91 9.75695 160.885 9.65946 160.885 9.50428V9.22574C160.885 9.15014 160.933 9.1004 161.155 9.02679L164.804 7.81318C165.014 7.72484 165.238 7.67373 165.465 7.66197C165.502 7.65797 165.539 7.66335 165.574 7.67762C165.608 7.69189 165.639 7.71463 165.663 7.74386C165.687 7.77309 165.703 7.80792 165.711 7.84531C165.719 7.88271 165.718 7.92154 165.708 7.95841C165.666 8.38815 165.666 9.97977 165.666 12.2041V14.9078C165.666 15.8927 165.666 16.8019 165.691 17.0804C165.741 17.5599 165.862 17.7369 166.132 17.7369H167.016C167.209 17.7369 167.261 17.8125 167.261 17.9657V18.4452C167.251 18.6223 167.209 18.7019 167.031 18.7019ZM163.675 5.74009C163.441 5.74739 163.207 5.70548 162.988 5.61688C162.77 5.52829 162.571 5.39486 162.404 5.22467C162.237 5.05449 162.105 4.85108 162.016 4.62676C161.927 4.40245 161.884 4.1619 161.888 3.91967C161.888 3.08605 162.719 2.25244 163.797 2.25244C164.998 2.25244 165.61 3.11192 165.61 3.84406C165.61 4.6737 165.047 5.68438 163.675 5.73611V5.74009Z" fill="white"/>
<path d="M173.741 10.5624C173.741 10.057 173.692 9.47409 173.374 9.1697C173.129 8.94289 172.738 8.86729 172.344 8.86729C171.882 8.85737 171.428 8.99647 171.046 9.26519C170.68 9.51786 170.973 9.9476 170.973 10.7554C170.973 11.6148 170.362 12.1958 169.382 12.1958C168.819 12.1958 168.329 11.8416 168.329 11.2866C168.329 10.7315 168.501 9.97148 169.014 9.51786C170.31 8.32755 171.982 7.66305 173.718 7.64771C175.284 7.64771 175.7 7.90038 176.225 8.37985C176.749 8.85933 176.911 9.61933 176.911 10.5285L176.96 15.5561C176.985 16.8712 177.058 17.275 177.523 17.275C177.668 17.2651 177.809 17.2183 177.933 17.1389C178.057 17.0594 178.159 16.9497 178.232 16.8194C178.331 16.6682 178.404 16.6424 178.477 16.6941L178.821 16.893C178.919 16.9448 178.992 17.0204 178.894 17.2472C178.674 17.7784 177.939 18.9661 176.421 18.9661C175.457 18.9661 174.558 18.612 174.094 17.4243H173.959C173.357 18.0153 172.638 18.4635 171.851 18.7373C171.285 18.9168 170.693 18.9975 170.101 18.9761C169.245 18.9761 168.485 18.0151 168.485 16.6503C168.485 15.5382 169 14.3763 170.591 13.5685C172.503 12.6335 173.114 12.3549 173.75 11.9013L173.741 10.5624ZM173.766 12.912C172.566 13.6183 171.561 13.9983 171.561 15.7411C171.561 16.903 172.076 17.3845 172.614 17.4083C173.276 17.3586 173.772 16.7259 173.772 16.4991L173.766 12.912Z" fill="white"/>
<path d="M183.833 13.5683C183.833 14.579 183.833 16.2203 183.906 16.9505C183.929 17.3802 184.005 17.7324 184.518 17.7324H185.351C185.571 17.7324 185.621 17.808 185.621 17.9612V18.4406C185.621 18.5918 185.571 18.6933 185.474 18.6933C185.303 18.6933 184.225 18.6177 182.29 18.6177C180.232 18.6177 179.253 18.6933 179.033 18.6933C178.909 18.6933 178.861 18.5918 178.861 18.3909V17.9651C178.861 17.7881 178.909 17.7363 179.179 17.7363H179.914C180.182 17.7363 180.576 17.5593 180.576 16.6501V8.61633C180.576 6.82576 180.576 4.77455 180.526 4.11801C180.477 3.25853 179.962 2.9044 179.176 2.65173L178.734 2.50052C178.562 2.42492 178.541 2.34932 178.541 2.22398V1.84398C178.541 1.76837 178.589 1.66691 178.761 1.64502C179.862 1.41822 182.41 0.558741 183.119 0.18073C183.286 0.0842548 183.47 0.0239915 183.659 0.00366211C183.806 0.00366211 183.904 0.129002 183.879 0.459264C183.854 1.85193 183.831 7.10429 183.831 8.84712L183.833 13.5683Z" fill="white"/>
<path d="M206.806 11.2686C206.806 9.02047 206.781 7.78299 206.733 6.51964C206.708 5.52487 206.587 3.05786 206.513 2.67786C206.436 2.38627 206.266 2.12987 206.031 1.94957C205.795 1.76926 205.508 1.67545 205.215 1.68309H204.43C204.309 1.68309 204.284 1.60749 204.284 1.45628V0.833562C204.284 0.708222 204.309 0.656494 204.504 0.656494C204.774 0.656494 205.557 0.732096 207.37 0.732096C208.839 0.732096 209.427 0.656494 209.697 0.656494C209.917 0.656494 209.942 0.708222 209.942 0.855447V1.46623C209.942 1.59157 209.917 1.69304 209.819 1.69304H209.134C208.718 1.69304 208.473 2.12278 208.399 3.03199C208.228 4.72508 207.836 10.435 207.836 13.7754V18.0907C207.836 18.4707 207.811 18.9243 207.468 18.9243C207.289 18.9308 207.111 18.8988 206.945 18.8302C206.779 18.7617 206.629 18.6583 206.504 18.5264C206.087 18.1285 204.885 16.7836 203.418 14.9891L199.231 9.86005C198.814 9.35471 195.433 5.00958 194.87 4.17398H194.677V9.27314C194.677 11.3701 194.897 14.4777 194.922 15.4407C194.971 16.905 195.412 17.663 196.44 17.663H197.054C197.223 17.663 197.246 17.7386 197.246 17.8918V18.4886C197.246 18.6418 197.221 18.6876 197.054 18.6876C196.809 18.6876 195.339 18.612 194.188 18.612C193.428 18.612 191.738 18.6876 191.488 18.6876C191.389 18.6876 191.364 18.6379 191.364 18.4608V17.8122C191.361 17.7916 191.363 17.7707 191.369 17.751C191.376 17.7312 191.386 17.7133 191.401 17.6986C191.415 17.6839 191.432 17.6729 191.451 17.6664C191.47 17.6598 191.491 17.658 191.511 17.661H192.369C192.907 17.661 193.299 16.8532 193.422 15.1602C193.447 14.6807 193.642 10.638 193.642 6.89765V4.62361C193.642 3.13346 192.76 1.7189 191.536 1.69304L190.93 1.66717C190.807 1.66717 190.782 1.56571 190.782 1.49011V0.807698C190.782 0.708222 190.807 0.656494 190.93 0.656494C191.054 0.656494 191.248 0.682358 191.713 0.682358C192.178 0.682358 192.986 0.732096 194.261 0.732096C195.092 0.732096 195.829 0.682358 196.122 0.682358C196.257 0.674909 196.392 0.700805 196.515 0.757898C196.639 0.81499 196.747 0.901632 196.832 1.01063L202.515 8.18686L206.702 13.5685H206.801L206.806 11.2686Z" fill="white"/>
<path d="M214.204 12.3352V13.0116C214.204 15.6398 215.649 16.929 217.437 16.929C218.636 16.929 219.616 16.3481 220.106 15.5363C220.112 15.5101 220.124 15.486 220.142 15.4663C220.159 15.4467 220.182 15.4322 220.207 15.4246C220.232 15.4169 220.258 15.4161 220.284 15.4225C220.309 15.4289 220.332 15.4421 220.351 15.4607L220.767 15.6895C220.866 15.7393 220.939 15.8666 220.719 16.2864C220.278 17.2215 218.686 18.9663 216.384 18.9663C214.816 18.9663 213.518 18.6877 212.719 17.7726C211.47 16.3799 211.053 15.3971 211.03 13.4254C210.991 12.0961 211.378 10.7907 212.131 9.71099C213.013 8.37204 214.507 7.63989 216.393 7.63989C220.36 7.63989 220.582 11.5573 220.582 11.9611C220.582 12.2894 220.36 12.3153 219.822 12.3153L214.204 12.3352ZM216.58 11.3703C217.12 11.3703 217.365 11.2429 217.365 10.8649C217.365 9.75277 216.924 8.67644 216.166 8.67644C215.009 8.67644 214.401 9.61152 214.237 11.3802L216.58 11.3703Z" fill="white"/>
<path d="M221.134 8.13544C221.134 8.0101 221.159 7.93648 221.283 7.93648C221.626 7.93648 222.116 8.01209 224.197 8.01209C225.421 8.01209 226.01 7.93648 226.376 7.93648C226.523 7.93648 226.569 7.98622 226.569 8.13544V8.6925C226.569 8.81784 226.544 8.89146 226.376 8.89146H226.058C225.838 8.89146 225.74 9.12025 225.838 9.4724L227.502 14.7029H227.651L229.144 10.7616C229.267 10.4075 229.169 9.59973 228.924 9.27146C228.777 9.0725 228.507 9.04465 228.287 9.04465H228.116C228.09 9.04825 228.063 9.04559 228.038 9.03687C228.013 9.02814 227.99 9.01359 227.972 8.99435C227.953 8.9751 227.939 8.95168 227.93 8.9259C227.922 8.90012 227.919 8.87267 227.923 8.8457V8.28863C227.923 8.13544 227.996 8.08968 228.145 8.08968C228.337 8.08968 229.124 8.16528 230.667 8.16528C232.087 8.16528 232.627 8.08968 232.821 8.08968C233.016 8.08968 233.043 8.13941 233.043 8.24088V8.79795C233.043 8.92329 233.018 9.05062 232.895 9.05062H232.553C232.493 9.05838 232.436 9.08017 232.386 9.11433C232.335 9.14848 232.293 9.1941 232.262 9.24768C232.232 9.30126 232.213 9.36138 232.208 9.42343C232.204 9.48549 232.213 9.54784 232.235 9.6057L233.971 14.5795H234.069L235.39 10.7437C235.855 9.43062 235.512 8.89941 234.85 8.89941H234.517C234.393 8.89941 234.368 8.82381 234.368 8.70046V8.11156C234.365 8.08762 234.368 8.06333 234.376 8.04053C234.383 8.01773 234.396 7.99702 234.412 7.97997C234.429 7.96291 234.449 7.94996 234.471 7.94208C234.493 7.9342 234.517 7.93161 234.54 7.93449C234.688 7.93449 235.423 8.0101 236.794 8.0101C237.847 8.0101 238.287 7.93449 238.582 7.93449C238.704 7.93449 238.754 8.0101 238.754 8.1613V8.6925C238.754 8.81784 238.704 8.89146 238.582 8.89146H238.337C237.952 8.89146 237.504 9.04465 237.332 9.42266C237.14 9.8524 233.954 17.7787 233.56 18.67C233.511 18.778 233.43 18.8675 233.329 18.9262C233.228 18.985 233.112 19.0102 232.997 18.9983C232.729 18.9983 232.631 18.8212 232.459 18.4014L229.985 11.9076H229.838L227.095 18.6023C227.048 18.7205 226.968 18.8215 226.865 18.8923C226.762 18.9632 226.641 19.0008 226.517 19.0002C226.272 19.0002 226.149 18.8013 226.027 18.4949L222.475 9.57585C222.416 9.38114 222.3 9.21038 222.142 9.08787C221.984 8.96535 221.793 8.89732 221.595 8.89345H221.3C221.153 8.89345 221.128 8.81784 221.128 8.66664L221.134 8.13544Z" fill="white"/>
<path d="M246.666 10.5444C246.69 10.6698 246.666 10.7215 246.568 10.7712L246.126 10.9702C246.053 11.0199 245.98 10.994 245.882 10.8946L244.51 9.37855C244.32 9.1543 244.087 8.97323 243.826 8.84684C243.565 8.72046 243.281 8.65152 242.992 8.64441C242.258 8.64441 241.548 9.14975 241.548 10.0092C241.596 10.8946 241.889 11.1472 243.702 11.6526C244.902 11.9809 245.49 12.1579 246.225 12.9657C246.861 13.6222 247.01 14.229 247.01 15.1144C247.01 17.3625 245.295 18.98 242.624 18.98C241.253 18.98 240.053 18.4747 239.758 18.2459C239.713 18.2043 239.677 18.1537 239.652 18.0973C239.627 18.0409 239.613 17.9797 239.612 17.9176L239.293 15.4924C239.293 15.4432 239.311 15.3956 239.342 15.3589C239.374 15.3222 239.418 15.2988 239.465 15.2934L239.907 15.1681C239.98 15.1422 240.028 15.1681 240.076 15.2695L241.056 16.7597C241.498 17.4162 242.061 18.0489 243.187 18.0489C244.094 18.0489 244.634 17.3924 244.634 16.507C244.634 15.4963 243.922 15.1681 242.331 14.6627C240.595 14.1315 239.344 13.2701 239.344 11.4536C239.344 10.2599 239.685 9.28106 240.616 8.57279C241.596 7.84064 242.283 7.66357 243.316 7.66357C244.639 7.66357 245.438 7.96598 245.887 8.19478C246.256 8.37185 246.304 8.49719 246.329 8.67425L246.666 10.5444Z" fill="white"/>
</svg>
