<svg xmlns="http://www.w3.org/2000/svg" xmlns:xlink="http://www.w3.org/1999/xlink" width="312.597" height="106.927" viewBox="0 0 312.597 106.927">
  <defs>
    <clipPath id="clip-path">
      <rect id="Rectangle_2" data-name="Rectangle 2" width="312.597" height="106.927" fill="#fff"/>
    </clipPath>
  </defs>
  <g id="Group_2" data-name="Group 2" clip-path="url(#clip-path)">
    <path id="Path_22" data-name="Path 22" d="M8.6,72.924c.651,0,1.136.147,1.136,1.135.319,4.46,2.553,10.655,6.484,16.284a23.007,23.007,0,0,0,8.782,7.253,26.274,26.274,0,0,0,11.641,2.54c7.786,0,20.257-4.607,20.257-15.988,0-11.96-2.553-15.421-23.665-22.479a89.8,89.8,0,0,1-23.5-12.482c-5.68-4.505-8.105-12.142-8.105-20.5,0-8.783,2.425-14.695,12.152-21.186C21.088,2.6,27.279.584,37.133.584c11.846,0,18.151,1.691,21.559,2.882a3.247,3.247,0,0,0,2.015.252,2.98,2.98,0,0,0,1.712-.978L64.525.868A3.367,3.367,0,0,1,65.644.212a3.677,3.677,0,0,1,1.32-.207c1.136,0,1.455,1.589,1.621,2.451L71.137,27.1c0,.567-.319.715-.8.862l-3.574,1.01a1.631,1.631,0,0,1-2.106-1.01,42.882,42.882,0,0,0-10.046-14.99C50.548,8.936,45.672,6.927,38.4,6.927,26.232,6.927,21.2,16.289,21.2,20.033c0,5.333.166,9.657,4.225,13.265,4.212,3.892,13.454,7.342,21.393,9.362s14.041,5.617,20.755,10.95c6.318,5.05,8.935,11.347,8.935,21.481,0,17.577-14.041,31.841-35.5,31.841-14.589,0-22.21-2.156-29.013-6.2-1.953-1.135-2.923-1.577-3.74-1.577s-1.621,1-2.553,2.44a3.1,3.1,0,0,1-2.936,1.736c-1.787,0-2.438-.726-2.272-2.27L3.052,73.684c.166-1.01.651-1.01,1.276-1.01Z" transform="translate(-0.473 -0.007)" fill="#333"/>
    <path id="Path_23" data-name="Path 23" d="M66.638,52.746A139.48,139.48,0,0,0,82.7,51.884c2.757-.295,5.833-2.167,8.424-5.2a18.578,18.578,0,0,0,3.561-7.637,1.313,1.313,0,0,1,1.276-1.135l3.727.284a.914.914,0,0,1,.97,1.01c-.319,2.451-.319,14.411-.319,16.431,0,5.186.485,12.108.8,14.99,0,.715-.319,1-1.123,1.135l-3.574.726c-.651.136-1.136-.295-1.276-1.135a40.985,40.985,0,0,0-3.089-6.922c-1.94-2.44-5.016-5.038-7.939-5.765a108.4,108.4,0,0,0-17.513-1V63.14c0,4.323.166,28.539.166,30.411,0,3.892,1.621,4.607,3.829,4.607h9.56c.97,0,1.455.295,1.455.862v3.892c0,.874-.319,1.135-1.277,1.135-1.621,0-8.105-.431-24.967-.431-15.891,0-22.044.431-24.482.431-.638,0-.97-.284-.97-1.294V98.862c0-.579.485-.726,1.136-.726h5.68c3.4,0,4.7-.579,4.863-2.882.153-2.882.638-21.038.638-45.821V39.345c0-6.343-.319-26.666-.319-28.108,0-2.735-2.272-4.176-6.65-4.176H28.652c-.983,0-1.468-.284-1.468-.862V2.012c0-.567.485-.862,1.136-.862,1.787,0,7.94.431,27.724.431,2.336,0,44.969-.465,52.742-.465,3.574,0,7.135-.579,8.437-.579.8,0,1.276.874,1.621,2.451l6.382,23.489c.166.579,0,1.01-.485,1.135L121.5,29.2c-.817.284-1.136,0-2.272-1.441A151.542,151.542,0,0,0,106.59,14.494,25.364,25.364,0,0,0,95.4,8.015C91.35,7,74.169,6.574,66.868,6.574c0,1.872-.166,30.547-.166,39.342Z" transform="translate(57.52 1.15)" fill="#333"/>
    <path id="Path_24" data-name="Path 24" d="M165.108,61.258c0-12.823-.166-19.881-.485-27.087-.166-5.674-.97-19.744-1.455-21.912a7.765,7.765,0,0,0-3.209-4.122,9.43,9.43,0,0,0-5.382-1.495h-5.195c-.8,0-.97-.431-.97-1.294V1.741c0-.715.166-1.01,1.455-1.01,1.787,0,6.969.431,18.968.431,9.726,0,13.62-.431,15.407-.431,1.455,0,1.621.3,1.621,1.135V5.349c0,.715-.166,1.294-.817,1.294h-4.531c-2.757,0-4.378,2.451-4.863,7.637-1.136,9.657-3.727,42.224-3.727,61.276v24.613c0,2.168-.166,4.755-2.438,4.755a9.485,9.485,0,0,1-3.425-.55,8.674,8.674,0,0,1-2.893-1.719c-2.757-2.27-10.7-9.941-20.423-20.176L115.021,53.19c-2.757-2.882-25.133-27.665-28.86-32.431H84.884V49.876c0,11.96,1.455,29.685,1.621,35.177.319,8.352,3.242,12.675,10.046,12.675h4.059c1.136,0,1.276.431,1.276,1.3v3.4c0,.874-.153,1.135-1.276,1.135-1.621,0-11.347-.431-18.967-.431-5.029,0-16.211.431-17.87.431-.651,0-.817-.284-.817-1.294v-3.7a.681.681,0,0,1,.034-.349.753.753,0,0,1,.207-.3.877.877,0,0,1,.336-.184.955.955,0,0,1,.393-.031h5.68c3.561,0,6.165-4.607,6.969-14.264.166-2.735,1.455-25.793,1.455-47.126V23.391c0-8.5-5.833-16.567-13.939-16.715l-4.046-.147a.9.9,0,0,1-.983-1.01V1.593c0-.567.166-.862.983-.862s2.106.148,5.182.148,8.424.284,16.861.284c5.514,0,10.378-.284,12.318-.284a6.255,6.255,0,0,1,2.653.412,5.6,5.6,0,0,1,2.134,1.46l37.616,40.93L164.52,74.375h.651Z" transform="translate(126.734 1.57)" fill="#333"/>
  </g>
</svg>
